<?xml version="1.0" encoding="utf-8"?>
<!-- Generator: Adobe Illustrator 24.1.3, SVG Export Plug-In . SVG Version: 6.00 Build 0)  -->
<svg version="1.1" id="Layer_1" xmlns="http://www.w3.org/2000/svg" xmlns:xlink="http://www.w3.org/1999/xlink" x="0px" y="0px"
	 viewBox="0 0 500 500" style="enable-background:new 0 0 500 500;" xml:space="preserve">
<style type="text/css">
	.st0{fill:#E0E0E0;}
	.st1{fill:#F5F5F5;}
	.st2{fill:#E8505B;}
	.st3{fill:#9494FF;}
	.st4{fill:#150E8E;}
	.st5{fill:#1F137A;}
	.st6{fill:#0F063A;}
	.st7{opacity:0.3;}
	.st8{fill:#FFBE9D;}
	.st9{fill:#EB996E;}
	.st10{opacity:0.6;}
	.st11{fill:#FFFFFF;}
	.st12{fill:#263238;}
	.st13{fill:#455A64;}
	.st14{fill:#FAFAFA;}
</style>
<g id="Background_Complete">
	<path class="st0" d="M81.1,279.3c-0.2-2.5-0.3-5.1-0.2-7.6c-0.1-2.5,0-5.1,0.2-7.6c0.2,2.5,0.3,5.1,0.2,7.6
		C81.3,274.3,81.3,276.8,81.1,279.3z"/>
	<path class="st0" d="M88.9,271.7c-2.6,0.2-5.2,0.3-7.9,0.2c-2.6,0.1-5.2,0-7.9-0.2c2.6-0.2,5.2-0.3,7.9-0.2
		C83.7,271.4,86.3,271.5,88.9,271.7z"/>
	<path class="st0" d="M384.6,357.6c-0.2-2.5-0.3-5.1-0.2-7.6c-0.1-2.5,0-5.1,0.2-7.6c0.2,2.5,0.3,5.1,0.2,7.6
		C384.9,352.5,384.9,355,384.6,357.6z"/>
	<path class="st0" d="M392.5,350c-2.6,0.2-5.2,0.3-7.9,0.2c-2.6,0.1-5.3,0-7.9-0.2c2.6-0.2,5.2-0.3,7.9-0.2
		C387.3,349.7,389.9,349.8,392.5,350z"/>
	<path class="st0" d="M338.5,96.4c-0.2-2.5-0.3-5.1-0.2-7.6c-0.1-2.5,0-5.1,0.2-7.6c0.2,2.5,0.3,5.1,0.2,7.6
		C338.7,91.3,338.7,93.8,338.5,96.4z"/>
	<path class="st0" d="M346.3,88.7c-2.6,0.2-5.2,0.3-7.9,0.2c-2.6,0.1-5.3,0-7.9-0.2c2.6-0.2,5.2-0.3,7.9-0.2
		C341.1,88.5,343.7,88.5,346.3,88.7z"/>
	<circle class="st0" cx="89.8" cy="207.8" r="4.7"/>
	<path class="st0" d="M275.4,405.9c0,2.6-2.1,4.7-4.7,4.7c-2.6,0-4.7-2.1-4.7-4.7s2.1-4.7,4.7-4.7c0,0,0,0,0,0
		C273.3,401.3,275.4,403.3,275.4,405.9C275.4,405.9,275.4,405.9,275.4,405.9z"/>
	<path class="st0" d="M318.7,318c0,2.6-2.1,4.7-4.6,4.7c-2.6,0-4.7-2.1-4.7-4.6c0-2.6,2.1-4.6,4.6-4.7
		C316.6,313.4,318.7,315.4,318.7,318C318.7,318,318.7,318,318.7,318z"/>
	<path class="st0" d="M180.5,86.4c0,2.6-2.1,4.7-4.7,4.7s-4.7-2.1-4.7-4.7s2.1-4.7,4.7-4.7S180.5,83.8,180.5,86.4L180.5,86.4z"/>
	<circle class="st0" cx="200.2" cy="361.6" r="2.3"/>
	<path class="st0" d="M146.4,350c0,1.3-1,2.3-2.3,2.3c-1.3,0-2.3-1-2.3-2.3c0-1.3,1-2.3,2.3-2.3c0,0,0,0,0,0
		C145.4,347.6,146.4,348.7,146.4,350C146.4,350,146.4,350,146.4,350z"/>
	<path class="st0" d="M203.8,91.1c0,1.3-1,2.3-2.3,2.3c-1.3,0-2.3-1-2.3-2.3c0-1.3,1-2.3,2.3-2.3C202.7,88.8,203.7,89.8,203.8,91.1z
		"/>
	<path class="st0" d="M306.2,216.9c0,1.3-1,2.3-2.3,2.3c-1.3,0-2.3-1-2.3-2.3c0-1.3,1-2.3,2.3-2.3
		C305.2,214.6,306.2,215.6,306.2,216.9L306.2,216.9z"/>
	<path class="st1" d="M363.5,239.8c-9.2-8-10.1-21.2-8.4-32.8c0.3-1.9,0.3-4,1.4-5.6c1.1-1.6,3.4-2.5,5-1.5c1.4,0.8,1.8,2.6,2.5,4.1
		c0.9,2,2.3,3.6,4.1,4.8c1.2,0.8,2.7,1.3,3.9,0.8c1.8-0.7,2.2-3,2.4-5c0.4-3.6,0.7-7.2,1.1-10.8c0.1-1.9,0.5-3.9,1.2-5.7
		c0.7-1.8,2.3-3.2,4.2-3.6c1.9-0.3,4,1,4.2,2.9c0,0.8-0.1,1.6-0.2,2.4c-0.1,0.8,0.3,1.6,1,2c0.8,0.2,1.6-0.1,2.2-0.7
		c2.1-1.8,3.9-4,5.4-6.5c1.4-2.4,3.1-4.7,5.1-6.7c2-1.9,4.7-3.3,7.5-3.2c2.8,0.1,5.5,2.2,5.9,4.9c0.4,2.7-1.5,5.4-3.4,7.4
		c-2.9,3-6.2,5.5-9.9,7.6c-0.7,0.3-1.3,0.8-1.7,1.5c-0.6,1.2,0.5,2.6,1.7,3.2c1.4,0.6,3,0.7,4.4,1c1.5,0.3,3,1.2,3.5,2.7
		c0.6,2.1-1.3,3.9-3.1,5.1c-3.5,2.4-7.5,4.1-11.6,5.1c-1.5,0.2-2.9,0.8-4.3,1.5c-1.3,0.9-2.1,2.5-1.6,4c0.5,1.4,2.3,2.1,3.8,1.9
		c1.5-0.3,3-0.7,4.4-1.2c2.8-0.7,6.2-0.2,7.6,2.3c0.9,1.7,0.9,3.7,0.1,5.5c-0.8,1.7-2,3.2-3.4,4.5c-4.7,4.6-10.6,7.8-17,9.4
		C375.1,242.8,369.3,242.7,363.5,239.8"/>
	<path class="st0" d="M367.2,232.9c2.6-6.1,5.6-12.1,8.9-17.9l2.6-4.6c0.8-1.5,1.7-3,2.6-4.4c1.8-2.7,3.7-5.3,5.7-7.7
		c1.9-2.4,3.8-4.6,5.6-6.6c1.8-2,3.5-3.9,5.2-5.5c2.6-2.6,5.4-5,8.3-7.1c1-0.8,1.9-1.3,2.5-1.7l0.6-0.4l0.2-0.1
		c-0.1,0.1-0.1,0.1-0.2,0.2l-0.6,0.4c-0.6,0.4-1.4,1-2.4,1.7c-2.9,2.2-5.7,4.6-8.2,7.2c-1.6,1.6-3.3,3.5-5.1,5.5
		c-1.8,2-3.7,4.2-5.6,6.6c-2,2.5-3.9,5.1-5.6,7.7c-0.9,1.4-1.7,2.9-2.6,4.4l-2.6,4.6c-3.3,5.8-6.2,11.7-8.9,17.8"/>
	<path class="st0" d="M381.4,206c-0.1-0.3-0.1-0.5-0.1-0.8c0-0.5-0.1-1.3-0.1-2.3c-0.1-1.9-0.1-4.6-0.1-7.6c0-3,0-5.7-0.1-7.6
		c0-1-0.1-1.8-0.1-2.3c0-0.3,0-0.5,0-0.8c0.1,0.3,0.1,0.5,0.2,0.8c0.1,0.5,0.2,1.3,0.2,2.3c0.2,1.9,0.2,4.6,0.2,7.6s0,5.6,0,7.6v2.3
		C381.4,205.5,381.4,205.8,381.4,206z"/>
	<path class="st0" d="M406.7,204.1c-0.3,0-0.7,0-1,0c-0.6,0-1.6,0-2.7,0c-2.3,0-5.5,0.1-9,0.4c-3.5,0.3-6.7,0.7-8.9,1
		c-1.1,0.2-2.1,0.3-2.7,0.4c-0.3,0.1-0.7,0.1-1,0.1c0.3-0.1,0.6-0.2,1-0.3c0.6-0.1,1.5-0.4,2.7-0.5c2.3-0.4,5.4-0.8,8.9-1.1
		c3-0.2,6-0.3,9-0.3c1.2,0,2.1,0.1,2.7,0.1C406,204,406.3,204,406.7,204.1z"/>
	<path class="st0" d="M367.6,232.5c-0.1-0.1-0.1-0.2-0.1-0.3c-0.1-0.3-0.2-0.6-0.3-0.9c-0.3-0.8-0.7-2-1.1-3.5
		c-0.9-3-2-7.1-3.1-11.7c-1.2-4.6-2.2-8.7-3-11.7c-0.4-1.4-0.7-2.6-1-3.5c-0.1-0.4-0.2-0.7-0.3-1c0-0.1-0.1-0.2-0.1-0.3
		c0.1,0.1,0.1,0.2,0.1,0.3l0.3,0.9c0.3,0.8,0.7,2,1.1,3.5c0.9,3,2,7.1,3.1,11.7c1.2,4.6,2.2,8.7,3,11.7c0.4,1.4,0.7,2.6,1,3.5l0.3,1
		C367.6,232.2,367.6,232.4,367.6,232.5z"/>
	<path class="st0" d="M401.7,225.4c-0.1,0-0.2,0.1-0.3,0.1l-1,0.2l-3.7,0.8c-3.1,0.6-7.4,1.6-12,2.6c-4.7,1-8.9,2-12,2.5
		c-1.6,0.3-2.8,0.5-3.7,0.6l-1,0.2c-0.1,0-0.2,0-0.4,0l0.3-0.1l1-0.2l3.7-0.8c3.1-0.6,7.4-1.6,12-2.6c4.7-1,8.9-1.9,12-2.5
		c1.6-0.3,2.8-0.5,3.7-0.6l1-0.2C401.5,225.3,401.6,225.3,401.7,225.4z"/>
</g>
<g id="Back_Screens">
	<path class="st2" d="M210.8,111.8c-30.3,2.2-63.4,6.2-87.6,15.5l7.7,51.8c0,0,47-16.8,85.3-15.7L210.8,111.8z"/>
	<path class="st3" d="M210.8,111.8c-30.3,2.2-63.4,6.2-87.6,15.5l7.7,51.8c0,0,47-16.8,85.3-15.7L210.8,111.8z"/>
	<path class="st4" d="M208.6,156.6l-0.3,0l-0.9,0.1l-3.3,0.4c-1.4,0.2-3.2,0.4-5.2,0.7s-4.4,0.6-6.9,1c-10.2,1.6-24.3,4.2-39.6,8.2
		c-5.3,1.4-10.4,2.8-15.1,4.3l-0.2,0.1v-0.2c-1.6-11.9-3.2-22.1-4.4-29.4c-0.6-3.6-1.1-6.5-1.5-8.5c-0.2-1-0.3-1.7-0.4-2.3
		c0-0.2-0.1-0.4-0.1-0.6c0-0.1,0-0.1,0-0.2c0,0.1,0,0.1,0.1,0.2c0,0.1,0.1,0.3,0.1,0.6c0.1,0.5,0.3,1.3,0.5,2.3
		c0.4,2,0.9,4.9,1.6,8.5c1.3,7.3,2.9,17.5,4.6,29.4l-0.3-0.2c4.7-1.5,9.8-2.9,15.1-4.3c13.1-3.4,26.3-6,39.6-8
		c2.6-0.4,4.9-0.7,6.9-0.9c2-0.3,3.8-0.5,5.2-0.6l3.3-0.3l0.9-0.1C208.5,156.7,208.5,156.6,208.6,156.6z"/>
	<path class="st4" d="M209.7,144c0,0-0.1-0.4-0.4-1c-0.4-1-0.9-1.9-1.6-2.7c-1-1.3-2.3-2.4-3.7-3.2c-0.4-0.3-0.9-0.5-1.3-0.7
		c-0.5-0.2-1-0.4-1.5-0.5c-1.1-0.3-2.2-0.5-3.4-0.3c-1.2,0.1-2.4,0.6-3.4,1.3c-1.1,0.8-2,1.8-2.7,3c-1.6,2.4-2.6,5.2-3.8,8.2
		c-0.6,1.6-1.6,3-2.9,4.1c-0.7,0.6-1.5,1-2.4,1.1c-0.9,0.2-1.8,0-2.7-0.3c-3.4-1.4-5-5.3-8.5-6.5c-1.7-0.5-3.6-0.4-5.2,0.4
		c-0.8,0.4-1.5,0.9-2.1,1.6c-0.5,0.7-1,1.4-1.4,2.2c-0.8,1.5-1.4,3.3-2.7,4.5c-0.6,0.6-1.5,1-2.4,1.1c-0.8,0.1-1.7-0.1-2.5-0.5
		c-1.4-0.8-2.6-1.9-3.4-3.3c-0.7-1.3-1.3-2.7-1.8-4.1c-0.5-1.3-1.1-2.5-1.8-3.7c-0.7-1.1-1.6-1.9-2.7-2.5c-1.9-1-4.2-1.1-6.2-0.2
		c-1.5,0.6-2.9,1.6-3.9,2.8c-0.7,0.8-1.2,1.7-1.5,2.7c-0.2,0.7-0.2,1.1-0.3,1.1c0-0.4,0.1-0.7,0.2-1.1c0.3-1,0.8-2,1.4-2.8
		c1.1-1.3,2.4-2.3,4-3c2.1-1,4.4-0.9,6.4,0.1c1.2,0.6,2.1,1.5,2.8,2.6c0.7,1.2,1.4,2.4,1.8,3.7c0.5,1.4,1.1,2.7,1.8,4
		c0.8,1.3,1.9,2.4,3.3,3.2c0.7,0.4,1.5,0.5,2.2,0.5c0.8-0.1,1.5-0.4,2.1-1c1.2-1.1,1.8-2.8,2.6-4.3c0.4-0.8,0.9-1.6,1.4-2.3
		c0.6-0.7,1.4-1.3,2.2-1.7c1.7-0.9,3.7-1,5.5-0.4c1.9,0.6,3.2,2,4.4,3.3c1.1,1.4,2.5,2.5,4.1,3.3c0.8,0.3,1.6,0.4,2.5,0.3
		c0.8-0.2,1.6-0.5,2.2-1c1.2-1.1,2.2-2.4,2.7-3.9c1.2-3,2.3-5.9,3.9-8.3c0.8-1.2,1.7-2.2,2.8-3.1c1.1-0.8,2.3-1.2,3.6-1.4
		c1.2-0.1,2.4,0,3.5,0.4c0.5,0.2,1,0.3,1.5,0.6c2,1,3.7,2.4,5,4.1c0.6,0.8,1.1,1.8,1.5,2.8c0.1,0.3,0.2,0.5,0.2,0.8
		C209.7,143.9,209.7,144,209.7,144z"/>
	<path class="st4" d="M129.4,137.2c0,0.1-0.4,0.3-0.9,0.4s-0.9,0.1-1,0s0.4-0.3,0.9-0.4C128.9,137.1,129.3,137.1,129.4,137.2z"/>
	<path class="st4" d="M130.7,146.7c0,0.1-0.2,0.4-0.7,0.5c-0.4,0.2-0.8,0.3-0.8,0.2s0.3-0.3,0.7-0.5
		C130.3,146.6,130.7,146.6,130.7,146.7z"/>
	<path class="st4" d="M132.4,157c0,0.1-0.3,0.3-0.7,0.5c-0.4,0.1-0.8,0.2-0.8,0.1s0.3-0.3,0.7-0.5C132,156.9,132.3,156.9,132.4,157z
		"/>
	<path class="st4" d="M134.4,167.2c0,0.1-0.3,0.3-0.8,0.5c-0.5,0.1-0.9,0.2-0.9,0.1c0-0.1,0.3-0.3,0.8-0.5
		C133.9,167.1,134.4,167.1,134.4,167.2z"/>
	<path class="st4" d="M191.5,118.4c0.3-0.1,0.7-0.2,1-0.2c0.7-0.1,1.6-0.3,2.8-0.4c2.5-0.3,5.9-0.8,10-1.3h0.2v0.2
		c0.3,3.5,0.7,7.5,1.1,11.7v0.2v0.2h-0.2l-13.5,1.6h-0.2v-0.2c-0.4-3.6-0.7-6.5-0.9-8.7c-0.1-1-0.2-1.8-0.2-2.4
		C191.5,118.8,191.5,118.6,191.5,118.4c0,0.2,0.1,0.5,0.1,0.8c0.1,0.6,0.2,1.4,0.3,2.5c0.3,2.1,0.6,5,1.1,8.5l-0.2-0.2l13.5-1.7
		l-0.2,0.2v-0.2c-0.4-4.2-0.7-8.3-1-11.7l0.2,0.2L191.5,118.4z"/>
	<path class="st4" d="M204.1,120.4c0,0.1-2.3,0.1-5.2,0.4s-5.1,0.8-5.2,0.7C197.1,120.4,200.6,120.1,204.1,120.4z"/>
	<path class="st4" d="M204.3,123.5c0,0.1-2.2,0.2-4.8,0.5c-2.7,0.3-4.8,0.6-4.8,0.5c1.6-0.5,3.2-0.8,4.8-0.9
		C201,123.3,202.6,123.3,204.3,123.5z"/>
	<path class="st4" d="M201,126.1c-0.9,0.3-1.8,0.5-2.8,0.6c-0.9,0.2-1.9,0.2-2.8,0.1c0.9-0.3,1.8-0.5,2.8-0.6
		C199.1,126.1,200.1,126,201,126.1z"/>
	<path class="st2" d="M358.5,127c-29.7-9-54.7-16.8-88.3-16.5l-5.1,52.8c34.9,3.1,46.6,5.4,78.8,17L358.5,127z"/>
	<path class="st3" d="M358.5,127c-29.7-9-54.7-16.8-88.3-16.5l-5.1,52.8c34.9,3.1,46.6,5.4,78.8,17L358.5,127z"/>
	<path class="st5" d="M291.3,136.1l1.3-11.2c-3.3-0.3-6.5,0.6-9.1,2.5c-3.5,2.6-5.6,6.7-5.6,11.1c0,0.5,0,1.1,0,1.6l0,0l0,0
		l13.1-1.5L291.3,136.1z"/>
	<path class="st2" d="M304.9,134.3c-1.3-4.4-4.8-7.8-9.3-8.9l-0.4-0.1l-0.3-0.1l-0.8-0.1h-0.1l-1.3,11.2l-0.3,2.6l12.4,4.5l0,0
		c0.3-0.9,0.5-1.9,0.6-2.9C305.7,138.5,305.5,136.3,304.9,134.3z"/>
	<path class="st6" d="M304.9,134.3c-1.3-4.4-4.8-7.8-9.3-8.9l-0.4-0.1l-0.3-0.1l-0.8-0.1h-0.1l-1.3,11.2l-0.3,2.6l12.4,4.5l0,0
		c0.3-0.9,0.5-1.9,0.6-2.9C305.7,138.5,305.5,136.3,304.9,134.3z"/>
	<path class="st5" d="M291.5,140.2l-13.1,1.5c0.5,6.3,5.2,11.6,11.4,12.4c6.2,0.8,12-3.3,14.1-9.3L291.5,140.2"/>
	<path class="st4" d="M347,137.1c-0.4-0.1-0.8-0.3-1.2-0.5c-0.7-0.3-1.8-0.8-3.1-1.3c-3.4-1.4-6.9-2.7-10.5-3.7
		c-3.6-1-7.2-1.8-10.9-2.5c-1.4-0.2-2.6-0.4-3.4-0.5c-0.4,0-0.8-0.1-1.2-0.2c0.4,0,0.8,0,1.3,0c0.8,0.1,2,0.2,3.4,0.4
		c7.4,1,14.7,3.1,21.5,6.1c1.3,0.6,2.4,1.1,3.1,1.5C346.3,136.6,346.7,136.8,347,137.1z"/>
	<path class="st4" d="M346.1,142.6c-0.4-0.1-0.8-0.3-1.2-0.5c-0.7-0.3-1.8-0.8-3.1-1.3c-6.9-2.9-14.1-4.9-21.4-6.1
		c-1.4-0.2-2.6-0.4-3.4-0.5c-0.4,0-0.8-0.1-1.2-0.2c0.4,0,0.8,0,1.3,0c0.8,0,2,0.2,3.4,0.4c3.7,0.5,7.4,1.3,11,2.3
		c3.6,1,7.1,2.3,10.5,3.8c1.3,0.6,2.4,1.1,3.1,1.5C345.4,142.1,345.8,142.3,346.1,142.6z"/>
	<path class="st4" d="M345.2,148.1c-0.4-0.1-0.8-0.3-1.2-0.5c-0.7-0.3-1.8-0.8-3.1-1.3c-3.4-1.4-6.9-2.7-10.5-3.7
		c-3.6-1-7.2-1.8-10.9-2.5c-1.4-0.2-2.5-0.4-3.4-0.5c-0.4,0-0.8-0.1-1.2-0.2c0.4,0,0.8,0,1.3,0c0.8,0.1,2,0.2,3.4,0.4
		c3.7,0.5,7.4,1.3,11,2.3c3.6,1,7.1,2.3,10.5,3.8c1.3,0.6,2.4,1.1,3.1,1.5C344.5,147.6,344.9,147.8,345.2,148.1z"/>
	<path class="st4" d="M343.4,153.6c-0.4-0.1-0.8-0.3-1.1-0.5c-0.7-0.3-1.7-0.8-3-1.3c-6.7-2.9-13.6-4.9-20.8-6.1
		c-1.4-0.2-2.5-0.4-3.3-0.5c-0.4,0-0.8-0.1-1.2-0.2c0.4,0,0.8,0,1.2,0c0.8,0,1.9,0.2,3.3,0.4c3.6,0.5,7.2,1.3,10.7,2.3
		c3.5,1,6.9,2.3,10.2,3.9c1.3,0.6,2.3,1.1,3,1.5C342.8,153.2,343.1,153.4,343.4,153.6z"/>
	<path class="st4" d="M339.5,158c-0.3-0.1-0.7-0.2-1-0.4l-2.7-1.2c-5.9-2.7-12.2-4.5-18.6-5.3l-2.9-0.4c-0.4,0-0.7-0.1-1.1-0.2
		c0.4,0,0.7,0,1.1,0c0.7,0,1.7,0.1,3,0.3c6.5,0.7,12.8,2.5,18.7,5.3c1.1,0.5,2,1,2.7,1.3C338.9,157.6,339.2,157.8,339.5,158z"/>
	<path class="st4" d="M326.4,158.6c-0.7-0.1-1.4-0.2-2.1-0.4c-1.3-0.3-3.1-0.7-5.1-1c-2-0.3-3.8-0.6-5.1-0.8
		c-0.7-0.1-1.4-0.2-2.1-0.4c0.7-0.1,1.4,0,2.2,0.1c1.3,0.1,3.2,0.3,5.2,0.7c1.7,0.3,3.4,0.7,5.1,1.2
		C325,158.1,325.7,158.3,326.4,158.6z"/>
	<path class="st4" d="M275.4,116.7l0.7,0l2-0.1c1.8,0,4.4,0,7.7,0.2c9.2,0.6,18.4,2.3,27.2,4.9l0.1,0v0.2c-2,11.7-4.5,25.6-7.1,40.5
		c-0.1,0.6-0.2,1.2-0.3,1.8v0.2l-0.2-0.1c-6-1.6-12-2.8-18.2-3.8c-5.9-0.9-11.4-1.5-16.7-1.9h-0.2v-0.2c1.4-12.5,2.6-23,3.5-30.3
		c0.4-3.6,0.8-6.5,1-8.5c0.1-1,0.2-1.7,0.3-2.2c0-0.2,0.1-0.4,0.1-0.6S275.3,116.8,275.4,116.7c0,0.1,0,0.2,0,0.3
		c0,0.1,0,0.3-0.1,0.6c0,0.5-0.1,1.3-0.2,2.3c-0.2,2-0.5,4.9-0.9,8.5c-0.8,7.4-1.9,17.8-3.3,30.2l-0.2-0.2
		c5.2,0.3,10.8,0.9,16.7,1.8c6.1,0.9,12.2,2.2,18.2,3.7l-0.3,0.2c0.1-0.6,0.2-1.2,0.3-1.8c2.6-14.9,5.1-28.8,7.1-40.5l0.1,0.2
		c-8.8-2.7-17.9-4.3-27.1-5c-3.3-0.2-5.9-0.3-7.7-0.3L275.4,116.7L275.4,116.7z"/>
</g>
<g id="Character">
	<polyline class="st2" points="243,224.7 271.9,231.1 276.3,224.7 275.6,216.4 271.2,212.4 256,212.4 241.9,225.1 	"/>
	<g class="st7">
		<polyline points="243,224.7 271.9,231.1 276.3,224.7 275.6,216.4 271.2,212.4 256,212.4 241.9,225.1 		"/>
	</g>
	<path class="st8" d="M287.1,165.1l36.5-4.9l5.7-1.6c0,0,13.2-2.9,14.4-3.3c1.4-0.5,2,0.1,2.2,0.6c0.2,0.8-0.6,1.8-1.8,2.2
		c-0.4,0.2-7.1,2.5-7.1,2.5c0.8,0.2,1.5,0.4,2.3,0.7c1.6,0.5,3.1,2.6,3.9,5c0.8,2.4,0.8,3.1-0.1,3.5c-0.4,0.1-0.7,0.1-1.1-0.1
		c-0.5-0.3-0.9-0.8-1.1-1.4c-1.3-3.8-3.7-4.1-3.7-4.1l-0.8,0.2c0,0,2.5,1.7,2.5,3.8c0,0.3-0.1,0.6-0.2,0.9c0.6,1.6-0.3,3.5-1.9,4
		c-0.5,0.2-1.1,0.2-1.6,0.1c-0.5-0.1-1.1-0.4-1.2-0.9c0-0.3,0-0.6,0.2-0.8c0.1-0.1,0.1-0.3,0.1-0.4l-2.2,0.3c0,0-5,0.4-7.1,0.8
		l-34.2,10.3c-4.7,1.4-9.6-1.2-11.1-5.9c0,0,0-0.1,0-0.1l0,0c-1.3-4.7,1.4-9.6,6.1-10.9C286.2,165.2,286.6,165.1,287.1,165.1z"/>
	<path class="st8" d="M324.4,161.1c0.2,0.8,0.8,1.4,1.6,1.5c0.8,0.2,1.5,0.1,2.3,0.2c2.3,0.3,4,2.4,6.3,2.6c0.3,0,0.7,0,0.8-0.3
		c0.1-0.3-0.2-0.5-0.4-0.7l-5.7-5"/>
	<path class="st9" d="M329.4,159.1c0.2,0.1,0.5,0.3,0.7,0.5c0.4,0.3,1,0.8,1.7,1.4l2.5,2.2l0.7,0.6c0.2,0.2,0.6,0.4,0.7,0.9
		c0,0.3-0.2,0.5-0.4,0.6c-0.2,0.1-0.4,0.1-0.6,0.1c-0.4,0-0.7-0.1-1.1-0.2c-1.3-0.5-2.5-1.1-3.7-1.8c-0.5-0.3-1.1-0.4-1.6-0.5
		c-0.5-0.1-1.1-0.1-1.5-0.1c-0.8,0-1.6-0.3-2.1-0.9c-0.3-0.5-0.3-0.8-0.3-0.8c0.1,0.2,0.2,0.5,0.4,0.7c0.5,0.5,1.2,0.8,2,0.7
		c0.5,0,1,0,1.6,0c0.6,0.1,1.2,0.3,1.7,0.5c1.2,0.7,2.4,1.3,3.6,1.8c0.3,0.1,0.7,0.2,1,0.2c0.3,0,0.6-0.1,0.6-0.3
		c0-0.2-0.3-0.4-0.5-0.6l-0.7-0.6l-2.5-2.2l-1.6-1.5C329.5,159.4,329.4,159.2,329.4,159.1z"/>
	<path class="st9" d="M336.4,164.1c0.5-0.1,1-0.1,1.4,0c0.5,0.1,0.9,0.4,1.3,0.8c0.4,0.5,0.7,1.1,0.9,1.7c0.2,0.6,0.5,1.2,0.8,1.8
		c0.3,0.5,0.7,0.9,1.2,1.2c0.4,0.2,0.8,0.2,1.1,0c0.2-0.1,0.3-0.2,0.3-0.3c0,0-0.1,0.1-0.4,0.2c-0.3,0.1-0.7,0.1-1-0.1
		c-0.4-0.3-0.8-0.7-1.1-1.1c-0.3-0.6-0.6-1.2-0.8-1.8c-0.2-0.6-0.5-1.2-1-1.8c-0.4-0.4-0.8-0.8-1.4-0.9c-0.4-0.1-0.8-0.1-1.1,0
		C336.5,164,336.4,164.1,336.4,164.1z"/>
	<path class="st9" d="M344.6,157.9c-0.5,0.1-0.9,0.3-1.3,0.4l-3.2,1.2l-3.2,1.1c-0.5,0.1-0.9,0.3-1.3,0.5c0.5-0.1,0.9-0.2,1.4-0.3
		c0.8-0.2,2-0.6,3.2-1c1.2-0.4,2.4-0.9,3.2-1.2C343.8,158.3,344.2,158.1,344.6,157.9z"/>
	<path class="st9" d="M335.4,166.2c0,0,0.1,0.1,0.3,0.3c0.3,0.3,0.4,0.6,0.4,1c0,0.2-0.2,0.4-0.4,0.5c-0.3,0.1-0.6,0.2-0.9,0.2
		c-0.4,0-0.7,0.2-1,0.5c-0.2,0.4-0.3,0.8-0.2,1.2c0.1,0.4,0.4,0.7,0.8,0.9c0.3,0.2,0.7,0.2,1.1,0.2c0.6-0.1,1.2-0.3,1.7-0.6
		c0.4-0.2,0.7-0.4,1-0.7c0.1-0.1,0.2-0.2,0.2-0.4c0,0-0.1,0.1-0.3,0.3c-0.3,0.3-0.6,0.5-1,0.6c-0.5,0.3-1.1,0.4-1.6,0.6
		c-0.7,0.1-1.4-0.2-1.6-0.9c-0.1-0.3-0.1-0.7,0.1-1c0.2-0.2,0.5-0.4,0.8-0.4c0.3-0.1,0.6-0.2,0.9-0.3c0.3-0.1,0.5-0.4,0.5-0.7
		c0-0.4-0.2-0.8-0.5-1.1C335.6,166.3,335.4,166.2,335.4,166.2z"/>
	<path class="st9" d="M334.6,170.7c0,0-0.2,0-0.4,0.2c-0.3,0.3-0.4,0.6-0.4,1c0.1,0.6,0.4,1.1,1,1.3c0.6,0.3,1.3,0.3,2,0
		c0.6-0.2,1.2-0.6,1.6-1.2c0.3-0.5,0.5-1,0.5-1.5c0-0.4,0-0.7-0.1-1.1c0-0.1-0.1-0.3-0.2-0.4c0.1,0.5,0.1,0.9,0.1,1.4
		c-0.2,1.1-0.9,2.1-2,2.5c-0.6,0.2-1.2,0.2-1.8,0c-0.5-0.2-0.8-0.6-0.9-1.1c0-0.3,0.1-0.7,0.3-0.9
		C334.5,170.8,334.6,170.8,334.6,170.7z"/>
	<path class="st9" d="M328.6,167.7c0,0,0-0.3-0.2-0.6c-0.3-0.5-0.8-0.9-1.3-1.1v0.2c0.3-0.1,0.6-0.3,0.8-0.5c1-0.6,1.8-1.4,2.3-2.4
		c-0.7,0.8-1.6,1.5-2.5,2.1c-0.3,0.2-0.5,0.3-0.8,0.5l-0.3,0.1l0.3,0.1c0.5,0.2,1,0.5,1.3,0.9C328.4,167.5,328.5,167.7,328.6,167.7z
		"/>
	<path class="st9" d="M339.9,163.8c0,0-0.4,0.4-0.5,1.1c0,0.7,0.3,1.1,0.3,1.1s-0.1-0.5-0.1-1.1C339.8,164.3,340,163.9,339.9,163.8z
		"/>
	<path class="st8" d="M169.5,176.5c0,0-5.3-8.6-6.3-9.4s-9.4-3.8-10.1-3.6s-11,2-9.8,3.2c1.1,1.2,8.3-0.1,8.3-0.1l1,0.5
		c0,0-6.2,1-7.5,1.7c-1.3,0.8-0.8,2.1,0.4,2c1.2-0.1,6.5-1.2,6.8-0.9s-5.8,1.4-6.5,1.8c-0.9,0.5-1,2.1,0.1,2c0.7,0,6.5-1.5,6.5-1.5
		c-1.7,0.6-3.4,1.4-5,2.2c-0.7,0.7-0.1,1.6,0.8,1.4c0.7-0.1,3.9-1.7,4.8-1.9c0,0,0.8,0.2,1.6,2c0.4,0.8,2,5.8,5,5.8
		c2.7-0.1,5.3,2.1,5.3,2.1L169.5,176.5z"/>
	<path class="st9" d="M143.4,166.8c0.6,0.3,1.2,0.5,1.9,0.5c0.7,0.1,1.4,0.1,2.1,0.1c0.8-0.1,1.6-0.2,2.5-0.3l1.9-0.3h-0.1
		c1.4,0.6,2.9,1,4.4,1.4c-1.4-0.7-2.8-1.3-4.3-1.8h0h-0.1l-1.9,0.3l-2.5,0.4c-0.7,0.1-1.4,0.1-2,0
		C144.1,166.9,143.4,166.7,143.4,166.8z"/>
	<path class="st8" d="M165.5,175.5c-0.7,0.5-1.7,0.5-2.4,0c-0.7-0.4-1.3-1.1-2-1.6c-2.1-1.5-5.1-1.1-7.1-2.7
		c-0.3-0.2-0.6-0.6-0.4-0.9c0.2-0.3,0.5-0.3,0.9-0.3l8.4,0.2"/>
	<path class="st9" d="M163,170.2c-0.3-0.1-0.6-0.1-0.9-0.1c-0.6,0-1.4-0.1-2.5-0.1l-3.7-0.1h-1.1c-0.4-0.1-0.9,0-1.2,0.3
		c-0.2,0.2-0.3,0.5-0.1,0.8c0.1,0.2,0.2,0.4,0.4,0.5c0.3,0.3,0.7,0.5,1.1,0.6c1.4,0.5,2.9,0.9,4.4,1.3c0.6,0.2,1.2,0.5,1.7,0.8
		c0.5,0.3,0.9,0.7,1.3,1.1c0.6,0.6,1.5,0.9,2.4,0.8c0.6-0.1,0.8-0.5,0.8-0.5c-0.3,0.1-0.5,0.2-0.8,0.3c-0.8,0-1.6-0.3-2.1-0.9
		c-0.4-0.3-0.8-0.8-1.3-1.1c-0.6-0.4-1.2-0.7-1.8-0.9c-1.5-0.3-2.9-0.8-4.3-1.3c-0.3-0.2-0.7-0.4-1-0.6c-0.3-0.2-0.4-0.5-0.3-0.6
		s0.5-0.1,0.9-0.1h1.1h3.7c1,0,1.9,0,2.5,0C162.4,170.3,162.7,170.3,163,170.2z"/>
	<path class="st5" d="M211.1,367.9l-1.9,21.4l-6.4,16.5c-0.4,1.1,0.1,2.4,1.3,2.9c0,0,0.1,0,0.1,0l0,0c0.7,0.2,1.4,0.1,2-0.3
		c3.6-2.8,16.9-13,16.9-14.5c0.1-1.8,3.6-22.5,3.6-22.5L211.1,367.9z"/>
	<g class="st10">
		<path class="st11" d="M204.1,408.8l19.1-16.3l-0.1,0.9c-0.1,0.8-0.5,1.5-1,2.1c-1.5,1.4-5.9,5.3-15.9,13.1
			C205.6,408.9,204.8,409.1,204.1,408.8L204.1,408.8z"/>
	</g>
	<g class="st10">
		<path class="st11" d="M219.6,385.1c-0.6,0.3-0.8,1.1-0.6,1.7c0.3,0.6,1,0.8,1.6,0.6c0.6-0.4,0.9-1.1,0.6-1.8
			c-0.4-0.6-1.2-0.8-1.8-0.4"/>
	</g>
	<path class="st12" d="M210,400c-0.1,0-0.5-1.1-1.7-1.9c-0.7-0.4-1.6-0.7-2.4-0.8c0,0,0.3-0.2,0.8-0.2c0.7,0,1.3,0.2,1.9,0.6
		c0.6,0.4,1,0.9,1.3,1.5C210.1,399.7,210.1,400,210,400z"/>
	<path class="st12" d="M208.2,402.7c-0.1,0.1-0.7-0.7-1.8-1.1c-0.7-0.2-1.4-0.4-2.1-0.5c0.7-0.3,1.5-0.3,2.2,0.1
		C207.8,401.6,208.3,402.7,208.2,402.7z"/>
	<path class="st12" d="M213.3,396.7c-0.8-0.7-1.7-1.4-2.6-1.9c-1.6-0.9-3.1-1-3.1-1.1c1.1-0.2,2.3,0.1,3.3,0.7
		C211.9,394.8,212.8,395.6,213.3,396.7z"/>
	<path class="st12" d="M214.4,390.2c-0.1,0.1-1.2-0.5-2.7-0.7c-1.5-0.2-2.8,0-2.8-0.1C210.7,388.6,212.9,388.9,214.4,390.2z"/>
	<path class="st12" d="M215.1,383.9c-0.9-0.4-1.8-0.7-2.8-0.8c-1,0-2,0.1-2.9,0.4c0,0,0.2-0.3,0.8-0.5c0.7-0.3,1.4-0.4,2.2-0.3
		c0.7,0.1,1.5,0.3,2.1,0.7C215,383.6,215.2,383.9,215.1,383.9z"/>
	<path class="st12" d="M212.5,381.9c0-0.3,0-0.6,0.1-0.8c0.2-0.7,0.5-1.4,0.9-2c0.3-0.5,0.7-0.9,1.2-1.1c0.4-0.1,0.7,0,1,0.3
		c0.2,0.3,0.3,0.7,0.2,1c-0.3,1.5-1.5,2.5-3,2.6c-1.5,0-2.8-0.9-3.3-2.3c-0.1-0.3-0.1-0.7,0.1-1c0.2-0.3,0.6-0.5,1-0.4
		c0.5,0.2,1,0.5,1.3,0.9c0.5,0.5,1,1.1,1.3,1.8c0.1,0.2,0.2,0.5,0.2,0.8c-0.5-0.9-1.1-1.7-1.7-2.4c-0.3-0.3-0.7-0.6-1.2-0.7
		c-0.2-0.1-0.4,0-0.5,0.2c-0.1,0.2-0.1,0.5,0,0.7c0.5,1.2,1.6,1.9,2.9,1.9c1.3,0,2.3-0.9,2.6-2.1c0-0.2,0-0.5-0.1-0.7
		c-0.1-0.2-0.3-0.2-0.5-0.2c-0.4,0.2-0.8,0.5-1,0.9C213.2,380,212.8,380.9,212.5,381.9z"/>
	<path class="st12" d="M230.8,380.5l16-127l-5.1-29.5l-30.2,1.6l-3.8,152.6c0,1.1,0.8,2.1,1.9,2.3l17.6,2.7
		C228.9,383.5,230.5,382.3,230.8,380.5C230.8,380.6,230.8,380.6,230.8,380.5z"/>
	<path class="st12" d="M246.4,257.7l29.2,28.9l-42,10.2l3,21.2l56.8-7.7c4.9-0.7,9.2-3.3,12.1-7.3l0,0c4.4-6.1,4.5-14.3,0.3-20.5
		l-44.3-65l-19.8,6.4L246.4,257.7z"/>
	<path class="st13" d="M244.7,250.4c0.5,1.2,0.8,2.4,1,3.6c0.3,1.2,0.5,2.5,0.6,3.7c-0.5-1.2-0.8-2.4-1-3.6
		C245,252.9,244.8,251.7,244.7,250.4z"/>
	<path class="st13" d="M240.5,299.5l0.7-0.2l2-0.6l7.8-2.4l28.5-8.6l-0.1,0.3l-35-37.3l0.4-0.1c-0.7,5.9-1.4,12-2.2,18.2
		c-3.6,30.2-7,57.6-9.6,77.4c-1.3,9.9-2.5,17.9-3.3,23.4c-0.5,2.7-0.8,4.9-1.1,6.3c-0.1,0.7-0.3,1.3-0.4,1.6s-0.1,0.6-0.1,0.6
		s0-0.2,0.1-0.6s0.2-0.9,0.3-1.6c0.3-1.4,0.6-3.6,1-6.3c0.8-5.5,1.9-13.5,3.2-23.4c2.6-19.8,5.9-47.2,9.5-77.4
		c0.7-6.2,1.5-12.4,2.2-18.2l0-0.4l0.3,0.3l34.9,37.4l0.2,0.2l-0.3,0.1l-28.5,8.4l-7.9,2.3l-2.1,0.6
		C240.7,299.5,240.5,299.5,240.5,299.5z"/>
	<path class="st13" d="M231,378.1c-0.1,0,3.2-27,7.4-60.2s7.7-60.2,7.9-60.2c0.1,0-3.2,27-7.4,60.2
		C234.7,351.2,231.2,378.1,231,378.1z"/>
	<path class="st13" d="M241.6,237c0.3,0.6,0.5,1.3,0.7,2c0.4,1.2,0.8,3,1.2,4.9s0.7,3.7,0.9,4.9c0.1,0.7,0.2,1.4,0.2,2.1
		c-0.2-0.7-0.4-1.3-0.5-2c-0.3-1.4-0.7-3.1-1-4.9c-0.4-1.8-0.8-3.5-1.1-4.9C241.8,238.3,241.7,237.6,241.6,237z"/>
	<path class="st13" d="M243.5,234.5c0,0,0.4-0.4,1.2-0.1c0.5,0.2,0.8,0.6,0.9,1c0.1,0.6-0.1,1.2-0.7,1.6c-0.5,0.3-1.2,0.2-1.6-0.2
		c-0.4-0.3-0.5-0.8-0.4-1.3c0.1-0.3,0.3-0.6,0.5-0.7c0.2-0.1,0.3-0.1,0.3-0.1c-0.3,0.2-0.5,0.5-0.6,0.9c-0.1,0.4,0,0.7,0.3,0.9
		c0.3,0.3,0.8,0.3,1.2,0.1c0.4-0.2,0.6-0.7,0.5-1.1c-0.1-0.4-0.3-0.7-0.6-0.8C244.3,234.5,243.9,234.4,243.5,234.5z"/>
	<path class="st13" d="M284.1,291.6c-0.1,0.1-1.7-1.4-4.1-2.8c-2.4-1.4-4.5-2.1-4.4-2.2c1.7,0.3,3.2,0.9,4.7,1.8
		C281.8,289.2,283.1,290.3,284.1,291.6z"/>
	<path class="st5" d="M221.1,137.4l-16.8,8.1l7.2,50.4l-2.8,22.6c-0.4,2.9,0.7,5.8,3,7.8l0,0l27.1-0.5l18.9-10.4l8.7-1.5l-3.6-17.2
		l1.6-24.4l19.8,10.6c1.5,0.8,3.3,1,5,0.6l36.3-9.4l-1.9-14l-32.9,3.7l-25-22.1l-18.6-4.2l-3.3-5.5h-19.1l-1.4,1
		c-0.6,0.5-1.1,1.1-1.4,1.9L221.1,137.4z"/>
	<path class="st5" d="M204.3,145.4c-3.5,2.4-6.1,5.8-7.5,9.8c-1.9,5.9-6.2,30-6.2,30l-19-11.8l-11,11.5l25.3,22.4
		c3.9,3.4,9.5,4.2,14.1,2l0,0c3.9-1.9,6.6-5.6,7.2-9.9l3.1-22.8L204.3,145.4z"/>
	<polygon class="st8" points="261.5,217.5 260.3,215.8 247.8,218.1 245.5,223.4 	"/>
	<path class="st5" d="M211.6,226.2c11.2,4.5,23.2,2.8,33.8-2.8c3.2-1.7,6.2-3.8,9.4-5.5c3.2-1.7,6.8-2.9,10.5-2.7
		c3.6,0.3,7.3,2.3,8.8,5.6s0,7.9-3.4,9.1l1.2,1.1c5-2.3,7.4-9.1,5-14.1c-1.9-3.8-5.8-6.1-8.7-9.2c-4.3-4.6-4.7-13.4-4.7-20.3"/>
	<path class="st12" d="M236.2,147.1c-0.3,0-0.5,0-0.8,0c-0.7,0.1-1.5,0.4-2,0.9c-0.7,0.9-1.1,2-1,3.2c0,1.5,0.3,2.9,0.9,4.3l0.3,0.7
		l-0.6-0.5c-1.5-1.1-2.9-2.4-4.2-3.7c-2.8-2.9-5-6.2-6.5-9.9c-0.4-1.1-0.8-2.3-1.1-3.4c-0.1-0.4-0.2-0.9-0.2-1.3
		c0.4,1.6,0.9,3.1,1.5,4.7c1.6,3.6,3.8,6.9,6.5,9.8c1.3,1.3,2.7,2.6,4.2,3.7l-0.3,0.3c-0.3-0.7-0.6-1.5-0.7-2.3
		c-0.1-0.7-0.2-1.4-0.2-2.2c-0.1-1.2,0.4-2.4,1.2-3.4c0.6-0.6,1.3-0.9,2.1-0.9C235.7,147,235.9,147,236.2,147.1z"/>
	<path class="st5" d="M237.2,147.1c1.4-0.6,3.4,0.3,4.4,1.4c0.7,0.8,1,1.8,1.9,2.3s3.6,0.9,4.4,0.3c0,0,0.5-2.3,0.7-3.3
		c0.9-3.7,1.5-7.4,1.9-11.2c-2.6-1.3-1.9-3-6.7-2.6c0.7,2.2,0.7,4.5,0.2,6.7"/>
	<path class="st12" d="M244,140.6c0,0,0.2-0.6,0.3-1.8c0.1-1.6-0.1-3.3-0.6-4.8l-0.1-0.2h0.2c1.2-0.2,2.4,0,3.5,0.3
		c0.6,0.3,1.2,0.7,1.6,1.2c0.5,0.5,1,0.8,1.6,1.1l0.1,0.1v0.1c-0.2,2-0.4,4.2-0.8,6.4c-0.2,1.5-0.5,2.9-0.9,4.2s-0.6,2.6-0.9,3.9
		v0.1l0,0c-0.4,0.2-0.9,0.4-1.4,0.3c-0.4,0-0.9,0-1.3-0.1c-0.4-0.1-0.8-0.1-1.2-0.3c-0.4-0.1-0.8-0.3-1.1-0.6
		c-0.5-0.5-0.9-1.1-1.3-1.7c-0.3-0.5-0.8-0.9-1.3-1.2c-0.7-0.5-1.5-0.7-2.4-0.7c-0.3,0-0.6,0.1-0.9,0.1c0.3-0.2,0.6-0.2,0.9-0.3
		c0.9,0,1.7,0.2,2.5,0.7c0.5,0.3,1,0.7,1.4,1.2c0.4,0.6,0.8,1.1,1.3,1.6c0.6,0.4,1.4,0.7,2.1,0.7c0.4,0.1,0.8,0.1,1.3,0.1
		c0.4,0,0.8-0.1,1.2-0.3l-0.1,0.1c0.3-1.2,0.5-2.6,0.9-3.9c0.3-1.3,0.6-2.7,0.9-4.2c0.4-2.2,0.6-4.4,0.8-6.4l0.1,0.2
		c-0.6-0.3-1.2-0.7-1.8-1.2c-0.4-0.5-0.9-0.8-1.5-1.1c-1.1-0.3-2.2-0.5-3.3-0.3l0.1-0.2c0.5,1.6,0.6,3.3,0.5,5
		c-0.1,0.5-0.2,0.9-0.3,1.3C244.1,140.3,244.1,140.5,244,140.6z"/>
	<path class="st12" d="M271.9,217.8c0,0,0-0.3,0-0.9c-0.1-0.9-0.4-1.8-0.8-2.5c-0.7-1.2-1.8-2.2-3-2.9c-1.7-0.9-3.5-1.4-5.4-1.5
		c-2.1-0.2-4.4-0.1-6.9-0.2c-2.6-0.1-5.3-0.7-7.7-1.6c-2.8-1.1-5.2-2.9-7-5.2c-0.9-1.3-1.6-2.7-2-4.2c-0.4-1.6-0.5-3.2-0.5-4.8
		c0.1-3.3,0.9-6.3,1.3-9.3c0.4-2.9,0.7-5.7,0.8-8.6c0.2-8.2-0.9-16.4-3.5-24.3c-0.3-1.1-0.7-2-0.9-2.5c-0.1-0.3-0.2-0.5-0.2-0.7
		c0-0.1-0.1-0.2-0.1-0.2c0,0,0,0.1,0.1,0.2c0.1,0.1,0.2,0.4,0.3,0.7c0.2,0.6,0.6,1.4,0.9,2.5c1.1,3.1,1.9,6.3,2.5,9.6
		c0.9,4.8,1.3,9.8,1.2,14.7c-0.1,2.9-0.4,5.8-0.8,8.7c-0.4,3-1.2,6-1.3,9.2c-0.2,3.1,0.6,6.2,2.4,8.7c1.7,2.3,4.1,4.1,6.8,5.1
		c2.4,0.9,5,1.5,7.6,1.6c2.5,0.2,4.8,0.1,6.9,0.3c1.9,0.1,3.8,0.7,5.5,1.6c1.2,0.7,2.3,1.8,3,3c0.5,0.8,0.7,1.7,0.8,2.6
		c0,0.2,0,0.5,0,0.7C271.9,217.7,271.9,217.8,271.9,217.8z"/>
	<path class="st12" d="M259.7,202.9c-0.3,0.4-0.6,0.7-0.9,1c-0.3,0.3-0.7,0.7-1.2,1.1c-0.5,0.4-1,0.9-1.6,1.3
		c-1.4,1.1-3,2.2-4.5,3.1c-3.9,2.3-8,4.1-12.4,5.2c-1.8,0.5-3.6,0.8-5.4,1c-0.8,0.1-1.5,0.2-2.1,0.2s-1.2,0.1-1.6,0.1
		c-0.5,0-0.9,0-1.4,0c0.4-0.1,0.9-0.1,1.3-0.2c0.4,0,1-0.1,1.6-0.2c0.6-0.1,1.3-0.1,2.1-0.3c1.8-0.3,3.6-0.6,5.3-1.1
		c2.1-0.6,4.3-1.3,6.3-2.1c2.1-0.9,4-1.9,6-3c1.6-0.9,3.1-1.9,4.5-3c0.6-0.4,1.2-0.9,1.6-1.3c0.5-0.4,0.9-0.7,1.2-1
		C259,203.4,259.3,203.1,259.7,202.9z"/>
	<path class="st12" d="M254.4,176.1c0,0.2,0,0.3-0.1,0.4l-0.3,1.3c-0.1,0.7-0.3,1.3-0.5,2c-0.2,0.8-0.5,1.6-0.9,2.6
		c-0.2,0.5-0.4,1-0.6,1.5c-0.2,0.5-0.5,1-0.7,1.6c-0.5,1.1-1.1,2.2-1.7,3.4c-2.9,5.1-6.7,9.6-11.2,13.3c-1.1,0.8-2.1,1.6-3.1,2.3
		c-0.5,0.3-1,0.7-1.4,1l-1.4,0.8c-0.8,0.5-1.7,0.9-2.4,1.3c-0.6,0.3-1.2,0.6-1.9,0.9l-1.2,0.5c-0.1,0.1-0.3,0.1-0.4,0.1
		c0.1-0.1,0.3-0.2,0.4-0.2l1.2-0.6c0.5-0.2,1.1-0.5,1.8-0.9c0.7-0.4,1.5-0.8,2.4-1.4l1.3-0.8c0.5-0.3,0.9-0.6,1.4-1
		c1-0.7,2-1.5,3-2.3c2.2-1.9,4.3-3.9,6.1-6.1c1.8-2.2,3.5-4.6,5-7.1c0.6-1.2,1.3-2.3,1.7-3.4c0.3-0.5,0.5-1.1,0.7-1.6l0.6-1.5
		c0.4-0.9,0.7-1.8,0.9-2.6c0.3-0.8,0.5-1.4,0.6-2l0.4-1.3C254.3,176.4,254.4,176.2,254.4,176.1z"/>
	<path class="st12" d="M220,230.3c-0.6-0.3-1.1-0.6-1.5-1.1c-2.2-2.1-3.4-5.1-3.4-8.1c0-0.6,0.1-1.2,0.2-1.8c0.1,0,0,0.7,0.1,1.8
		c0.2,2.9,1.3,5.7,3.3,7.9C219.5,229.8,220,230.3,220,230.3z"/>
	<path class="st12" d="M219.4,224c0.1,0-0.1,1.1,0,2.4s0.5,2.3,0.4,2.3C218.8,227.3,218.7,225.5,219.4,224L219.4,224z"/>
	<path class="st12" d="M211.3,194.7c-0.1-0.1-0.1-0.3-0.1-0.4c-0.1-0.3-0.1-0.7-0.2-1.1c-0.2-1-0.4-2.5-0.7-4.1
		c-0.6-3.5-1.4-8.2-2.4-13.5c-1-5.3-1.9-10-2.6-13.5c-0.3-1.6-0.6-3-0.8-4.1c-0.1-0.4-0.2-0.8-0.2-1.1c0-0.1-0.1-0.3,0-0.4
		c0.1,0.1,0.1,0.2,0.1,0.4c0.1,0.3,0.2,0.7,0.3,1.1c0.2,0.9,0.6,2.3,1,4c0.8,3.4,1.8,8.2,2.8,13.4c1,5.2,1.7,10.1,2.2,13.5
		c0.3,1.7,0.4,3.1,0.6,4.1c0,0.4,0.1,0.8,0.1,1.1C211.4,194.4,211.3,194.6,211.3,194.7z"/>
	<path class="st12" d="M263.6,194.7c0-0.1,0-0.3,0-0.4c0-0.3,0-0.7,0-1.2c0-1,0-2.5,0-4.3c0-3.6,0.2-8.6,0.6-14.1s1-10.4,1.4-14
		c0.2-1.7,0.4-3.2,0.5-4.2c0.1-0.5,0.1-0.8,0.2-1.2c0-0.1,0-0.3,0.1-0.4c0,0.1,0,0.3,0,0.4c0,0.3-0.1,0.7-0.1,1.2
		c-0.1,1.1-0.2,2.5-0.4,4.2c-0.4,3.6-0.8,8.5-1.3,14c-0.4,5.5-0.6,10.4-0.7,14c0,1.7-0.1,3.2-0.1,4.3l0,1.2
		C263.7,194.4,263.7,194.6,263.6,194.7z"/>
	<path class="st12" d="M198.3,196.8c-0.1,0.1-1.2-2.9-3.3-6.2c-2.1-3.2-4.5-5.3-4.4-5.4c0.6,0.4,1.2,0.8,1.6,1.3
		c1.2,1.2,2.3,2.4,3.2,3.8c0.9,1.4,1.7,2.9,2.3,4.4C197.9,195.5,198.1,196.1,198.3,196.8z"/>
	<path class="st12" d="M199.7,193.2c-0.3-0.5-0.6-1.1-0.9-1.6c-0.7-1.2-1.7-2.3-2.8-3.3c-1.1-0.9-2.4-1.7-3.7-2.3
		c-0.6-0.2-1.1-0.5-1.6-0.8c0.6,0.1,1.2,0.3,1.8,0.5c1.4,0.5,2.7,1.3,3.9,2.2c1.2,1,2.1,2.1,2.8,3.5
		C199.3,192,199.6,192.6,199.7,193.2z"/>
	<path class="st14" d="M208.1,173.6c0,0,0,0.1-0.2,0.4c-0.2,0.3-0.4,0.6-0.7,0.9c-1.1,0.9-2.6,1.3-4,1.1c-2.1-0.4-3.9-1.7-5-3.6
		c-0.7-1-1.2-2.1-1.6-3.3c-0.2-0.6-0.5-1.2-0.7-1.8c-0.2-0.7-0.3-1.4-0.2-2.1c0.1-0.7,0.4-1.4,1-1.9c0.6-0.4,1.3-0.6,2-0.4
		c1.3,0.4,2.3,1.3,2.7,2.5c0.4,1.1,0.3,2.3-0.3,3.3c-0.5,0.9-1.4,1.5-2.3,1.8c-0.8,0.2-1.7,0.2-2.5-0.1c-0.6-0.2-1.1-0.6-1.5-1
		c-0.3-0.3-0.5-0.6-0.6-1c-0.1-0.2-0.1-0.4-0.1-0.4c0.2,0.4,0.5,0.9,0.9,1.2c0.4,0.4,0.9,0.7,1.5,0.9c0.7,0.3,1.5,0.3,2.2,0
		c0.9-0.3,1.6-0.9,2.1-1.7c0.5-0.9,0.6-2,0.3-3c-0.4-1.1-1.3-2-2.5-2.3c-0.6-0.2-1.2,0-1.6,0.3c-0.5,0.4-0.8,1-0.8,1.6
		c-0.1,1.3,0.4,2.5,0.8,3.7c0.4,1.1,1,2.2,1.6,3.3c1,1.8,2.8,3,4.8,3.5c1.4,0.2,2.8-0.1,3.8-0.9
		C207.5,174.5,207.8,174.1,208.1,173.6z"/>
	<path class="st14" d="M240.2,186.2l-0.2,0.2c-0.2,0.1-0.4,0.3-0.7,0.5c-0.9,0.7-1.8,1.3-2.8,1.8c-0.7,0.4-1.5,0.6-2.3,0.8
		c-1,0.2-1.9,0.1-2.9-0.2c-2.2-0.9-4-2.5-5.2-4.6c-3.2-5.4-3.2-12.1,0.1-17.4c0.9-1.6,2.2-2.8,3.8-3.6c0.9-0.4,1.8-0.5,2.8-0.4
		c1,0.1,1.8,0.6,2.5,1.4c0.6,0.8,0.9,1.8,0.8,2.8c-0.1,1-0.4,1.9-0.9,2.8c-1.1,1.7-2.7,3-4.5,3.7c-1.9,0.7-3.9,0.9-5.8,0.6
		c-1.9-0.3-3.7-1-5.3-2.2c-2.9-2.2-5-5.2-6.2-8.7c-0.6-1.6-0.9-3.3-0.8-5c0.1-0.8,0.5-1.6,1-2.3c0.5-0.7,1.2-1.1,2-1.3
		c1.5-0.3,3.1,0.3,4.1,1.4c0.9,1.1,1.3,2.5,1,3.9c-0.2,1.2-0.8,2.4-1.7,3.3c-0.8,0.8-1.7,1.4-2.8,1.8c-1.7,0.6-3.4,0.9-5.2,0.8
		c-1.1-0.1-2.2-0.2-3.3-0.3l-0.9-0.1l-0.3-0.1h0.3l0.9,0.1c0.8,0.1,1.9,0.2,3.3,0.3c1.7,0.1,3.5-0.2,5.1-0.8c1-0.4,1.9-1,2.7-1.8
		c0.8-0.9,1.4-2,1.6-3.2c0.3-1.3-0.1-2.6-0.9-3.7c-1-1.1-2.4-1.6-3.8-1.3c-1.5,0.4-2.5,1.7-2.7,3.3c-0.1,1.6,0.1,3.3,0.8,4.8
		c1.1,3.4,3.2,6.3,6,8.5c1.5,1.1,3.2,1.8,5.1,2.1c1.9,0.3,3.8,0.1,5.6-0.6c1.8-0.7,3.3-1.9,4.3-3.5c0.5-0.8,0.7-1.7,0.8-2.6
		c0.1-0.9-0.1-1.8-0.7-2.5c-0.5-0.7-1.3-1.1-2.2-1.3c-0.9-0.1-1.7,0-2.5,0.3c-1.5,0.8-2.8,1.9-3.7,3.4c-1.7,2.7-2.6,5.9-2.5,9.1
		c0.1,2.8,0.8,5.5,2.3,7.9c1.1,2,2.9,3.6,5,4.5c1.7,0.5,3.5,0.3,5-0.5c1-0.5,1.9-1.1,2.8-1.7l0.7-0.5
		C240,186.3,240.1,186.2,240.2,186.2z"/>
	<path class="st14" d="M217.7,140.3c-0.1,0.3-0.1,0.5-0.3,0.7c-0.3,0.6-0.6,1.3-1.1,1.8c-2.7,4-7.3,6.2-12.1,5.8
		c-0.7,0-1.4-0.2-2.1-0.3c-0.3,0-0.5-0.1-0.7-0.3c0-0.1,1.1,0.2,2.8,0.3c4.6,0.2,9.1-1.9,11.9-5.7
		C217.2,141.3,217.6,140.3,217.7,140.3z"/>
	<path class="st14" d="M229.7,143.8c-0.8,0.2-1.6,0.6-2.3,1.1c-0.6,0.6-1.1,1.3-1.5,2.1c0,0-0.1-0.3,0.1-0.8
		c0.5-1.3,1.6-2.2,2.9-2.5C229.4,143.7,229.7,143.7,229.7,143.8z"/>
	<path class="st14" d="M247,148.6c-0.3-0.1-0.5-0.2-0.7-0.3c-0.6-0.4-1.1-0.9-1.5-1.4c-0.6-0.8-1-1.8-1.1-2.9
		c-0.1-0.7,0.1-1.3,0.5-1.8c0.4-0.6,1.2-0.9,1.9-0.8c0.7,0.2,1.3,0.7,1.5,1.4c0.2,0.6,0.1,1.4-0.4,1.9c-0.7,0.9-1.9,1.2-3,0.8
		c-0.7-0.3-1.2-0.7-1.6-1.3c-0.2-0.2-0.3-0.4-0.3-0.7c0,0,0.1,0.2,0.4,0.6c0.4,0.5,1,0.9,1.6,1.2c0.9,0.3,1.9,0,2.6-0.7
		c0.3-0.4,0.5-1,0.3-1.5c-0.2-0.6-0.6-1-1.2-1.1c-0.6-0.1-1.1,0.2-1.5,0.6c-0.3,0.5-0.5,1-0.4,1.6c0.1,1,0.4,1.9,1,2.7
		C245.6,147.4,246.2,148.1,247,148.6z"/>
	<path class="st14" d="M250.3,139c-0.8-0.8-1.7-1.4-2.7-1.9c-1.1-0.4-2.2-0.5-3.3-0.6c0,0,0.4-0.2,1-0.2c0.8-0.1,1.7,0.1,2.5,0.4
		c0.8,0.3,1.5,0.8,2,1.4C250.2,138.7,250.3,139,250.3,139z"/>
	<path class="st14" d="M272.8,148.6c0,0,0,0-0.2,0.1l-0.5,0.3c-0.4,0.2-1.1,0.5-2,0.8c-2.5,0.9-5.1,1.4-7.7,1.4
		c-0.9,0-1.8-0.1-2.6-0.3c-1-0.2-1.8-0.6-2.6-1.3c-0.8-0.7-1.3-1.7-1.3-2.8c0-1.1,0.4-2.2,1.1-3.1c1.7-1.8,4.2-2.4,6.5-1.6
		c2.5,0.7,4.4,2.6,5.2,5.1c0.7,2.5,0.1,5.2-1.6,7.1c-1.6,1.7-3.7,2.8-6,3.3c-2,0.4-4.1,0.6-6.2,0.6c-1.8,0-3.6,0.2-5.4,0.5
		c-2.6,0.4-4.9,1.8-6.6,3.8c-0.6,0.8-1,1.6-1.3,2.5c0-0.1,0-0.1,0-0.2c0-0.1,0.1-0.3,0.1-0.5c0.2-0.7,0.5-1.3,1-1.9
		c1.7-2.1,4-3.5,6.7-3.9c1.8-0.3,3.6-0.5,5.4-0.6c2.1,0,4.1-0.3,6.1-0.7c2.2-0.4,4.3-1.5,5.8-3.2c1.6-1.8,2.2-4.4,1.5-6.7
		c-0.7-2.3-2.6-4.1-4.9-4.8c-2.2-0.7-4.5-0.1-6.1,1.5c-0.7,0.8-1,1.8-1,2.8c0,1,0.4,1.9,1.1,2.5c0.7,0.6,1.5,1,2.5,1.2
		c0.8,0.2,1.7,0.3,2.5,0.3c2.6,0,5.2-0.5,7.6-1.3c0.9-0.3,1.5-0.6,2-0.8C272.3,148.8,272.5,148.6,272.8,148.6z"/>
	<path class="st14" d="M252.4,180.6c-0.1,0-0.4-0.7-1.1-1.6c-1.9-2.6-5.2-3.8-8.3-3.1c-1.2,0.2-1.9,0.6-1.9,0.5
		c0.5-0.4,1.2-0.7,1.8-0.8c3.3-0.8,6.8,0.5,8.7,3.3C251.9,179.4,252.2,180,252.4,180.6z"/>
	<path class="st14" d="M261.9,186.8c-0.2,0.6-0.6,1.2-1.1,1.6c-2.4,2.5-6.2,2.8-9,0.7c-0.6-0.4-1-0.9-1.4-1.5
		c0.1-0.1,0.5,0.6,1.5,1.2c1.3,0.8,2.9,1.3,4.4,1.1c1.6-0.1,3-0.8,4.2-1.8C261.5,187.5,261.8,186.8,261.9,186.8z"/>
	<path class="st14" d="M264.4,170.6c0,0.1-0.5-0.2-1.4-0.5c-2.3-0.6-4.8,0.1-6.3,2c-0.6,0.7-0.8,1.2-0.9,1.2c0.1-0.5,0.3-1,0.6-1.4
		c1.5-2.1,4.2-3,6.6-2.1C263.6,169.9,264,170.2,264.4,170.6z"/>
	<path class="st14" d="M294.8,163c0.1,0.2,0.1,0.4,0.1,0.6c0.1,0.2,0.1,0.5,0.1,0.8c0,0.3,0,0.7,0,1c-0.1,2.2-0.9,4.4-2.3,6.1
		c-0.9,1.2-2.1,2.2-3.5,2.9c-1.6,0.8-3.3,1.2-5.1,1.2c-4.1-0.1-8-2-10.5-5.2c-0.7-0.8-1.2-1.8-1.5-2.8c-0.3-1-0.3-2.1,0-3.1
		c0.3-1,1-1.8,1.9-2.3c0.9-0.4,1.9-0.6,2.9-0.3c0.9,0.2,1.8,0.6,2.5,1.3c0.6,0.6,1.1,1.4,1.3,2.2c0.5,1.5,0.4,3.1,0,4.6
		c-0.4,1.2-1.1,2.3-1.9,3.3c-0.7,0.7-1.4,1.3-2.2,1.7c-0.5,0.3-1.1,0.5-1.6,0.7c-0.2,0.1-0.4,0.1-0.6,0.1c0.8-0.2,1.5-0.5,2.2-0.9
		c1.9-1.1,3.3-2.8,4-4.9c0.4-1.4,0.4-2.9,0-4.4c-0.3-0.8-0.7-1.5-1.3-2.1c-0.6-0.6-1.4-1-2.2-1.2c-0.9-0.2-1.8-0.1-2.6,0.3
		c-0.8,0.5-1.4,1.2-1.7,2.1c-0.3,0.9-0.3,1.9,0,2.9c0.3,1,0.8,1.9,1.4,2.7c2.5,3.1,6.2,5,10.2,5.1c3.2,0.1,6.4-1.3,8.4-3.9
		c1.4-1.7,2.2-3.7,2.4-5.9C295,164.7,295,163.9,294.8,163z"/>
	<path class="st14" d="M301.2,180c-0.2-0.2-0.4-0.4-0.5-0.6c-0.4-0.6-0.7-1.2-0.9-1.8c-0.2-1-0.3-2-0.1-3c0.2-1.2,0.5-2.4,0.8-3.6
		c0.7-2.1,1.7-4.2,2.9-6c0.5-0.7,0.8-1.3,1.1-1.7c0.1-0.2,0.3-0.4,0.5-0.6c-0.4,0.8-0.8,1.7-1.3,2.5c-1.1,1.9-2.1,3.9-2.8,6
		c-0.3,1.2-0.6,2.4-0.8,3.5c-0.2,1-0.2,1.9,0,2.9C300.3,178.4,300.7,179.2,301.2,180z"/>
	<path class="st14" d="M316.6,161.2c0.1,0.2,0.2,0.4,0.2,0.6c0.2,0.5,0.3,1.1,0.4,1.7c0.6,3.8-0.2,7.7-2.4,10.9
		c-0.3,0.5-0.7,0.9-1.1,1.3c-0.3,0.3-0.4,0.4-0.5,0.4c0,0,0.5-0.7,1.3-1.9c1-1.6,1.7-3.3,2.1-5.2c0.4-1.8,0.5-3.7,0.3-5.6
		C316.8,162,316.6,161.2,316.6,161.2z"/>
	<path class="st14" d="M263.1,199.4c-0.1,0-0.2-0.1-0.4-0.2c-0.3-0.2-0.7-0.4-1-0.5c-1.3-0.6-2.6-1-4-1.1c-2-0.2-4.1,0.1-6,1
		c-1.1,0.5-2.1,1.2-3,2c-0.5,0.4-0.9,0.9-1.2,1.5c-0.3,0.5-0.5,1.2-0.4,1.8c0.1,0.6,0.4,1.2,0.9,1.5c0.5,0.3,1.1,0.3,1.6,0.1
		c1-0.6,1.6-1.7,1.5-2.9c-0.1-2.1-1.2-3.9-3-4.9c-1.2-0.6-2.6-0.8-4-0.5c-0.5,0.1-1,0.3-1.5,0.5c0.1-0.1,0.2-0.2,0.3-0.2
		c0.3-0.2,0.7-0.3,1.1-0.4c1.4-0.4,2.9-0.2,4.2,0.4c1.9,1,3.2,3,3.3,5.2c0,0.6-0.1,1.3-0.4,1.8c-0.3,0.6-0.8,1.1-1.4,1.4
		c-0.7,0.3-1.4,0.3-2.1-0.1c-0.6-0.4-1-1.1-1.1-1.8c-0.1-0.7,0.1-1.4,0.5-2.1c0.3-0.6,0.8-1.1,1.3-1.6c0.9-0.9,2-1.6,3.1-2
		c1.9-0.8,4.1-1.1,6.2-0.9c1.4,0.2,2.8,0.6,4,1.3c0.3,0.2,0.7,0.4,1,0.6C263.1,199.3,263.2,199.4,263.1,199.4z"/>
	<path class="st14" d="M266.1,206.1c-0.2,0.7-0.5,1.3-1,1.9c-0.6,1-1.2,1.7-1.3,1.6c0.2-0.7,0.5-1.3,1-1.9
		C265.4,206.8,266,206.1,266.1,206.1z"/>
	<path class="st14" d="M276.5,217.8c-0.1,0-0.2-0.3-0.5-0.7c-0.8-1.1-2-1.8-3.3-1.8c-0.5,0-0.8,0-0.8,0s0.3-0.2,0.8-0.3
		c1.5-0.1,2.9,0.7,3.6,2C276.5,217.5,276.5,217.8,276.5,217.8z"/>
	<path class="st14" d="M242.7,213.7c0,0.1-1,0.6-2.6,1.5c-2.1,1.1-3.9,2.6-5.6,4.3c-1.6,1.7-2.6,3.9-3,6.2c-0.1,1-0.1,1.9,0,2.9
		c-0.1-0.2-0.2-0.5-0.2-0.8c-0.1-0.7-0.2-1.4-0.1-2.2c0.3-2.4,1.3-4.7,2.9-6.5c1.6-1.8,3.6-3.2,5.7-4.3c0.8-0.4,1.5-0.7,2-0.9
		C242.2,213.8,242.5,213.7,242.7,213.7z"/>
	<path class="st14" d="M254.7,217.7c0,0-0.5-0.3-0.9-1c-1.1-1.9-0.9-4.4,0.5-6.1c0.3-0.4,0.6-0.6,1-0.8c0,0.1-0.4,0.4-0.8,1
		c-1.2,1.7-1.4,3.9-0.5,5.8C254.4,217.2,254.8,217.6,254.7,217.7z"/>
	<path class="st14" d="M236,202.9c0,0-0.1-0.2-0.5-0.5c-0.5-0.4-1.1-0.7-1.7-0.8c-1-0.1-2,0.1-2.9,0.6c-1.1,0.7-2,1.7-2.7,2.9
		c-0.8,1.2-1.5,2.7-2.5,4.2c-1.1,1.6-2.7,2.8-4.5,3.4c-2,0.7-4.2,0.5-6.2-0.4c-2.1-1-3.7-2.7-4.6-4.9c-0.4-1.1-0.5-2.3-0.1-3.4
		c0.4-1.1,1.1-2,2.1-2.6c0.9-0.6,2.1-0.8,3.2-0.7c1,0.2,2,0.6,2.8,1.3c1.4,1.3,2.2,3.2,2.2,5.1c0,1.7-0.6,3.3-1.5,4.7
		c-0.8,1.1-1.8,2.1-3,2.8c-0.9,0.5-1.8,0.9-2.8,1.2c-0.6,0.2-1.2,0.3-1.9,0.4l-0.5,0.1h-0.2c0.2-0.1,0.4-0.1,0.7-0.1
		c0.6-0.1,1.2-0.3,1.9-0.5c1-0.3,1.9-0.7,2.7-1.3c1.1-0.7,2.1-1.6,2.8-2.7c0.9-1.3,1.4-2.9,1.4-4.5c0-1.8-0.8-3.6-2.1-4.8
		c-0.7-0.7-1.6-1.1-2.6-1.2c-1-0.1-2,0.1-2.9,0.7c-0.9,0.5-1.6,1.4-1.9,2.4c-0.3,1-0.3,2.2,0.1,3.2c0.8,2,2.3,3.7,4.3,4.6
		c1.8,0.9,3.9,1,5.9,0.4c1.8-0.6,3.3-1.7,4.3-3.2c1-1.4,1.7-2.9,2.6-4.1c0.7-1.2,1.7-2.2,2.8-2.9c0.9-0.5,2-0.7,3-0.5
		c0.6,0.1,1.2,0.4,1.7,0.8C235.7,202.5,235.9,202.6,236,202.9z"/>
	<path class="st14" d="M236.2,215.6c-0.5-0.2-1-0.6-1.3-1c-1.9-2-2.7-4.8-2.3-7.6c0.1-0.6,0.2-1.1,0.5-1.6c0.1,0-0.1,0.6-0.2,1.6
		c-0.3,2.6,0.5,5.3,2.2,7.4C235.8,215.1,236.3,215.5,236.2,215.6z"/>
	<path class="st14" d="M239.2,196.8c0,0-0.6-0.3-1.6-0.7c-3.7-1.5-7.8-1.8-11.8-0.9c-1.4,0.3-2.7,0.8-3.9,1.5
		c-0.6,0.3-1.1,0.9-1.3,1.6c-0.1,0.7,0.2,1.3,0.8,1.6c0.3,0.1,0.6,0,0.8-0.3c0.2-0.3,0.4-0.6,0.5-0.9c0.2-0.7,0.2-1.4,0.2-2.2
		c-0.1-1.4-0.4-2.8-1-4c-0.6-1.1-1.3-2.1-2.3-3c-0.8-0.7-1.8-1.3-2.9-1.6c-1.5-0.5-3.1-0.7-4.7-0.5c-1.1,0.2-1.7,0.4-1.7,0.4
		c0.1-0.1,0.3-0.2,0.4-0.2c2-0.7,4.2-0.7,6.2,0c1.1,0.4,2.1,0.9,3,1.6c1,0.8,1.8,1.9,2.5,3.1c0.7,1.3,1,2.7,1.1,4.2
		c0,0.8,0,1.6-0.2,2.3c-0.1,0.4-0.3,0.8-0.6,1.1c-0.3,0.3-0.8,0.5-1.3,0.4c-0.4-0.1-0.8-0.5-1-0.9c-0.2-0.4-0.2-0.8-0.2-1.3
		c0.2-0.8,0.8-1.4,1.5-1.8c1.3-0.7,2.6-1.2,4-1.5c2.4-0.5,4.8-0.6,7.2-0.3c1.6,0.2,3.2,0.7,4.7,1.4c0.4,0.2,0.8,0.4,1.2,0.6
		C239.1,196.7,239.3,196.7,239.2,196.8z"/>
	<path class="st14" d="M175.6,199.1c0,0,0.5-0.4,1.3-1.2c1.1-1.2,2-2.6,2.6-4.1c0.9-2.2,0.8-4.7-0.2-6.9c-0.6-1.3-1.5-2.4-2.6-3.2
		c-1.2-0.9-2.6-1.5-4.1-1.5c-0.7,0-1.5,0.1-2.2,0.4c-0.6,0.3-1.2,0.8-1.4,1.5c-0.2,0.6-0.1,1.3,0.3,1.9c0.4,0.5,0.9,0.9,1.5,1.2
		c1.2,0.3,2.5,0.1,3.5-0.6c0.9-0.6,1.7-1.5,2.1-2.5c0.6-1.5,1-3.1,1-4.7c0-0.5,0-1,0.1-1.3c0-0.2,0-0.3,0-0.5c0,0.2,0,0.3,0,0.5
		c0,0.3,0,0.8,0,1.3c0.1,1.7-0.2,3.4-0.9,4.9c-0.5,1.1-1.3,2-2.2,2.6c-1.1,0.8-2.5,1-3.8,0.7c-0.7-0.2-1.3-0.7-1.8-1.3
		c-0.5-0.7-0.6-1.5-0.4-2.3c0.3-0.8,0.9-1.4,1.6-1.7c0.7-0.3,1.5-0.5,2.4-0.5c1.6,0.1,3.1,0.7,4.4,1.6c1.2,0.9,2.1,2.1,2.7,3.4
		c0.6,1.2,0.8,2.5,0.8,3.8c0,1.1-0.3,2.3-0.7,3.4c-0.6,1.5-1.5,2.9-2.7,4.1c-0.3,0.3-0.7,0.6-1,0.8
		C175.7,199,175.6,199.1,175.6,199.1z"/>
	<path class="st14" d="M192.5,211.3c-0.2-0.2-0.5-0.4-0.6-0.7c-0.5-0.7-1-1.4-1.4-2.1c-2.7-5.1-2.3-11.3,1.1-16
		c0.5-0.7,1-1.3,1.6-1.9c0.2-0.2,0.5-0.4,0.7-0.6c0.1,0.1-1,0.9-2.1,2.7c-3.2,4.7-3.6,10.7-1,15.7
		C191.3,209.3,191.9,210.3,192.5,211.3z"/>
	<path class="st14" d="M208.5,193.5c-0.1,0-0.4-1.2-1.4-3c-2.7-4.8-7.5-8-12.9-8.5c-2.1-0.2-3.4,0-3.4-0.1c0.3-0.1,0.6-0.1,0.9-0.2
		c0.8-0.1,1.6-0.1,2.5,0c5.6,0.4,10.6,3.7,13.2,8.7c0.4,0.7,0.7,1.5,1,2.3C208.4,192.9,208.4,193.2,208.5,193.5z"/>
	<g class="st7">
		<path d="M230.8,216.4c-0.8,0.3-0.7,1.6-0.1,2.1c0.7,0.5,1.6,0.7,2.5,0.5c9.7-0.5,18.7-5.6,24.2-13.6c-7.4,6.1-17.1,8.4-26.4,10.5"
			/>
	</g>
	<g class="st7">
		<path d="M229.3,208c-0.8-1.2-0.3-3,0.8-4c1.1-0.9,2.4-1.7,3.8-2.2c4.8-2.4,8.7-6.4,11-11.3c1.5-3.2,2.6-7.2,5.9-8.5
			c-1.9,11.6-9.9,21.2-21,25.1"/>
	</g>
	<g class="st7">
		<path d="M206.1,165.7c0.8,8.9,0.2,18-1.9,26.7c-0.5,1.8-0.8,3.7-0.9,5.6c0.1,2.1,1.1,4,2.7,5.3c1.4-3.1,1.4-6.1,2-9.5
			c0.5-3,1.4-10.1,1.4-10.2c0.1-6.2-1.3-11.5-3.7-17.1"/>
	</g>
	<g class="st7">
		<path d="M221.5,138.8c1.2,6.6,4.5,12.7,9.3,17.4c1.8,1.8,4.1,3.4,6.6,3.3c-1.4-3-1.9-6.4-1.3-9.6c2.1,1.4,4.4,2.7,6.7,3.7
			c2.4,1,5,1.3,7.5,0.8l1.6-13.5c0.1-0.5,0.1-1-0.1-1.5c-0.2-0.4-0.7-0.6-1.2-0.4c0,0-0.1,0-0.1,0.1c-0.1,0.2-0.2,0.4-0.3,0.6
			c-0.9,4-1.4,7.5-2.4,11.5c-0.7,0.7-2.7,0.4-4-0.1c-1.2-0.4-1.6-1.4-2.4-2.4s-0.6-0.8-1.8-1.3c-2.1-0.9-6.2-0.2-7,1.7
			s-0.2,4.4,0.4,6.2c-5.9-3.8-10.1-9.7-11.9-16.5"/>
	</g>
	<g class="st7">
		<path d="M266.1,158c-0.2,0.3,5.1,18,5.1,18l-6.8-3.9L266.1,158z"/>
	</g>
	<path class="st8" d="M223.8,106.6v28.2c0,1.6,0.6,3.2,1.6,4.4l0,0c1.6,1.9,3.5,3.5,5.7,4.7l5.7,3.2l4.7-4.2c1.4-1.2,2.2-3,2.3-4.8
		c0.1-2.1,0.1-4.1,0.1-4.1s8-0.6,8.7-8.4c0.4-3.7,0.5-11.3,0.5-18.3c0.1-8-6.1-14.8-14.1-15.4h-0.2c-8.1-0.2-14.8,6.2-15,14.3
		C223.8,106.3,223.8,106.5,223.8,106.6z"/>
	<path class="st9" d="M243.8,133.9c-3.6-0.3-7.1-1.7-10-3.9c0,0,2.1,6,10,5.9L243.8,133.9z"/>
	<path class="st12" d="M250.7,112.3c0,0.6-0.6,1.1-1.2,1c-0.6,0-1.1-0.5-1.1-1.1c0,0,0,0,0,0c0-0.6,0.6-1.1,1.2-1
		C250.2,111.2,250.7,111.6,250.7,112.3C250.7,112.3,250.7,112.3,250.7,112.3z"/>
	<path class="st12" d="M251,110.4c-0.1,0.1-0.9-0.6-2.2-0.7c-1.2-0.1-2.1,0.4-2.3,0.3c-0.1-0.2,0.1-0.3,0.5-0.6
		c0.6-0.3,1.2-0.5,1.8-0.4c0.6,0,1.2,0.3,1.7,0.7C251,110.1,251.1,110.3,251,110.4z"/>
	<path class="st12" d="M239.3,111.7c0,0.6-0.6,1.1-1.2,1c-0.6,0-1.1-0.5-1.1-1.1c0,0,0,0,0,0c0-0.6,0.6-1.1,1.2-1
		C238.8,110.6,239.3,111.1,239.3,111.7C239.3,111.7,239.3,111.7,239.3,111.7z"/>
	<path class="st12" d="M239.1,109.6c-0.2,0.1-1-0.6-2.2-0.7c-1.2-0.1-2.1,0.4-2.3,0.3c-0.1-0.2,0.1-0.3,0.5-0.6
		c0.6-0.3,1.2-0.5,1.8-0.4c0.6,0.1,1.2,0.3,1.7,0.7C239.1,109.3,239.2,109.6,239.1,109.6z"/>
	<path class="st12" d="M242.8,119c0.7-0.2,1.3-0.2,2-0.2c0.3,0,0.6,0,0.7-0.2c0.1-0.3,0-0.6-0.1-0.9c-0.2-0.8-0.5-1.6-0.7-2.5
		c-1-3.5-1.6-6.3-1.5-6.3s1.1,2.7,2,6.2c0.2,0.8,0.5,1.6,0.7,2.5c0.2,0.4,0.2,0.8,0.1,1.2c-0.1,0.2-0.3,0.4-0.5,0.4
		c-0.2,0-0.4,0-0.5,0C244.1,119.1,243.4,119.1,242.8,119z"/>
	<path class="st12" d="M239.1,119.5c0.2,0,0.1,1.3,1.1,2.3c1,1,2.5,1,2.5,1.2c0,0.2-0.3,0.2-0.9,0.2c-0.8-0.1-1.5-0.4-2.1-0.9
		c-0.5-0.5-0.8-1.2-0.9-2C238.9,119.8,239,119.5,239.1,119.5z"/>
	<path class="st12" d="M239.8,104.9c-0.1,0.3-1.3,0.1-2.8,0.1c-1.4,0-2.6,0.3-2.8,0c-0.1-0.1,0.1-0.4,0.6-0.7
		c1.3-0.7,2.9-0.7,4.2-0.1C239.7,104.5,239.9,104.8,239.8,104.9z"/>
	<path class="st12" d="M250.9,106.9c-0.2,0.3-1-0.1-2-0.2c-1-0.1-1.9,0-2-0.3c-0.1-0.1,0.1-0.4,0.5-0.6c1.1-0.5,2.4-0.4,3.3,0.4
		C250.9,106.4,251,106.7,250.9,106.9z"/>
	<path class="st12" d="M233.1,98.7L233.1,98.7c-1.4,0.9-2.3,2.3-2.7,3.9v0.2c-0.5,2.2-0.6,4.5-1.1,6.7c-0.5,2.2-0.4,3.9-2.6,4.4
		c-1.2,0.3-2.4-0.2-3.1-1.3c-0.2-0.3-0.2-0.7-0.2-1c0-5.5-1.1-7.6-0.6-13.2c0.1-1.5,1-2.9,2.3-3.7c1.3-0.8,2.8-1.5,4.1-0.8
		c1.3,0.7,2.8,3.3,3.7,4.5"/>
	<path class="st8" d="M226.2,110.4c-0.1-0.1-5.3-2-5.5,3.4c-0.3,5.4,5.2,4.6,5.2,4.4C225.9,118,226.2,110.4,226.2,110.4z"/>
	<path class="st9" d="M224.3,116c0,0-0.1,0.1-0.3,0.1c-0.2,0.1-0.5,0.1-0.7,0c-0.7-0.5-1.1-1.3-1-2.1c0-0.5,0.1-0.9,0.3-1.3
		c0.1-0.3,0.4-0.6,0.7-0.7c0.2,0,0.5,0.1,0.5,0.3c0.1,0.2,0,0.3,0,0.3c0,0,0.1-0.1,0.1-0.3c0-0.1-0.1-0.3-0.2-0.4
		c-0.1-0.1-0.3-0.2-0.5-0.2c-0.5,0.1-0.9,0.4-1,0.8c-0.3,0.5-0.4,1-0.4,1.5c-0.1,1,0.4,1.9,1.3,2.4c0.3,0.1,0.6,0.1,0.9-0.1
		C224.3,116.1,224.3,116,224.3,116z"/>
	<path class="st12" d="M228.8,94.6c-1.2-2.3,2.7-5.1,5.5-5.7c2.7-0.6,6.1,1,8.7,2.1c1.6,0.7,3.2,1.6,5,1.6c1.2,0,2.4-0.2,3.5-0.6
		c1.1-0.4,2.3-0.5,3.5-0.4c1.2,0.1,2.3,0.9,2.7,2.1c0.3,1.1-0.2,2.2-1.3,2.6c-0.1,0-0.2,0.1-0.3,0.1c1.3-0.6,2.9,0,3.5,1.3
		c0.6,1.3,0,2.9-1.3,3.5c-0.6,0.3-1.3,0.3-1.9,0.1c0.8-0.5,1.9,0.5,1.7,1.5c-0.3,0.9-1,1.7-2,1.9c-2.3,0.8-4.9,0.3-7.2-0.7
		c-2.3-1-4.3-2.4-6.5-3.4s-6-2.9-8.3-2.2c-1.8,0.5-3.1,2.4-4,1.9c-0.9-0.6-1.4-1.5-1.5-2.5C228.4,96.6,228.5,95.6,228.8,94.6"/>
	<path class="st13" d="M256.7,96.2c0,0-0.3,0.4-0.9,0.9c-0.9,0.8-2,1.4-3.2,1.7c-1.7,0.5-3.6,0.2-5.1-0.6c-1.8-1-3.2-2.7-4.9-4.4
		c-1.5-1.7-3.6-2.9-5.8-3.4c-1.9-0.4-3.8,0.1-5.3,1.4c-0.9,0.9-1.5,2.1-1.5,3.4c0,0.3,0,0.7,0.1,1c0,0.1,0.1,0.2,0.1,0.3
		c-0.1-0.4-0.1-0.9-0.1-1.3c0.1-1.2,0.7-2.3,1.6-3.1c1.4-1.1,3.2-1.5,5-1.2c2.1,0.5,4.1,1.6,5.5,3.3c1.6,1.6,3.1,3.5,5,4.5
		c2.9,1.5,6.4,1,8.6-1.3c0.2-0.3,0.4-0.5,0.6-0.8C256.6,96.3,256.7,96.2,256.7,96.2z"/>
	<path class="st13" d="M224.8,110c0,0,0.2-0.1,0.5-0.5c0.3-0.6,0.5-1.3,0.4-1.9c0-1.7-1.4-3.7-1.4-6.1c0-1.1,0.3-2.2,0.9-3.2
		c0.5-0.7,1.3-1.3,2.2-1.6c0.6-0.2,1.2-0.2,1.8-0.1c0.4,0.1,0.7,0.2,0.7,0.2c0,0-0.2-0.2-0.6-0.4c-0.6-0.2-1.3-0.2-2-0.1
		c-1,0.2-1.8,0.8-2.5,1.6c-0.7,1-1,2.2-1,3.5c0,1.2,0.3,2.4,0.8,3.5c0.4,0.9,0.6,1.8,0.8,2.7C225.4,108.4,225.2,109.3,224.8,110z"/>
</g>
<g id="Lines">
	<path class="st4" d="M247,265.9h-1.2l-3.6,0c-3.1,0-7.8,0.2-13.7,0.5c-5.9,0.3-13.2,0.8-21.6,1.8c-4.2,0.5-8.7,1.1-13.4,1.9
		c-4.7,0.8-9.7,1.7-14.9,2.9s-10.6,2.6-16.1,4.4c-5.8,1.8-11.3,4.1-16.7,6.9c-2.8,1.5-5.5,3.2-8,5.1c-2.6,2-4.8,4.4-6.5,7.2
		c-0.2,0.4-0.4,0.7-0.6,1.1l-0.5,1.2l-0.2,0.6c-0.1,0.2-0.1,0.4-0.2,0.6l-0.3,1.2c-0.3,1.7-0.2,3.4,0.2,5c0.8,3.3,3,6.2,5.5,8.6
		c5.1,4.8,11.6,8.2,18.4,11c7,2.8,14.2,5.1,21.5,6.8c15.4,3.6,31.1,5.9,46.9,6.9c15.8,1.1,31.6,1.1,47.4,0.2
		c14.7-0.8,29.3-2.7,43.8-5.7c6.7-1.4,13.3-3.2,19.8-5.4c6.2-2,12.1-4.6,17.7-7.7c2.7-1.5,5.2-3.3,7.5-5.3c2.3-1.9,4.1-4.3,5.4-6.9
		l0.4-1c0.1-0.3,0.3-0.7,0.3-1l0.2-1c0-0.2,0.1-0.3,0.1-0.5v-0.5c0.2-1.4,0.1-2.8-0.3-4.1c-0.4-1.3-1-2.5-1.7-3.7
		c-0.7-1.1-1.6-2.2-2.5-3.1c-1.8-1.8-3.8-3.5-6-4.9c-2-1.4-4.2-2.6-6.3-3.8c-4-2.1-8.1-3.9-12.4-5.5c-6.8-2.5-13.7-4.7-20.7-6.4
		c-5.8-1.4-10.3-2.4-13.4-2.9c-1.5-0.3-2.7-0.5-3.5-0.7l-1.2-0.2c0,0,1.6,0.2,4.7,0.8s7.6,1.4,13.4,2.9c7,1.7,14,3.8,20.8,6.3
		c4.2,1.6,8.4,3.4,12.4,5.5c2.2,1.1,4.3,2.4,6.4,3.8c2.2,1.4,4.2,3.1,6,5c0.9,1,1.8,2,2.6,3.1c0.8,1.2,1.4,2.4,1.8,3.8
		c0.4,1.4,0.5,2.8,0.3,4.2l0,0.5c0,0.2-0.1,0.4-0.1,0.5l-0.3,1.1c-0.1,0.4-0.2,0.7-0.4,1l-0.4,1c-1.3,2.7-3.2,5.1-5.5,7
		c-2.3,2-4.9,3.8-7.5,5.4c-5.7,3.2-11.6,5.8-17.8,7.8c-6.5,2.2-13.2,4-19.9,5.4c-14.4,3-29.1,4.9-43.8,5.7
		c-15.8,0.9-31.7,0.9-47.5-0.2c-15.8-1-31.5-3.3-46.9-6.9c-7.3-1.7-14.5-4-21.5-6.8c-6.8-2.8-13.4-6.2-18.5-11.1
		c-2.5-2.5-4.8-5.3-5.6-8.8c-0.4-1.7-0.5-3.4-0.2-5.1l0.3-1.3c0-0.2,0.1-0.4,0.2-0.6l0.2-0.6l0.5-1.2c0.2-0.4,0.4-0.7,0.6-1.1
		c1.7-2.8,4-5.3,6.7-7.3c2.5-1.9,5.2-3.7,8.1-5.1c5.4-2.8,11-5.1,16.8-6.9c5.5-1.8,11-3.2,16.1-4.4c5.2-1.2,10.2-2.1,14.9-2.9
		s9.2-1.3,13.4-1.8c8.4-0.9,15.7-1.4,21.6-1.7c5.9-0.3,10.6-0.4,13.7-0.4L247,265.9L247,265.9z"/>
	<path class="st4" d="M180.2,204c0,0-0.5,0.1-1.4,0.3s-2.3,0.4-4,0.8c-3.5,0.7-8.8,1.9-15.4,3.7c-8.1,2.2-15.9,4.9-23.6,8.3
		c-2.2,1-4.5,2.1-6.8,3.4c-2.3,1.3-4.6,2.8-6.8,4.3c-2.3,1.7-4.4,3.6-6.3,5.7c-2,2.2-3.4,4.9-4.2,7.8c-0.8,3-0.5,6.3,0.7,9.1
		c1.3,3,3.2,5.7,5.7,7.9c4.8,4.6,11,8.2,17.5,11.2c13.2,6,28.2,10,44.1,13c16.7,3,33.7,4.9,50.7,5.6c18.3,0.8,36.5,0.5,54.8-1
		c18.7-1.6,36.9-4.3,54-8.8c8.4-2.1,16.6-5,24.6-8.4c3.8-1.7,7.5-3.7,11-5.9c3.5-2.2,6.6-4.8,9.4-7.9c2.6-3,4.5-6.8,4.6-10.7
		c0-0.5,0-1,0-1.5c0-0.5-0.1-1-0.2-1.4l-0.3-1.4c-0.1-0.5-0.3-0.9-0.5-1.4c-0.7-1.8-1.6-3.5-2.8-5c-2.4-2.9-5.2-5.5-8.3-7.7
		c-3-2.1-6.2-3.9-9.5-5.5c-6.3-3-12.8-5.6-19.4-7.6c-6.4-2-12.7-3.6-18.6-4.9c-19-4-38.3-6.5-57.7-7.4c-6.9-0.4-12.2-0.4-15.8-0.5
		l-4.1-0.1l-1.4,0c0,0,0.5,0,1.4,0l4.1,0c3.6,0.1,9,0,15.8,0.4c19.4,0.8,38.7,3.2,57.8,7.2c6,1.3,12.3,2.9,18.7,4.9
		c6.7,2,13.2,4.6,19.5,7.6c3.3,1.6,6.5,3.4,9.5,5.5c3.2,2.2,6,4.8,8.4,7.7c1.2,1.6,2.1,3.3,2.9,5.1c0.2,0.5,0.4,0.9,0.5,1.4l0.3,1.5
		c0.1,0.5,0.1,1,0.2,1.5c0.1,0.5,0.1,1,0.1,1.5c-0.1,2-0.6,4-1.4,5.9c-0.8,1.8-1.9,3.6-3.3,5.1c-2.7,3.1-5.9,5.8-9.4,8
		c-3.6,2.3-7.3,4.3-11.2,6c-8,3.5-16.2,6.3-24.6,8.5c-17.2,4.5-35.3,7.3-54.1,8.8c-18.2,1.5-36.5,1.8-54.8,1
		c-17-0.7-33.9-2.6-50.7-5.6c-16-3-31.1-7-44.2-13.1c-6.5-3-12.7-6.6-17.6-11.3c-2.4-2.2-4.4-5-5.7-8c-1.2-3-1.5-6.2-0.7-9.3
		c0.8-2.9,2.3-5.6,4.3-7.9c1.9-2.2,4-4.1,6.3-5.8c2.2-1.6,4.4-3,6.8-4.3c2.3-1.3,4.6-2.4,6.8-3.4c7.6-3.4,15.6-6.2,23.6-8.3
		c6.6-1.8,11.9-2.9,15.4-3.6C178.4,204.2,180.2,204,180.2,204z"/>
	<path class="st4" d="M208.9,327.3l-4.1,0.6c-2.7,0.4-6.6,1.1-11.6,2.2c-6.1,1.3-12.1,3-18,5.1c-3.7,1.3-7.2,2.9-10.7,4.7
		c-1.9,1-3.7,2.1-5.4,3.3c-1.8,1.3-3.5,2.8-5,4.4c-0.8,0.9-1.4,1.8-2,2.8c-0.6,1-1,2.1-1.2,3.3c0,0.3-0.1,0.6-0.1,0.9l-0.1,0.9
		c0,0.6,0.1,1.2,0.1,1.8c0.1,0.6,0.3,1.2,0.5,1.8l0.3,0.9l0.2,0.4l0.2,0.4c1.3,2.2,2.9,4.2,4.9,5.8c2,1.7,4.3,3.2,6.6,4.4
		c4.9,2.6,10.1,4.8,15.4,6.4c5.6,1.8,11.4,3.2,17.2,4.4c12.5,2.4,25.1,4,37.8,4.5c13.6,0.7,27.3,0.4,40.9-0.7
		c14-1.2,27.5-3.3,40.3-6.9c6.3-1.7,12.3-4,18.1-6.9c2.8-1.4,5.4-3.1,7.9-5.1c0.6-0.5,1.2-1,1.7-1.6s1-1.1,1.6-1.7
		c1-1.2,1.8-2.5,2.3-3.9c1.1-2.8,1-5.9-0.4-8.6c-1.4-2.5-3.3-4.8-5.6-6.5c-4.5-3.6-9.6-6-14.6-8c-4.8-1.9-9.8-3.5-14.9-4.8
		c-4.9-1.3-9.6-2.2-14.1-3c-14.3-2.4-28.8-3.8-43.3-4l-16-0.1c0,0,5.7-0.1,16,0c14.5,0.2,29,1.5,43.3,3.9c4.5,0.8,9.3,1.8,14.1,3
		c5.1,1.3,10.1,2.9,14.9,4.8c5,2,10.1,4.4,14.7,8c2.4,1.8,4.3,4,5.7,6.6c1.4,2.7,1.5,6,0.4,8.8c-0.6,1.4-1.4,2.8-2.4,3.9
		c-0.5,0.6-1,1.2-1.6,1.7c-0.6,0.5-1.1,1.1-1.7,1.6c-2.5,2-5.1,3.7-7.9,5.1c-5.8,2.9-11.9,5.2-18.2,6.9c-13.2,3.6-26.7,5.9-40.3,6.9
		c-13.6,1.1-27.3,1.4-40.9,0.7c-12.7-0.6-25.3-2.1-37.8-4.5c-5.8-1.2-11.5-2.6-17.2-4.4c-5.3-1.6-10.5-3.8-15.4-6.5
		c-2.3-1.3-4.6-2.8-6.6-4.5c-2-1.6-3.7-3.6-5-5.8l-0.2-0.4l-0.2-0.4l-0.4-0.9c-0.2-0.6-0.3-1.2-0.5-1.8c-0.2-0.6-0.1-1.2-0.1-1.8
		l0.1-0.9c0-0.3,0.1-0.6,0.1-0.9c0.2-1.2,0.6-2.3,1.2-3.4c0.6-1,1.2-2,2-2.9c1.5-1.7,3.2-3.2,5-4.5c1.7-1.2,3.6-2.3,5.5-3.3
		c3.4-1.8,7-3.4,10.6-4.7c5.9-2.1,11.9-3.7,18-5c5-1.1,9-1.7,11.6-2.1C207.4,327.5,208.9,327.3,208.9,327.3z"/>
	<path class="st4" d="M315.6,402c0-1-0.3-2-0.7-3c-0.8-1.9-2.8-4.2-6-6.3c-6.4-4.2-17.2-7.8-30.7-9.9c-7.4-1.2-14.8-1.9-22.3-2.2
		c-8.6-0.4-17.2-0.2-25.7,0.5c-4.5,0.4-9.1,0.9-13.8,1.6c-4.8,0.7-9.5,1.7-14.2,3c-2.4,0.6-4.8,1.4-7.1,2.2c-2.4,0.9-4.7,1.9-6.9,3
		c-2.3,1.2-4.4,2.6-6.3,4.4c-1.9,1.7-3.4,4.1-3.4,6.7c0,2.6,1.5,5,3.4,6.7c1.9,1.7,4,3.2,6.2,4.3c2.2,1.2,4.6,2.2,6.9,3
		c2.3,0.9,4.7,1.6,7.1,2.2c4.7,1.3,9.4,2.3,14.2,3c4.7,0.7,9.3,1.3,13.8,1.6c8.6,0.7,17.1,0.8,25.7,0.5c7.5-0.3,14.9-1,22.3-2.2
		c13.5-2.2,24.2-5.7,30.7-9.9c3.2-2.1,5.2-4.4,6-6.3C315.3,404.1,315.5,403,315.6,402c0,0.1,0,0.3-0.1,0.8c0,0.3-0.1,0.6-0.2,0.9
		c-0.1,0.4-0.2,0.9-0.4,1.3c-0.8,1.9-2.8,4.2-6,6.4c-6.4,4.2-17.2,7.8-30.7,10c-7.4,1.2-14.8,1.9-22.3,2.2
		c-8.6,0.4-17.2,0.2-25.7-0.5c-4.5-0.4-9.1-0.9-13.8-1.6c-4.8-0.7-9.5-1.7-14.2-3c-2.4-0.6-4.8-1.4-7.1-2.2c-2.4-0.9-4.7-1.9-7-3
		c-2.3-1.2-4.4-2.6-6.3-4.4c-1-0.9-1.8-1.9-2.4-3.1c-1.4-2.3-1.4-5.2,0-7.5c0.7-1.1,1.5-2.2,2.5-3.1c1.9-1.7,4-3.2,6.3-4.4
		c2.3-1.2,4.6-2.2,7-3c2.4-0.9,4.7-1.6,7.1-2.2c4.7-1.3,9.4-2.3,14.2-3c4.7-0.7,9.3-1.3,13.8-1.6c8.6-0.7,17.1-0.8,25.7-0.5
		c7.5,0.3,14.9,1,22.3,2.2c13.5,2.2,24.3,5.8,30.7,10c3.2,2.1,5.2,4.5,6,6.4c0.2,0.4,0.3,0.8,0.4,1.3c0.1,0.3,0.2,0.6,0.2,0.9
		C315.6,401.7,315.6,401.9,315.6,402z"/>
	<path class="st4" d="M135,275.3c0,1.4-1.2,2.6-2.6,2.6c-1.4,0-2.6-1.2-2.6-2.6c0-1.4,1.2-2.6,2.6-2.6
		C133.9,272.7,135,273.8,135,275.3C135,275.3,135,275.3,135,275.3z"/>
	<circle class="st4" cx="368.4" cy="277" r="2.6"/>
	<path class="st4" d="M264.6,373.2c0,1.4-1.2,2.6-2.6,2.6c-1.4,0-2.6-1.2-2.6-2.6c0-1.4,1.2-2.6,2.6-2.6c0,0,0,0,0,0
		C263.4,370.6,264.6,371.7,264.6,373.2L264.6,373.2z"/>
	<path class="st4" d="M185.3,306.1c0,0.7-0.6,1.3-1.3,1.3c-0.7,0-1.3-0.6-1.3-1.3c0-0.7,0.6-1.3,1.3-1.3S185.3,305.4,185.3,306.1
		L185.3,306.1z"/>
	<path class="st4" d="M347.6,337.7c0,0.7-0.6,1.3-1.3,1.3s-1.3-0.6-1.3-1.3c0-0.7,0.6-1.3,1.3-1.3c0,0,0,0,0,0
		C347,336.4,347.6,337,347.6,337.7z"/>
	<path class="st4" d="M244.6,398.1c0,0.7-0.6,1.3-1.3,1.3c-0.7,0-1.3-0.6-1.3-1.3c0-0.7,0.6-1.3,1.3-1.3c0,0,0,0,0,0
		C244,396.8,244.6,397.4,244.6,398.1z"/>
	<circle class="st4" cx="176.5" cy="169.7" r="0.7"/>
</g>
<g id="Front_Screens">
	<path class="st2" d="M294.1,270.1c-31.7,8.4-62.2,7.7-95.5,0l-3.9-60.9c34.4,6.7,68.9,5.8,99.4-1.4L294.1,270.1z"/>
	<path class="st3" d="M294.1,270.1c-31.7,8.4-62.2,7.7-95.5,0l-3.9-60.9c34.4,6.7,68.9,5.8,99.4-1.4L294.1,270.1z"/>
	<path class="st4" d="M289.2,260.8c-0.1,0-0.1,0.1-0.2,0.1l-0.6,0.3c-0.5,0.2-1.3,0.6-2.3,0.9c-2.9,1.1-5.8,2-8.8,2.7
		c-9.8,2.5-19.9,3.6-30.1,3.4c-10.1-0.2-20.2-1.3-30.1-3.2c-3.8-0.7-6.9-1.4-9-1.9c-1.1-0.2-1.9-0.4-2.5-0.6l-0.6-0.2
		c-0.1,0-0.2-0.1-0.2-0.1h0.2l0.6,0.1l2.5,0.5c2.1,0.4,5.2,1.1,9,1.7c9.9,1.9,20,2.9,30.1,3.1c10.1,0.2,20.2-0.9,30-3.3
		c3.8-0.9,6.7-1.9,8.8-2.6c1-0.3,1.8-0.7,2.3-0.8l0.6-0.2C289,260.8,289.1,260.8,289.2,260.8z"/>
	<path class="st5" d="M242.7,263.3c-4,1.1-8.3,0.9-12.2-0.4v-21.7c4-0.8,8.2-0.8,12.2,0V263.3z"/>
	<path class="st4" d="M262.3,262c0-0.1,0-0.1,0-0.2c0-0.1,0-0.3,0-0.5c0-0.4,0-1-0.1-1.8c0-1.6-0.1-3.9-0.1-6.7
		c-0.1-5.7-0.2-13.8-0.3-23.1l0.2,0.2c-4.2-0.8-8.5-0.8-12.6,0l0.2-0.2v0.4c0.1,12.8,0.3,24.4,0.3,32.6l-0.1-0.1
		c1.7,0.4,3.5,0.6,5.3,0.7c1.3,0,2.7-0.1,4-0.3c0.8-0.2,1.6-0.4,2.5-0.6l0.6-0.2C262.2,262,262.3,262,262.3,262l-0.2,0.1l-0.6,0.3
		c-0.8,0.3-1.6,0.5-2.5,0.7c-1.3,0.3-2.7,0.4-4,0.4c-1.8,0-3.6-0.2-5.4-0.6h-0.1v-0.2c-0.1-8.3-0.3-19.8-0.5-32.6v-0.6h0.2
		c4.2-0.8,8.6-0.8,12.8,0l0.2,0v0.2c0.1,9.4,0.1,17.4,0.2,23.2c0,2.8,0,5.1,0,6.7c0,0.8,0,1.3,0,1.8c0,0.2,0,0.3,0,0.5
		S262.4,262,262.3,262z"/>
	<path class="st5" d="M281.1,259.4c-3.3,1.8-7.6,2-12.2,1.7v-35.8c4-1,8.2-1,12.2,0V259.4z"/>
	<path class="st4" d="M223.3,261.5c0,0,0-0.3,0-0.9s0-1.5,0-2.5c0-2.2-0.1-5.2-0.1-8.8l0.1,0.2c-3.7-1.5-7.7-2.2-11.7-2l0,0l0.2-0.2
		c0,4.5,0,8.6,0,12.2l-0.1-0.2c1.5,0.6,3.1,1.1,4.7,1.3c1.4,0.3,2.7,0.4,3.8,0.5l2.5,0.2C222.8,261.4,223.1,261.4,223.3,261.5
		c-0.2,0-0.5,0-0.8,0c-0.6,0-1.4,0-2.5-0.1c-1.1-0.1-2.3-0.2-3.8-0.4c-1.6-0.2-3.3-0.7-4.8-1.3l-0.1,0v-0.1c0-3.6,0-7.7,0-12.2v-0.2
		h0.2c4.1-0.2,8.1,0.5,11.9,2l0.1,0v0.1c0,3.6-0.1,6.7-0.1,8.9c0,1,0,1.8,0,2.5C223.4,260.9,223.4,261.2,223.3,261.5z"/>
	<path class="st4" d="M229,229.8c-0.8,0.1-1.6,0.2-2.4,0.1c-1.5,0-3.5,0-5.8-0.1s-4.3-0.3-5.7-0.5c-0.8-0.1-1.6-0.2-2.4-0.4
		c0.8,0,1.6,0,2.4,0.1c1.5,0.1,3.5,0.3,5.7,0.4c2.2,0.1,4.3,0.2,5.7,0.3C227.4,229.7,228.2,229.7,229,229.8z"/>
	<path class="st4" d="M227.2,232.5c-0.7,0.1-1.4,0.1-2.1,0c-1.3-0.1-3.1-0.2-5-0.3c-2-0.1-3.8-0.3-5-0.4c-0.7,0-1.4-0.1-2.1-0.3
		c0.7-0.1,1.4-0.1,2.1,0c1.3,0.1,3.1,0.2,5,0.3c2,0.1,3.7,0.3,5,0.4C225.8,232.2,226.5,232.3,227.2,232.5z"/>
	<path class="st4" d="M231.7,236c0,0,0-0.3,0-0.8s0-1.2,0.1-2.1c0.1-1.8,0.2-4.4,0.4-7.6l0.2,0.2c-7.5,0.1-15.1-0.4-22.6-1.3
		l0.2-0.2l0,0v0.3v0.3l0,0.7c0,0.5,0,0.9-0.1,1.4c0,0.9-0.1,1.8-0.2,2.7c-0.1,1.8-0.2,3.5-0.3,5.1l-0.2-0.2
		c6.5,0.8,12.2,1.1,16.2,1.3l4.7,0.1l1.2,0L231.7,236c-0.1,0-0.2,0-0.4,0c-0.3,0-0.7,0-1.3,0c-1.1,0-2.7,0-4.7,0
		c-4-0.1-9.7-0.4-16.2-1.2h-0.2v-0.2c0.1-1.6,0.2-3.3,0.3-5.1c0-0.9,0.1-1.8,0.2-2.7l0.1-1.4v-0.7v-0.3v-0.3l0,0l0.2-0.2
		c7.5,0.9,15.1,1.4,22.6,1.4h0.2v0.2c-0.2,3.2-0.4,5.9-0.5,7.7c-0.1,0.9-0.1,1.6-0.2,2.1C231.8,235.5,231.7,235.8,231.7,236z"/>
	<path class="st4" d="M234.5,240.6c-0.6-0.7-1.2-1.4-1.6-2.2c-0.5-0.7-0.9-1.5-1.2-2.4c0.6,0.7,1.2,1.4,1.6,2.2
		C233.8,238.9,234.2,239.7,234.5,240.6z"/>
	<path class="st2" d="M102.1,161.4l10.4,62.7c0,0,15.8,29.6,57.8,36.3l-6.8-55.9C163.5,204.4,124.6,192.3,102.1,161.4z"/>
	<path class="st3" d="M102.1,161.4l10.4,62.7c0,0,15.8,29.6,57.8,36.3l-6.8-55.9C163.5,204.4,124.6,192.3,102.1,161.4z"/>
	<path class="st4" d="M164.8,255.8l-0.3-0.1l-0.8-0.2l-3-0.9c-1.3-0.4-2.9-0.8-4.7-1.6l-2.9-1.1c-1-0.4-2.1-0.8-3.2-1.3
		c-2.2-1-4.6-2-7.1-3.4s-5.1-2.9-7.8-4.6c-5.8-3.8-11-8.3-15.6-13.5c-2.1-2.4-4-5-5.6-7.9l0,0l0,0l-4.7-30.6c-0.6-3.8-1-6.9-1.4-9
		l-0.3-2.5l-0.1-0.6c0-0.1,0-0.1,0-0.2c0,0.1,0,0.1,0,0.2l0.1,0.6l0.4,2.5c0.4,2.1,0.8,5.2,1.5,9c1.2,7.7,2.9,18.4,4.9,30.6v-0.1
		c1.6,2.8,3.5,5.4,5.6,7.8c4.6,5.2,9.8,9.7,15.5,13.5c2.7,1.7,5.2,3.3,7.7,4.6s4.9,2.5,7,3.4c1.1,0.5,2.1,0.9,3.2,1.3l2.8,1.1
		c1.8,0.7,3.3,1.2,4.6,1.6l2.9,1l0.8,0.3C164.7,255.8,164.7,255.8,164.8,255.8z"/>
	<path class="st4" d="M161.1,237.6c0,0,0,0-0.1,0.1l-0.4,0.4l-1.7,1.4l-6.6,5.1l-0.1,0.1l-0.1-0.1c-2.2-3.1-5-6.9-8.1-11.2l0.2,0
		l-6.2,4.4l-0.2,0.1l-0.1-0.2c-2.5-6.5-5.1-13.9-8-21.6l-1.1-3.1h0.4l-5,10l-0.2,0.4l-0.2-0.5c-4.4-12.6-8.1-23.4-10.5-30.3h0.2
		c-0.7,2.8-1.2,5-1.5,6.5c-0.2,0.7-0.3,1.3-0.4,1.7l-0.1,0.4c0,0.1,0,0.1-0.1,0.1v-0.2c0-0.1,0-0.3,0.1-0.4l0.4-1.7
		c0.3-1.5,0.8-3.8,1.4-6.5l0.1-0.4l0.1,0.4c2.5,7,6.2,17.7,10.7,30.3h-0.4l5-10l0.2-0.4l0.2,0.5l1.1,3.1c2.8,7.7,5.5,15.1,7.9,21.6
		l-0.3-0.1l6.2-4.4l0.1-0.1l0.1,0.1l8,11.2H152l6.7-5l1.8-1.3l0.5-0.3L161.1,237.6z"/>
	<path class="st4" d="M159.7,207.6c-0.3,0-0.6-0.1-0.9-0.2c-0.6-0.2-1.4-0.4-2.3-0.7c-2.6-0.9-5.1-1.8-7.5-3
		c-2.5-1.1-4.9-2.3-7.2-3.7c-0.9-0.5-1.6-1-2.1-1.3c-0.3-0.1-0.5-0.3-0.7-0.5c0.3,0.1,0.6,0.2,0.8,0.4l2.2,1.2
		c1.8,1,4.4,2.3,7.2,3.6s5.5,2.3,7.5,3.1c0.9,0.3,1.6,0.6,2.3,0.8C159.2,207.3,159.4,207.4,159.7,207.6z"/>
	<path class="st4" d="M161.3,210.2c-0.7,0-1.4-0.2-2-0.4c-1.6-0.4-3.2-0.9-4.8-1.4c-1.6-0.6-3.1-1.2-4.6-1.9c-0.6-0.3-1.2-0.6-1.8-1
		c0.7,0.2,1.3,0.4,1.9,0.7c1.2,0.5,2.8,1.1,4.6,1.8c1.8,0.7,3.5,1.2,4.7,1.5C160.1,209.7,160.7,209.9,161.3,210.2z"/>
	<path class="st4" d="M144.8,233.4c0,0.5-0.3,0.9-0.7,0.9s-0.7-0.4-0.7-0.9c0-0.5,0.3-0.9,0.7-0.9
		C144.5,232.4,144.8,232.8,144.8,233.4z"/>
	<ellipse class="st4" cx="128.7" cy="213.6" rx="0.7" ry="0.9"/>
	<path class="st4" d="M113.9,192.9c0,0.5-0.3,0.9-0.7,0.9c-0.4,0-0.7-0.4-0.7-0.9s0.3-0.9,0.7-0.9
		C113.6,191.9,113.9,192.4,113.9,192.9z"/>
	<path class="st2" d="M376.1,172.5l-5.2,63.7c0,0-15.2,27.2-56.9,28.3l5.2-64.1C319.2,200.3,355.6,198.9,376.1,172.5z"/>
	<path class="st5" d="M375.3,169.2c-1.4-4.4-4.7-10.7-12.5-12l-9.3,85.6c0,0,17.4-3.5,17.9-13c0-0.8,3.5-43.4,4.4-53.9
		C376.1,173.6,375.9,171.4,375.3,169.2z"/>
	<path class="st3" d="M376.1,172.5l-5.2,63.7c0,0-15.2,27.2-56.9,28.3l5.2-64.1C319.2,200.3,355.6,198.9,376.1,172.5z"/>
	<path class="st5" d="M374.9,188.7c-4.2,6.1-6.5,13.2-6.6,20.6c0,2.1,0.1,4.3-0.7,6.3s-2.9,3.6-4.9,3c-2-0.6-3.1-3.1-4.9-4.3
		c-1.7-1-3.9-0.9-5.6,0.1c-1.7,1.1-3,2.6-3.7,4.5c-1.5,3.5-1.6,7.4-2.7,11.1s-3.9,7.3-7.7,7.5c-1.4,0.1-2.8-0.4-4.2-0.3
		c-2.9,0.1-5.5,2.3-6.8,4.9c-1.4,2.6-1.8,5.6-2.2,8.5c0,0,22.2,2.1,47.2-27.4L374.9,188.7z"/>
	<path class="st4" d="M339.5,227.4c0,0.8-0.4,1.4-0.9,1.4c-0.5,0-0.9-0.6-0.9-1.4c0-0.8,0.4-1.4,0.9-1.4
		C339.1,225.9,339.5,226.6,339.5,227.4z"/>
	<path class="st4" d="M350,200.9c0,0.8-0.4,1.4-0.9,1.4c-0.5,0-0.9-0.6-0.9-1.4s0.4-1.4,0.9-1.4C349.6,199.5,350,200.1,350,200.9z"
		/>
	<path class="st4" d="M374.4,191.8c0,0.1-0.1,0.2-0.1,0.4l-0.5,1c-0.4,0.9-1.1,2.2-1.8,3.9l-6.6,13.8l-0.1,0.2L365,211l-15.7-10
		l0.3-0.1c-0.2,0.5-0.4,1.1-0.7,1.6l-10.2,24.9l-0.1,0.2l-0.2-0.1c-3.9-2.2-7.1-4-9.3-5.2c-1.1-0.6-2-1.1-2.6-1.4l-0.7-0.3l-0.2-0.1
		c1.2,0.4,2.4,1,3.6,1.6c2.3,1.2,5.5,2.9,9.4,5.1l-0.2,0.1l10.1-24.9c0.2-0.5,0.4-1.1,0.7-1.6l0.1-0.2l0.2,0.1l15.7,10l-0.3,0.1
		c2.8-5.7,5.1-10.4,6.8-13.7l2-3.8l0.5-1C374.2,192,374.3,191.9,374.4,191.8z"/>
</g>
</svg>
