<svg xmlns="http://www.w3.org/2000/svg" xmlns:xlink="http://www.w3.org/1999/xlink" viewBox="0 0 1285.41 1369.7"><defs><style>.cls-1{fill:#58307d;}.cls-2{fill:#646aa2;}.cls-3{fill:#004375;}.cls-4{fill:#090138;}.cls-5{fill:url(#linear-gradient);}.cls-6{fill:#b9bcfc;}.cls-7{fill:#bf2604;}.cls-8{fill:#542360;}.cls-9{fill:#432c47;}.cls-10{fill:#30323e;}.cls-11{fill:#fd5e5a;}.cls-12{fill:#fc7575;}.cls-13{fill:url(#linear-gradient-2);}.cls-14{fill:url(#linear-gradient-3);}.cls-15{fill:url(#linear-gradient-4);}.cls-16{fill:#262943;opacity:0.57;isolation:isolate;}.cls-17{fill:#38202e;}.cls-18{fill:#8c9fbf;}.cls-19{fill:#75b3bc;}.cls-20{fill:#58868d;}.cls-21{fill:url(#linear-gradient-5);}.cls-22{fill:url(#linear-gradient-6);}.cls-23{fill:#284758;}.cls-24{fill:#3b5a5e;}.cls-25{fill:url(#linear-gradient-7);}.cls-26{fill:#e9e9b6;}.cls-27{fill:#381a3f;}.cls-28{fill:#653870;}.cls-29{fill:#172866;}.cls-30{fill:#2f499f;}.cls-31{fill:#fff;}.cls-32{fill:url(#linear-gradient-8);}.cls-33{fill:#acd1d7;}.cls-34{fill:#f7931e;}.cls-35{fill:#c77618;}</style><linearGradient id="linear-gradient" x1="534.56" y1="703.48" x2="564.51" y2="1312.44" gradientTransform="matrix(1, 0, 0, -1, 0, 1354.42)" gradientUnits="userSpaceOnUse"><stop offset="0" stop-color="#ffaa8d"/><stop offset="1" stop-color="#ffffd9"/></linearGradient><linearGradient id="linear-gradient-2" x1="868.39" y1="946.15" x2="980.34" y2="861.84" gradientTransform="matrix(1, 0, 0, -1, 0, 1354.42)" gradientUnits="userSpaceOnUse"><stop offset="0" stop-color="#29002c"/><stop offset="1" stop-color="#330065"/></linearGradient><linearGradient id="linear-gradient-3" x1="1016.4" y1="423.9" x2="1198.11" y2="428.26" xlink:href="#linear-gradient-2"/><linearGradient id="linear-gradient-4" x1="1230.25" y1="369.71" x2="981.66" y2="443.84" gradientTransform="matrix(1, 0, 0, -1, 0, 1354.42)" gradientUnits="userSpaceOnUse"><stop offset="0" stop-color="#290051"/><stop offset="1" stop-color="#330065"/></linearGradient><linearGradient id="linear-gradient-5" x1="1048.62" y1="911.09" x2="1151.83" y2="867.48" xlink:href="#linear-gradient-4"/><linearGradient id="linear-gradient-6" x1="846.32" y1="823.18" x2="904.47" y2="906.05" xlink:href="#linear-gradient-4"/><linearGradient id="linear-gradient-7" x1="1114.78" y1="942.62" x2="1218.28" y2="942.62" xlink:href="#linear-gradient-2"/><linearGradient id="linear-gradient-8" x1="1244.27" y1="893.12" x2="1189.03" y2="755.02" xlink:href="#linear-gradient-4"/></defs><g id="Layer_2" data-name="Layer 2"><g id="Layer_2-2" data-name="Layer 2"><path class="cls-1" d="M1062.43,146.28h-.22a1,1,0,0,1-.73-1.16c6.6-29.27-8.22-43.62-8.37-43.76a1,1,0,0,1,1.33-1.42c.65.61,15.77,15.26,8.93,45.61A1,1,0,0,1,1062.43,146.28Z"/><path class="cls-2" d="M1176.61,1327.36c0,23.38-263.4,42.34-588.31,42.34S0,1350.7,0,1327.36s263.54-26.11,588.46-26.11S1176.61,1304,1176.61,1327.36Z"/><rect class="cls-3" x="101.11" width="894.51" height="740.55" rx="18.22"/><rect class="cls-4" x="125.49" y="20.19" width="845.75" height="700.18" rx="17.22"/><rect class="cls-5" x="167.58" y="55.03" width="761.57" height="630.49" rx="15.51"/><rect class="cls-6" x="250.33" y="162.95" width="16.69" height="453.51"/><rect class="cls-6" x="258.68" y="603.66" width="639.62" height="12.79"/><rect class="cls-6" x="828.36" y="262.13" width="37.35" height="352.98"/><rect class="cls-6" x="765.75" y="319.06" width="37.35" height="296.05"/><rect class="cls-6" x="706.98" y="380.59" width="37.35" height="234.53"/><rect class="cls-6" x="648.21" y="380.59" width="37.35" height="234.53"/><rect class="cls-6" x="589.44" y="394.24" width="37.35" height="220.87"/><rect class="cls-6" x="530.67" y="454.19" width="37.35" height="160.93"/><rect class="cls-6" x="471.9" y="504.68" width="37.35" height="110.44"/><rect class="cls-6" x="413.13" y="522.3" width="37.35" height="92.82"/><rect class="cls-6" x="354.36" y="522.3" width="37.35" height="92.82"/><rect class="cls-6" x="295.59" y="572.15" width="37.35" height="42.96"/><polygon class="cls-7" points="803.42 185.17 795.33 153.43 754.98 221.42 649.76 227.58 519.71 344.77 427.09 344.77 284.64 491.19 270.75 477.68 418.91 325.39 512.27 325.39 641.84 208.64 743.57 202.69 778.67 143.54 746.93 151.65 761.16 127.66 806.17 116.18 817.66 161.19 803.42 185.17"/><rect class="cls-6" x="243.49" y="83.51" width="401.76" height="17.88"/><rect class="cls-8" x="315.12" y="950.55" width="482.47" height="20.85" transform="translate(-407.71 1511.95) rotate(-89.68)"/><polygon class="cls-8" points="395.89 1322.74 550.6 1204.12 549.94 1323.6 560.97 1323.66 561.62 1205.61 720.67 1324.54 737.65 1324.64 564.23 1194.97 560.63 1198.57 550.63 1198.51 550.63 1199.51 545.93 1194.94 379.38 1322.65 395.89 1322.74"/><path class="cls-8" d="M573.66,1209.46l-35.16-.19.2-34.45a17.58,17.58,0,0,1,17.67-17.49h0A17.59,17.59,0,0,1,573.86,1175Z"/><path class="cls-9" d="M1119.49,1341.25l-97.33,2.15,64.7-33.2,2.19-18.42c9.86,0,16.32-4.88,26.27-4.88C1118.14,1302.47,1119.49,1341.25,1119.49,1341.25Z"/><path class="cls-9" d="M962.84,1331l-97.33,2.14,64-27.21,2.91-24.41c9.86,0,12.24,6.68,22.19,6.68C957.41,1303.78,962.84,1331,962.84,1331Z"/><path class="cls-10" d="M842.83,677.64s265.25-30.87,311.77,2L1070.6,401l-22.93-191-54.12,1.24-40.32,11.25Z"/><path class="cls-11" d="M767.06,402.57C759.06,386,756,374,755.36,353.8s-20-41.25-20-41.25c-2-2.37-14.31-6-16.16-2.26s7.28,3.73,9.41,11.89-3,8.25-6.16,7.57-26.9-48.18-33-46.18S703,320.5,705.07,327.25s-6.19,8.07-8.13,12,.42,4.64-1.66,8.83-.06,10.28,5.62,17.78,27,14.33,30.07,20.63c.83,1.71,6.08,15,14,33.07q11.4-7.51,23.42-14.44C767.94,404.19,767.44,403.32,767.06,402.57Z"/><path class="cls-12" d="M706.21,327.17s30.49,23,24.64,27.58-30.33-20-30.33-20,27.16,21.43,22.36,25.14-28.28-14.32-28.28-14.32,24.76,16.48,20.32,18.38-20.32-11.26-20.32-11.26-2.27-4.92-1.43-7.89-.54-4.21.15-6,3.72-4.6,5.06-5.64S700.25,325.46,706.21,327.17Z"/><path class="cls-13" d="M760,364.37,725.4,387.69s62.71,147.13,76.38,147.13S891.6,430.7,891.6,430.7l-1.47-183.54s-78,194.41-85.58,194.41S760,364.37,760,364.37Z"/><path class="cls-14" d="M926.66,1296.24h47.06s33.37-258.1,14.07-367.85c-7.44-42.34,5.88-180.5,6-242.56.2-98.8-9.25-119.26-9.25-119.26L910.8,591.72s-5.86,335.46.17,364.41S926.66,1296.24,926.66,1296.24Z"/><path class="cls-15" d="M1083.45,587.07s11.79,310.44,24.75,355.16c15.33,52.88,14.29,352.37,14.29,352.37l-47.82-2.43s-42.86-283.46-52.51-325.67S970.08,727,970.08,727l-60.65-34.64,1.38-100.62Z"/><path class="cls-16" d="M1059,747.71c6.58,0,16.48.43,32,.9-4.37-82.09-7.55-161.54-7.55-161.54l-75.39,2C1018.55,682.67,1039.14,747.71,1059,747.71Z"/><path class="cls-17" d="M910.81,591.72l172.64-4.65s.63-15.49,2.41-37.29c-58.65,12.58-118.9,15.85-176.6,16.08Z"/><rect class="cls-18" x="936.5" y="566.61" width="41.43" height="22.17" transform="translate(-24.85 43.33) rotate(-2.56)"/><path class="cls-19" d="M1139.78,242.94l-92.13-26.07-72.75,2.35-84.77,27.94,19.13,318.7c57.7-.23,118-3.5,176.6-16.08,2.48-30.56,7.23-73.55,15.68-103.82C1116,394.1,1139.78,242.94,1139.78,242.94Z"/><path class="cls-20" d="M890.13,247.16l19.13,318.7,8.65-.06c-11.36-116.32,34.74-328.52,34.74-341.35Z"/><path class="cls-20" d="M1066.09,216.87c-9,25.75-69.83,210.9-62.46,322.19q.76,11.54,1.72,22.69a677,677,0,0,0,80.51-12c2.48-30.56,7.23-73.55,15.68-103.82,14.47-51.86,38.24-203,38.24-203Z"/><path class="cls-21" d="M1056.05,213.12S1009.3,394.75,1015,500.25s22.93,184,39.49,184,89.79,5.68,100.15-4.69-40-214.56-39.82-254.36,25-182.29,25-182.29Z"/><path class="cls-16" d="M1138.55,563.72c-3.56-18.06-7.24-36.49-10.61-53.89-11.41-10.27-25.23-20.43-35.26-20.43a219,219,0,0,0-38.24,3.61Z"/><path class="cls-22" d="M952.65,224.45S892.89,534.11,892.89,592.2s16.41,87-2.76,93.63-47.3-8.19-47.3-8.19l47.3-430.48Z"/><path class="cls-23" d="M1095.79,228l-48.14-18s-22,127.75-29.83,219.27l40.9-104.21V305.67Z"/><polygon class="cls-23" points="953.19 222.44 914.07 436.84 910.81 319.7 926.05 300.98 915.11 234.9 953.19 222.44"/><path class="cls-24" d="M974.1,242.94l-8.44-32.76s64.66-7.79,64.66-9l12.44,16.28Z"/><path class="cls-25" d="M1139.78,242.94s-32.67,123.34-23.32,150.93,46.34,169.9,76.89,186.78l24.93-65.93Z"/><path class="cls-26" d="M1138.27,278.38l147.14,63.27L1166.76,560.57s-84.57-72.35-112.31-67.53Z"/><path class="cls-12" d="M1255.26,489.4s9-70,9-75.68-16.89-34.38-28.65-34.38-25.93,1.21-25.93,3.92,15.68,3.92,21.11,3.92,12.71,14.78,12.71,18.39-20.5-10.85-30.45-10.85-22.55,1.71-17.79,6.47,15.38.47,20.8,3.18,14.44,12.36,14.44,12.36-13.39-2.14-30.46-3.62c-16.52-1.43-11.38,6.35-1.2,7.1,7.84.57,29.75,7.11,29.75,7.11s-26.58-3.2-30,.27c-2.6,2.59,17.95,6.1,28.43,9,4.07,1.11.11,16.27,1.62,19.4,6,12.45-1.11,31.93-1.11,31.93Z"/><path class="cls-27" d="M1015.72,172.08c1.73-1.1,23.23-54.59,23.23-54.59s14.34-40.17,5.08-47-31.29-30.37-50.59-30.8-32.24,5.35-34,6.45S945.2,68.36,945.2,68.36,951,61.24,954,87.63,1015.72,172.08,1015.72,172.08Z"/><path class="cls-12" d="M967,169.66c2.29,6.84,1.3,55.62,3.12,67.9,1.78,12.12,57,21.15,58.22-13.19,1.56-44.09-3.27-96-3.27-96Z"/><path class="cls-11" d="M967,169.66h0L986.3,156l38.8-27.57v.07a0,0,0,0,1,0,.05h0a5.59,5.59,0,0,0,.08,1c.13,1.61.38,4.81.69,9.24h0c.06.9.12,1.84.19,2.84v.19c.21,3.21.45,6.89.68,11v.68c0,1,.11,1.94.16,2.95h0L1027,158a.49.49,0,0,0,0,.17V160c-7.2,23.64-34.45,49.31-58,52.36,0-1.63-.14-3.28-.25-4.93C968.55,191,968.33,173.57,967,169.66Z"/><path class="cls-12" d="M1027.28,88c7.09,17.64,7.47,49.89-9.44,74.28s-40.22,37-56.94,24.67-21.49-89.49-9.41-109.36S1016.47,61.12,1027.28,88Z"/><path class="cls-28" d="M1027.25,162.08s3.76-25.24,13.45-31.39,14.06-9.91,15.81-18.82,18.94-21.22,13.66-35.88-15.45-15.18-28.32-40.67S1015.1-4.28,985.11,5,951,32.57,951,32.57s-11.84-1.51-21.32,13.54C911,75.78,974.85,93.59,999.42,69c11.92-11.92,27.5-.82,33.41,16.89S1013.26,131.45,1027.25,162.08Z"/><path class="cls-12" d="M1021.7,115.68s10.58-18.06,16.08-10.21,1,31.29-10.7,31.53S1021.7,115.68,1021.7,115.68Z"/><path class="cls-11" d="M1027.67,117s-.4-10.46,5.28-7,0,20.27-5.28,19.93S1027.67,117,1027.67,117Z"/><path class="cls-29" d="M967.72,112.15a65.45,65.45,0,0,0-4.24,14.91c-1.68,11.08.1,15.81.16,16.51,1.29-.24,4.71-.74,9.25-1.93-2.92-.09-5.82,0-8.7.15l1,.72C964.67,132.47,966.64,122.41,967.72,112.15Z"/><path class="cls-30" d="M982,114.83c-.62,3.13.75,6,3,6.52s4.67-1.7,5.28-4.83-.75-6.06-3-6.52S982.64,111.7,982,114.83Z"/><path class="cls-30" d="M950.35,110.33c-.62,3.14.75,6.06,3,6.52s4.67-1.7,5.28-4.83-.75-6-3-6.52S951,107.2,950.35,110.33Z"/><path class="cls-29" d="M1000,106.89s-4.86-8.54-13-10.18-5.66,5.17-3.76,5.56S1000.34,105.29,1000,106.89Z"/><path class="cls-29" d="M961.38,92.77S951.78,95.61,950,100c0,0,10.16-.85,12-3.23a2.7,2.7,0,0,0-.3-3.81A2.92,2.92,0,0,0,961.38,92.77Z"/><path class="cls-31" d="M995.38,155.89c-8.71,6-22.34,11.69-32.74,9.82C971,173.51,988.3,164.57,995.38,155.89Z"/><path class="cls-32" d="M1219.7,478.91s-40.12,60.54-42.83,72.9,16.48,28.84,16.48,28.84,14.27,5.33,27.84,0,41.61-91.86,41.61-91.86Z"/><polygon class="cls-24" points="972.09 224.85 985.76 249.69 1003.04 224.45 1013.31 250.03 987 266.77 961.76 248.26 972.09 224.85"/><path class="cls-33" d="M1003,224.45v41l43.44-48.55-16.16-15.75S1025.15,219.22,1003,224.45Z"/><polygon class="cls-34" points="972.09 224.85 1003.18 226.04 996.76 266.77 972.09 264.04 972.09 224.85"/><polygon class="cls-34" points="972.09 264.04 996.76 266.77 987 491.19 961.76 549.78 932 489.4 972.09 264.04"/><polygon class="cls-35" points="1003.04 226.93 996.76 266.77 987 491.19 961.76 549.78 932 489.4 961.76 532.3 982.02 489.4 994.27 266.49 1003.04 226.93"/><path class="cls-1" d="M1085.25,145.06a2.14,2.14,0,0,1-1.29-.42,2.18,2.18,0,0,1-.47-3h0c32.08-43.87-7.93-107.21-8.34-107.85a2.18,2.18,0,1,1,3.67-2.36c.42.66,42,66.53,8.18,112.79A2.17,2.17,0,0,1,1085.25,145.06Z"/><polygon class="cls-33" points="964.09 262.14 972.91 224.45 965.66 210.18 953.74 226.2 964.09 262.14"/></g></g></svg>