<svg id="Layer_1" data-name="Layer 1" xmlns="http://www.w3.org/2000/svg" viewBox="0 0 1080 1080"><defs><style>.cls-1{fill:#545454;}.cls-2{fill:#378db3;}.cls-3{fill:#ccc;}</style></defs><title>Logo SVG</title><path class="cls-1" d="M716.89,688.88a6.4,6.4,0,0,0-2-1.43,5.69,5.69,0,0,0-2.65-.58,4,4,0,0,0-2.65.91,2.54,2.54,0,0,0-.59,1.68,1.68,1.68,0,0,0,.59,1.42,6.11,6.11,0,0,0,2.26,1l2.4.77a11.91,11.91,0,0,1,4.33,2.53,7.54,7.54,0,0,1,1.95,5.31,9.84,9.84,0,0,1-2.92,7.18c-2.91,2.91-6.6,3.3-9.19,3.3a15,15,0,0,1-6.6-1.36,17.12,17.12,0,0,1-4.27-3.3l4.72-4.79a8.19,8.19,0,0,0,2.59,2.33,7.15,7.15,0,0,0,3.24.91,5.26,5.26,0,0,0,3-.84,3.16,3.16,0,0,0,1.1-2.46,2.38,2.38,0,0,0-.71-1.75,9.06,9.06,0,0,0-2.78-1.36l-2-.78a10.35,10.35,0,0,1-3.68-2.26,6.11,6.11,0,0,1-1.88-4.79,9.21,9.21,0,0,1,2.78-6.67c1.62-1.55,4.21-2.72,8-2.72a15.5,15.5,0,0,1,5.5.91A16.22,16.22,0,0,1,721,684Z"/><path class="cls-1" d="M735.27,688.81l-2.59,21.3h-7.89l2.59-21.3h-3.11l.84-6.73h3.11l1.16-9.58h7.9l-1.17,9.58h5.44l-.84,6.73Z"/><path class="cls-1" d="M767.31,682.08h7.9l-3.43,28h-7.9l.45-3.63a12.52,12.52,0,0,1-3.56,3.17,9.92,9.92,0,0,1-5.24,1.36,12.32,12.32,0,0,1-9.19-3.56,13.4,13.4,0,0,1-3.76-9.9,17.13,17.13,0,0,1,4.34-12,15,15,0,0,1,11.07-4.4,11.28,11.28,0,0,1,5.57,1.36,8.28,8.28,0,0,1,3.3,3.17Zm-13.72,8.09a9,9,0,0,0-2.79,6.47,7.61,7.61,0,0,0,2.14,5.57,7.26,7.26,0,0,0,5.18,1.81,8.06,8.06,0,0,0,5.56-2,9.17,9.17,0,0,0,2.79-6.73,7.24,7.24,0,0,0-1.94-5,7.14,7.14,0,0,0-5.44-2.14A8.06,8.06,0,0,0,753.59,690.17Z"/><path class="cls-1" d="M789.77,688.81l-2.59,21.3h-7.9l2.59-21.3h-3.11l.85-6.73h3.1l1.17-9.58h7.89l-1.16,9.58h5.44l-.85,6.73Z"/><path class="cls-1" d="M808.08,682.08l-3.43,28h-7.89l3.43-28Zm-5.69-15a5,5,0,0,1,3.75-1.62,4.12,4.12,0,0,1,3,1.17,4.27,4.27,0,0,1,1.23,3,5.17,5.17,0,0,1-1.55,3.62A5.27,5.27,0,0,1,805,675a4.24,4.24,0,0,1-3-1.17,4,4,0,0,1-1.23-3A5.21,5.21,0,0,1,802.39,667.13Z"/><path class="cls-1" d="M841.22,685.19a13.1,13.1,0,0,1,3.63,9.32,16.08,16.08,0,0,1-5,11.78C836.17,709.78,832,711,827,711c-4,0-7.77-.84-10.81-3.88a12.83,12.83,0,0,1-3.69-9.52,16.72,16.72,0,0,1,4.86-11.71c2.26-2.2,6.28-4.73,12.81-4.73C835.65,681.17,839.09,683.05,841.22,685.19Zm-7.31,16.37a9.34,9.34,0,0,0,2.65-6.28,7.5,7.5,0,0,0-2.07-5.17,7.61,7.61,0,0,0-5.11-2,9,9,0,0,0-6,2.27,9.32,9.32,0,0,0-2.78,6.67,7.34,7.34,0,0,0,1.94,4.91,7.63,7.63,0,0,0,5.18,2A8.81,8.81,0,0,0,833.91,701.56Z"/><path class="cls-1" d="M852.61,682.08h7.9l-.46,3.62a9.75,9.75,0,0,1,3.43-3.23,10.39,10.39,0,0,1,5.44-1.3c3.76,0,6.09,1.17,7.51,2.59a8.54,8.54,0,0,1,2.2,6.15,35.65,35.65,0,0,1-.52,4.79l-1.87,15.41h-7.9l1.62-13c.06-.59.39-3.43.39-4.47a4.62,4.62,0,0,0-1.3-3.56,4.74,4.74,0,0,0-3.43-1.17,6,6,0,0,0-4.4,1.69c-1.49,1.55-2.14,4.2-2.4,6.21l-1.74,14.31h-7.9Z"/><path class="cls-2" d="M805,675a5.27,5.27,0,0,0,3.76-1.62,5.17,5.17,0,0,0,1.55-3.62,4.27,4.27,0,0,0-1.23-3,4.12,4.12,0,0,0-3-1.17,5,5,0,0,0-3.75,1.62,5.21,5.21,0,0,0-1.56,3.69,4,4,0,0,0,1.23,3A4.24,4.24,0,0,0,805,675Z"/><path class="cls-2" d="M238,380.32H389l-17,43.2H194.75A43.2,43.2,0,0,1,238,380.32Z"/><path class="cls-2" d="M237,442.91H188.1L180,483.23h44.12C224.73,472.71,229,449.67,237,442.91Z"/><polygon class="cls-2" points="170.28 506.91 216.51 506.91 207.7 547.87 161.47 547.87 170.28 506.91"/><polygon class="cls-2" points="819.36 507.23 937.57 507.23 928.12 547.55 809.91 547.55 819.36 507.23"/><path class="cls-2" d="M870.27,568.51c-6.38,12.32-24.15,13-24.15,13H503.67l.21.14-280.48.82s-14.92,1-20.73-13.44H152.11s-28,77.76,11.27,75.84l406.23-.48H879.49c35.87-3.36,42.37-75.84,42.37-75.84Z"/><path class="cls-3" d="M480.13,406.56H431.75l-3.88,32.18h45.35l-3,24.19H424.84l-7.77,63.49H389l17.71-144h76.45Z"/><path class="cls-3" d="M523.75,432.91l-5.62,46.65c-.86,7.55-1.08,9.93-1.08,11.23,0,6,1.94,9.5,3.89,11.44,2.81,3,7.77,4.75,13.17,4.75,6.7,0,11.45-2.37,14.47-5.18,5-4.75,6-11.23,7.13-19.65l6-49.24H588.1l-6.26,51.61c-2.16,17.28-6.26,30.67-20.3,38.66-8.42,4.75-19,6.26-27.86,6.26-11.66,0-23.32-2.59-30.88-8-5-3.67-12.53-11.44-12.53-25.7a119.75,119.75,0,0,1,1.3-14.68l5.83-48.16Z"/><path class="cls-3" d="M758.18,369,738.74,526.42H712.39L731.83,369Z"/><path class="cls-3" d="M693.61,502.88c-4.75,9.72-12.31,17.49-19.87,21.81-9.28,5.18-19.65,6.26-28.07,6.26-12.53,0-24.84-2.37-34.77-13-5.18-5.4-11.23-14.9-11.23-30.24,0-16.19,5.83-32.39,16.2-42.54,11.88-11.88,25.91-13.82,37.36-13.82,11.23,0,22.89,2.16,32,10.8,10.15,9.72,12.09,22.46,12.09,33.9a62.6,62.6,0,0,1-.43,9.5h-70c-1.08,8.64,1.51,14.9,5.4,18.79,4.75,5,10.58,5.83,15.33,5.83,3.24,0,9.29-.21,14.26-3a27.81,27.81,0,0,0,9.07-9.72Zm-19.43-34.12a20.31,20.31,0,0,0-5.84-13.6c-3.67-3.46-9.28-5.19-14.68-5.19a23.49,23.49,0,0,0-16,6,29,29,0,0,0-7.77,12.74Z"/></svg>