<svg xmlns="http://www.w3.org/2000/svg" xmlns:xlink="http://www.w3.org/1999/xlink" viewBox="0 0 236.58 327.55"><defs><style>.cls-1,.cls-3{fill:none;}.cls-2,.cls-4{opacity:0.31;}.cls-3{stroke:#535353;stroke-width:12px;}.cls-4{fill:#308cba;}.cls-13,.cls-14,.cls-15,.cls-16,.cls-17,.cls-19,.cls-4,.cls-9{isolation:isolate;}.cls-5{clip-path:url(#clip-path);}.cls-6{fill:url(#linear-gradient);}.cls-14,.cls-15,.cls-16,.cls-17,.cls-19,.cls-7{fill:#fff;}.cls-8{fill:#131a30;}.cls-9{fill:#3a517f;opacity:0.23;}.cls-10{fill:#1b2238;}.cls-11{fill:url(#linear-gradient-2);}.cls-12{fill:url(#linear-gradient-3);}.cls-14,.cls-15,.cls-16,.cls-17,.cls-19{font-size:8.8px;font-family:Montserrat-Medium, Montserrat;font-weight:500;}.cls-14{letter-spacing:0.1em;}.cls-15,.cls-18{letter-spacing:0.09em;}.cls-16{letter-spacing:0.1em;}.cls-17{letter-spacing:0.08em;}.cls-19{letter-spacing:0.06em;}</style><clipPath id="clip-path"><rect class="cls-1" x="51.87" y="49.64" width="120.04" height="251.19" rx="13.69"/></clipPath><linearGradient id="linear-gradient" x1="111.88" y1="361.39" x2="111.88" y2="-3.76" gradientTransform="matrix(1, 0, 0, -1, 0, 352.89)" gradientUnits="userSpaceOnUse"><stop offset="0" stop-color="#9ad5f2"/><stop offset="0.52" stop-color="#1d9ed9"/><stop offset="1" stop-color="#178acb"/></linearGradient><linearGradient id="linear-gradient-2" x1="111.5" y1="152.07" x2="108.4" y2="121.03" gradientTransform="matrix(1, 0, 0, -1, 0, 352.89)" gradientUnits="userSpaceOnUse"><stop offset="0.23" stop-color="#141321"/><stop offset="1" stop-color="#121037"/></linearGradient><linearGradient id="linear-gradient-3" x1="112.44" y1="202.43" x2="109.34" y2="171.38" xlink:href="#linear-gradient-2"/></defs><g id="Layer_2" data-name="Layer 2"><g id="Layer_1-2" data-name="Layer 1"><g id="Ellipse_19" data-name="Ellipse 19" class="cls-2"><ellipse class="cls-1" cx="51.87" cy="51.62" rx="48.86" ry="48.61"/><ellipse class="cls-3" cx="51.87" cy="51.62" rx="45.87" ry="45.62"/></g><circle id="Ellipse_18" data-name="Ellipse 18" class="cls-4" cx="170.69" cy="261.66" r="65.89"/><g id="Layer_2-2" data-name="Layer 2"><g id="PRINT"><g class="cls-5"><rect class="cls-6" x="36.84" y="46.05" width="150.09" height="258.29"/><rect class="cls-7" x="36.84" y="46.05" width="150.09" height="258.29"/></g><path class="cls-8" d="M158.31,50.87a12.4,12.4,0,0,1,12.38,12.39V288.42a12.4,12.4,0,0,1-12.38,12.39H65.46a12.39,12.39,0,0,1-12.38-12.39V63.26A12.39,12.39,0,0,1,65.46,50.87h92.85m0-6.06H65.46A18.44,18.44,0,0,0,47,63.26V288.42a18.45,18.45,0,0,0,18.44,18.45h92.85a18.45,18.45,0,0,0,18.44-18.44h0V63.26a18.44,18.44,0,0,0-18.43-18.45Z"/><path class="cls-8" d="M46,90.29h1.89V79.81H46Zm0,27.52h1.89V98.25H46Zm129.8-11.89v30.6h1.89v-30.6ZM46,142.71h1.89V123.13H46Z"/><path class="cls-8" d="M71.84,47.68v3.13h5.37a2,2,0,0,1,1.94,2s2,7.34,5.5,7.34H139c3.46,0,5.5-7.34,5.5-7.34a2,2,0,0,1,1.94-2h5.37V47.68Z"/><path class="cls-9" d="M88.65,55.37a2.28,2.28,0,1,1-2.29-2.27h0a2.27,2.27,0,0,1,2.28,2.26Z"/><path class="cls-10" d="M87.48,55.37a1.11,1.11,0,1,1-2.21.21.74.74,0,0,1,0-.21,1.11,1.11,0,0,1,2.21,0Z"/><path class="cls-10" d="M128.6,55.37a2.29,2.29,0,1,1-2.29-2.29h0A2.29,2.29,0,0,1,128.6,55.37Z"/><path class="cls-10" d="M139.67,55.37a2.75,2.75,0,1,1-2.75-2.75h0A2.75,2.75,0,0,1,139.67,55.37Z"/><circle class="cls-9" cx="97.99" cy="55.37" r="2.65"/><circle class="cls-10" cx="97.99" cy="55.37" r="1.57"/><path class="cls-10" d="M119.31,56.48H105a1,1,0,0,1-1-1h0a1,1,0,0,1,1-1h14.34a1,1,0,0,1,1,1h0A1,1,0,0,1,119.31,56.48Z"/><path class="cls-10" d="M119.31,52.62H105a1,1,0,0,1-1-1h0a1,1,0,0,1,1-1h14.34a1,1,0,0,1,1,1h0A1,1,0,0,1,119.31,52.62Z"/><rect class="cls-11" x="61.34" y="195.77" width="99.11" height="22.32" rx="4.5"/><path class="cls-7" d="M85.36,205.92,75,200a1.19,1.19,0,0,0-.58-.15h-.21a1.14,1.14,0,0,0-.95,1.13v11.83a1.16,1.16,0,0,0,.58,1,1,1,0,0,0,.37.14h.21a1.19,1.19,0,0,0,.58-.15l10.36-5.92a1.16,1.16,0,0,0,.58-1h0A1.18,1.18,0,0,0,85.36,205.92Z"/><rect class="cls-12" x="61.34" y="154.83" width="99.11" height="22.32" rx="4.5"/><g class="cls-13"><text class="cls-14" transform="translate(91.98 169.57)">A</text><text class="cls-15" transform="translate(99.3 169.57)">P</text><text class="cls-16" transform="translate(106.45 169.57)">P</text><text class="cls-17" transform="translate(113.68 169.57)">S<tspan class="cls-18" x="6.17" y="0">T</tspan></text><text class="cls-16" transform="translate(125.9 169.57)">ORE</text></g><g class="cls-13"><text class="cls-15" transform="translate(91.98 209.51)">P</text><text class="cls-16" transform="translate(99.13 209.51)">L</text><text class="cls-19" transform="translate(105.26 209.51)">A</text><text class="cls-15" transform="translate(112.21 209.51)">Y</text><text class="cls-17" transform="translate(118.65 209.51)">S<tspan class="cls-18" x="6.17" y="0">T</tspan></text><text class="cls-16" transform="translate(130.87 209.51)">ORE</text></g><path class="cls-7" d="M74.21,164c-1.28,2.22-.46,5.6,1,7.64.71,1,1.43,1.94,2.41,1.94h0a3.11,3.11,0,0,0,1.12-.3,3,3,0,0,1,1.32-.31,2.75,2.75,0,0,1,1.26.3,2.62,2.62,0,0,0,1.2.29c1.11,0,1.78-1,2.38-1.88a8,8,0,0,0,1-2.14h0a.12.12,0,0,0-.07-.15h0a3.16,3.16,0,0,1-1.91-2.9,3.22,3.22,0,0,1,1.54-2.72h0a.11.11,0,0,0,0-.08.14.14,0,0,0,0-.09,3.56,3.56,0,0,0-2.82-1.53h-.24a4.87,4.87,0,0,0-1.77.45,3.19,3.19,0,0,1-.85.25,2.92,2.92,0,0,1-.87-.26,4.22,4.22,0,0,0-1.55-.39h0A3.81,3.81,0,0,0,74.21,164Z"/><path class="cls-7" d="M82.73,158.41a3.43,3.43,0,0,0-2.29,1.17,3.28,3.28,0,0,0-.82,2.41.13.13,0,0,0,.12.1h.16a2.93,2.93,0,0,0,2.15-1.1,3.44,3.44,0,0,0,.8-2.48A.12.12,0,0,0,82.73,158.41Z"/></g></g></g></g></svg>