<svg xmlns="http://www.w3.org/2000/svg" xmlns:xlink="http://www.w3.org/1999/xlink" viewBox="0 0 500 500"><defs><style>.cls-1{fill:#d3b25a;}.cls-2{fill:#302564;}.cls-3{fill:#d29271;}.cls-4{fill:#dc4267;}.cls-5{fill:#ecc649;}.cls-6{fill:none;}.cls-7{fill:#e8aaad;}.cls-8{fill:#423392;}.cls-9{fill:#ff74b2;}.cls-10{isolation:isolate;}.cls-11,.cls-12{opacity:0.6;}.cls-11{fill:url(#Degradado_sin_nombre_5);}.cls-12{fill:url(#Degradado_sin_nombre_5-2);}.cls-13,.cls-14,.cls-15{opacity:0.22;}.cls-13{fill:url(#Degradado_sin_nombre_5-3);}.cls-14{fill:url(#Degradado_sin_nombre_5-4);}.cls-15{fill:url(#Degradado_sin_nombre_5-5);}.cls-16{fill:#b2aecc;opacity:0.18;}.cls-16,.cls-22,.cls-26,.cls-27,.cls-36,.cls-37,.cls-42,.cls-47,.cls-50,.cls-56,.cls-58,.cls-60{mix-blend-mode:multiply;}.cls-17{fill:#2e2562;}.cls-18{fill:#e7e4fc;}.cls-19{fill:#5758db;}.cls-20{clip-path:url(#clip-path);}.cls-21,.cls-30{fill:#fff;}.cls-21{opacity:0.53;}.cls-22{opacity:0.93;}.cls-23{clip-path:url(#clip-path-2);}.cls-24{fill:url(#Degradado_sin_nombre_19);}.cls-25{fill:url(#Degradado_sin_nombre_19-2);}.cls-27{fill:#c3c5fa;}.cls-27,.cls-58{opacity:0.34;}.cls-28{opacity:0.14;}.cls-29{clip-path:url(#clip-path-3);}.cls-31{clip-path:url(#clip-path-4);}.cls-32{clip-path:url(#clip-path-5);}.cls-33{fill:#6971ba;}.cls-34{clip-path:url(#clip-path-6);}.cls-35{clip-path:url(#clip-path-7);}.cls-36,.cls-38{fill:#5283bc;}.cls-36{opacity:0.55;}.cls-37{opacity:0.16;}.cls-39{fill:#405dbb;}.cls-40{fill:#d96985;}.cls-41{clip-path:url(#clip-path-8);}.cls-42{fill:#866e4f;opacity:0.29;}.cls-43{fill:#6c543b;}.cls-44{fill:#354f5f;}.cls-45{fill:#ecf1f1;}.cls-46{clip-path:url(#clip-path-9);}.cls-47{fill:#99374f;opacity:0.23;}.cls-48{fill:#1f3054;}.cls-49{clip-path:url(#clip-path-10);}.cls-50{fill:#44627d;opacity:0.21;}.cls-51{fill:#1b2b41;}.cls-52{fill:#e9be84;}.cls-53{fill:#c74b65;}.cls-54{clip-path:url(#clip-path-11);}.cls-55{clip-path:url(#clip-path-12);}.cls-56{fill:#5b2a36;opacity:0.2;}.cls-57{clip-path:url(#clip-path-13);}.cls-59,.cls-60,.cls-61{fill:#5d5d5d;}.cls-60{opacity:0.12;}.cls-61{opacity:0.17;}</style><linearGradient id="Degradado_sin_nombre_5" x1="73.37" y1="123.83" x2="322.08" y2="123.83" gradientTransform="matrix(0.63, 0.77, -0.77, 0.63, 133.97, -16.87)" gradientUnits="userSpaceOnUse"><stop offset="0" stop-color="#f4f2f7"/><stop offset="1" stop-color="#b6a8fb"/></linearGradient><linearGradient id="Degradado_sin_nombre_5-2" x1="196.87" y1="-85.39" x2="361.46" y2="-85.39" gradientTransform="matrix(0.36, 0.93, -0.93, 0.36, 197.39, -85.06)" xlink:href="#Degradado_sin_nombre_5"/><linearGradient id="Degradado_sin_nombre_5-3" x1="-177.84" y1="-15.07" x2="-147.81" y2="-15.07" gradientTransform="translate(368.24 187.88) rotate(40.15)" xlink:href="#Degradado_sin_nombre_5"/><linearGradient id="Degradado_sin_nombre_5-4" x1="-164.51" y1="218.53" x2="-134.48" y2="218.53" gradientTransform="matrix(0.77, -0.63, 0.63, 0.77, 389.13, -19.95)" xlink:href="#Degradado_sin_nombre_5"/><linearGradient id="Degradado_sin_nombre_5-5" x1="-485.31" y1="23.13" x2="-460.84" y2="23.13" gradientTransform="matrix(0.77, -0.63, 0.63, 0.77, 389.13, -19.95)" xlink:href="#Degradado_sin_nombre_5"/><clipPath id="clip-path"><path class="cls-1" d="M435.24,301.64l-6.46,24.56a7.17,7.17,0,0,0,3.06,7.84l21.37,13.73a7.59,7.59,0,0,1-3.67,14l-25.36,1.45a7.17,7.17,0,0,0-6.51,5.33l-6.45,24.56a7.59,7.59,0,0,1-14.42.83l-9.22-23.66a7.16,7.16,0,0,0-7.08-4.55l-25.35,1.45a7.6,7.6,0,0,1-5.25-13.46l19.66-16.08a7.17,7.17,0,0,0,2.14-8.14l-9.22-23.66a7.59,7.59,0,0,1,11.18-9.14L395,310.39a7.16,7.16,0,0,0,8.4-.48l19.65-16.08A7.6,7.6,0,0,1,435.24,301.64Z"/></clipPath><clipPath id="clip-path-2"><path class="cls-5" d="M400,384.49c-49.12-4.85-85.6-.77-92,0-.34,0-.67.07-1,.13h0a9.06,9.06,0,0,0-7.35,8.87h0a9.05,9.05,0,0,0,9,9H400a9.05,9.05,0,0,0,9-9h0A9.06,9.06,0,0,0,400,384.49Z"/></clipPath><linearGradient id="Degradado_sin_nombre_19" x1="308.97" y1="392.45" x2="353.53" y2="392.45" gradientUnits="userSpaceOnUse"><stop offset="0" stop-color="#d3b25a" stop-opacity="0"/><stop offset="0.06" stop-color="#d3b25a" stop-opacity="0.13"/><stop offset="0.19" stop-color="#d3b25a" stop-opacity="0.36"/><stop offset="0.31" stop-color="#d3b25a" stop-opacity="0.56"/><stop offset="0.44" stop-color="#d3b25a" stop-opacity="0.72"/><stop offset="0.57" stop-color="#d3b25a" stop-opacity="0.84"/><stop offset="0.71" stop-color="#d3b25a" stop-opacity="0.93"/><stop offset="0.85" stop-color="#d3b25a" stop-opacity="0.98"/><stop offset="1" stop-color="#d3b25a"/></linearGradient><linearGradient id="Degradado_sin_nombre_19-2" x1="394.8" y1="392.68" x2="352.19" y2="392.68" xlink:href="#Degradado_sin_nombre_19"/><clipPath id="clip-path-3"><polygon class="cls-6" points="332.72 135.67 263.25 135.67 175.56 135.67 175.56 229.64 175.56 304.83 175.56 359 193.62 359 259.89 359 275.79 359 337 359 337 292.16 337 274.95 337 203.23 337 135.67 332.72 135.67"/></clipPath><clipPath id="clip-path-4"><path class="cls-1" d="M154.08,201.12l-1.88,25.32a7.17,7.17,0,0,0,4.43,7.16l23.51,9.61a7.59,7.59,0,0,1-1.07,14.4l-24.67,6a7.17,7.17,0,0,0-5.44,6.43l-1.88,25.32a7.59,7.59,0,0,1-14,3.44l-13.36-21.6a7.16,7.16,0,0,0-7.79-3.18l-24.67,6a7.59,7.59,0,0,1-7.6-12.28L96,248.43a7.16,7.16,0,0,0,.62-8.39L83.29,218.45a7.6,7.6,0,0,1,9.33-11L116.13,217a7.14,7.14,0,0,0,8.17-2l16.41-19.38A7.59,7.59,0,0,1,154.08,201.12Z"/></clipPath><clipPath id="clip-path-5"><path class="cls-7" d="M119.38,426.76l-7.56,12.33,1.26,9.8s6.94,1.51,4.42,3-7.58,1.51-8.21,0-5.68-15.84-4.41-16.6,4.41-2.26,4.41-2.26l4.42-11.32Z"/></clipPath><clipPath id="clip-path-6"><path class="cls-7" d="M159.15,419.47v21.88s14.52,6,13.25,7.54c0,0-18.3,0-18.3-1.51s.63-6.79.63-6.79l-3-19.91Z"/></clipPath><clipPath id="clip-path-7"><path class="cls-8" d="M146.53,323.65l-22.72,9.81s-6.31,23.39-5.68,28.67,2.52,33.2,1.26,35.46S112.45,424,112.45,424s8.83,3.77,8.2,3.77,16.41-23.39,17-32.44S139,381.75,139,381.75s10.73,24.89,13.26,41.49l8.83-1.51s-.63-52.06-4.41-68.65A149.59,149.59,0,0,0,146.53,323.65Z"/></clipPath><clipPath id="clip-path-8"><path class="cls-7" d="M129.91,284.77a25.65,25.65,0,0,1-4.62-3c-1.05-1.14-4.72-5.69-4.06-8.41,0,0,4.71,1.79,6.12-1.95,1.85-4.88-7-16.23-9.23-16.87s-7-3.58-11.55.09,2,19.33,6.9,20.07c0,0,5.28,8.72,3.46,11.54,0,0,7.51,3.2,10.34,1.11S129.91,284.77,129.91,284.77Z"/></clipPath><clipPath id="clip-path-9"><path class="cls-9" d="M123.49,333.38s4.86-10.7,5.83-12.64-17.5-25.29-17.5-28.21,2.92-14.58,12.64-13.61,24.31,7.78,22.37,13.61-2,21.4,0,31.12c1.21,6.07-5.15,10.62-10.1,13.19A9.16,9.16,0,0,1,127,336Z"/></clipPath><clipPath id="clip-path-10"><path class="cls-2" d="M432.28,420.59A61.72,61.72,0,0,1,425.81,404c-2.83-12.26-14.15-24.53-14.15-24.53-.94-11.32-7.54-45.28-7.54-46.22,0,0-8.49-16-14.16,3.77s11.33,37.74,11.33,43.4,27.35,43.39,27.35,43.39v.05A6.13,6.13,0,0,0,432.28,420.59Z"/></clipPath><clipPath id="clip-path-11"><path class="cls-3" d="M400.22,281.26s4.39-2.28,5.69-3.69,5.82-7,5-10.35c0,0-5.8,2.2-7.54-2.41-2.27-6,8.69-20,11.36-20.76s8.63-4.41,14.23.11-2.44,23.79-8.5,24.71c0,0-6.5,10.73-4.25,14.21,0,0-9.25,3.93-12.74,1.36S400.22,281.26,400.22,281.26Z"/></clipPath><clipPath id="clip-path-12"><path class="cls-4" d="M391.82,326.28c7.35,1.16,12.45,1.78,13.92-2.71.94-2.87,1.24-10.45,7.34-16.62,4.39-4.43,12.73-16.48,8.37-23.75s-13.68-3.52-15.7-3.44,1.81-5.49,1.81-5.49h0c-10.06,2.44-15.43,7-19.74,14.33-6.19,10.49-8.19,33.71-6.43,36.52Z"/></clipPath><clipPath id="clip-path-13"><path class="cls-1" d="M344.84,216.07,360,236.46a7.16,7.16,0,0,0,8,2.52l24.07-8.09a7.6,7.6,0,0,1,8.61,11.6L386,263.18a7.16,7.16,0,0,0,.09,8.42L401.18,292a7.59,7.59,0,0,1-8.37,11.77l-24.23-7.6a7.16,7.16,0,0,0-8,2.68l-14.72,20.7a7.59,7.59,0,0,1-13.78-4.33l-.26-25.39a7.16,7.16,0,0,0-5-6.76l-24.23-7.61a7.59,7.59,0,0,1-.15-14.44l24.08-8.09a7.17,7.17,0,0,0,4.87-6.86l-.25-25.39A7.59,7.59,0,0,1,344.84,216.07Z"/></clipPath></defs><title>rate</title><g class="cls-10"><g id="OBJECTS"><circle class="cls-11" cx="163.16" cy="214.59" r="124.35"/><circle class="cls-12" cx="376.69" cy="145.3" r="82.29" transform="translate(-26.59 126.02) rotate(-18.36)"/><circle class="cls-13" cx="253.5" cy="71.38" r="15.02" transform="translate(136.69 307.42) rotate(-79.4)"/><path class="cls-14" d="M423.23,234.35a15,15,0,1,1-21.13-2.13A15,15,0,0,1,423.23,234.35Z"/><path class="cls-15" d="M46.88,289.49a12.23,12.23,0,1,1-17.21-1.73A12.23,12.23,0,0,1,46.88,289.49Z"/><ellipse class="cls-16" cx="271.77" cy="388.94" rx="192.23" ry="7.96"/><ellipse class="cls-16" cx="96.3" cy="423.87" rx="44.66" ry="5.13"/><path class="cls-16" d="M191.44,448.74c0,3.12-24.81,5.65-55.43,5.65s-55.44-2.53-55.44-5.65,24.82-5.64,55.44-5.64S191.44,445.62,191.44,448.74Z"/><path class="cls-16" d="M458.35,432.32c0,3.12-24.82,5.64-55.43,5.64s-55.44-2.52-55.44-5.64,24.82-5.65,55.44-5.65S458.35,429.2,458.35,432.32Z"/><path class="cls-16" d="M393.68,400.49c0,3.12-24.82,5.65-55.44,5.65s-55.43-2.53-55.43-5.65,24.82-5.64,55.43-5.64S393.68,397.38,393.68,400.49Z"/><rect class="cls-17" x="166.84" y="107.54" width="178.93" height="281.43" rx="15.91"/><polygon class="cls-18" points="331.38 135.96 262.57 135.96 175.72 135.96 175.72 230.15 175.72 305.51 175.72 359.81 193.61 359.81 259.25 359.81 275 359.81 335.62 359.81 335.62 292.81 335.62 275.57 335.62 203.68 335.62 135.96 331.38 135.96"/><circle class="cls-19" cx="255.92" cy="376.19" r="9.77" transform="translate(-168.09 541.21) rotate(-77.04)"/><path class="cls-19" d="M231.55,122.14a3,3,0,1,1-3-3A3,3,0,0,1,231.55,122.14Z"/><path class="cls-19" d="M291.16,124.26h-53A2.29,2.29,0,0,1,235.9,122h0a2.29,2.29,0,0,1,2.28-2.28h53a2.29,2.29,0,0,1,2.28,2.28h0A2.28,2.28,0,0,1,291.16,124.26Z"/><path class="cls-1" d="M435.24,301.64l-6.46,24.56a7.17,7.17,0,0,0,3.06,7.84l21.37,13.73a7.59,7.59,0,0,1-3.67,14l-25.36,1.45a7.17,7.17,0,0,0-6.51,5.33l-6.45,24.56a7.59,7.59,0,0,1-14.42.83l-9.22-23.66a7.16,7.16,0,0,0-7.08-4.55l-25.35,1.45a7.6,7.6,0,0,1-5.25-13.46l19.66-16.08a7.17,7.17,0,0,0,2.14-8.14l-9.22-23.66a7.59,7.59,0,0,1,11.18-9.14L395,310.39a7.16,7.16,0,0,0,8.4-.48l19.65-16.08A7.6,7.6,0,0,1,435.24,301.64Z"/><g class="cls-20"><path class="cls-5" d="M434.57,299.27l-6.45,24.56a7.18,7.18,0,0,0,3.05,7.85l21.37,13.72a7.59,7.59,0,0,1-3.67,14l-25.35,1.46a7.15,7.15,0,0,0-6.52,5.32l-6.45,24.57a7.59,7.59,0,0,1-14.42.82l-9.22-23.66a7.15,7.15,0,0,0-7.08-4.55l-25.35,1.46a7.59,7.59,0,0,1-5.24-13.46l19.65-16.08a7.16,7.16,0,0,0,2.14-8.14l-9.22-23.66A7.6,7.6,0,0,1,373,294.3L394.36,308a7.16,7.16,0,0,0,8.4-.49l19.66-16.07A7.59,7.59,0,0,1,434.57,299.27Z"/></g><path class="cls-21" d="M386.71,310.91c2.41,1,4.75,2.13,7.05,3.32.29.15.58.3.85.42l.41.19.43.16a9.74,9.74,0,0,0,1.73.5,10.25,10.25,0,0,0,3.58.06,9.73,9.73,0,0,0,3.39-1.11,9.38,9.38,0,0,0,1.52-1l.35-.28.37-.31.76-.62c2-1.65,4-3.26,6.18-4.75-1.69,2-3.48,3.87-5.32,5.7-.47.47-.88.91-1.42,1.37a10.21,10.21,0,0,1-1.68,1.23,11,11,0,0,1-8.06,1.21,11.4,11.4,0,0,1-2-.69l-.47-.21-.45-.26c-.31-.17-.57-.35-.85-.52C390.94,313.94,388.78,312.5,386.71,310.91Z"/><path class="cls-21" d="M376.66,302.24c-1.2-.61-2.38-1.28-3.55-2l-.43-.25-.21-.11-.21-.11a8.07,8.07,0,0,0-.83-.34,4.9,4.9,0,0,0-1.59-.28,3.07,3.07,0,0,0-1.35.27,2.17,2.17,0,0,0-.55.33l-.12.1-.12.12-.25.22a21.91,21.91,0,0,1-2.12,1.7,20.56,20.56,0,0,1,1.61-2.19c.15-.17.27-.34.45-.51a2.73,2.73,0,0,1,.58-.43,3.22,3.22,0,0,1,1.55-.35,5.56,5.56,0,0,1,1.86.36,7.45,7.45,0,0,1,.95.45l.24.13.23.14.44.29C374.39,300.59,375.53,301.39,376.66,302.24Z"/><path class="cls-21" d="M357,351.89c-1.13.73-2.3,1.41-3.48,2.08l-.43.25-.2.13-.2.12c-.25.18-.49.36-.71.55a5.3,5.3,0,0,0-1,1.24,3.11,3.11,0,0,0-.45,1.31,2.21,2.21,0,0,0,0,.63l0,.16,0,.16.07.33a19.82,19.82,0,0,1,.41,2.69,20.14,20.14,0,0,1-1.08-2.49,6.21,6.21,0,0,1-.23-.65,2.84,2.84,0,0,1-.08-.72,3.31,3.31,0,0,1,.47-1.51,5.54,5.54,0,0,1,1.25-1.43,9.4,9.4,0,0,1,.86-.61l.23-.14.24-.13.48-.23C354.43,353,355.69,352.43,357,351.89Z"/><g class="cls-22"><path class="cls-18" d="M262.59,166.06,271.05,190a7.16,7.16,0,0,0,6.94,4.77l25.38-.65a7.6,7.6,0,0,1,4.82,13.62L288,223.19a7.15,7.15,0,0,0-2.39,8.07l8.46,23.94A7.6,7.6,0,0,1,282.63,264l-20.92-14.4a7.16,7.16,0,0,0-8.41.21l-20.15,15.45a7.59,7.59,0,0,1-11.9-8.19l7.22-24.34a7.16,7.16,0,0,0-2.8-7.94l-20.92-14.39a7.59,7.59,0,0,1,4.11-13.85l25.39-.65a7.14,7.14,0,0,0,6.67-5.12l7.23-24.34A7.59,7.59,0,0,1,262.59,166.06Z"/></g><path class="cls-5" d="M400,384.49c-49.12-4.85-85.6-.77-92,0-.34,0-.67.07-1,.13h0a9.06,9.06,0,0,0-7.35,8.87h0a9.05,9.05,0,0,0,9,9H400a9.05,9.05,0,0,0,9-9h0A9.06,9.06,0,0,0,400,384.49Z"/><g class="cls-23"><path class="cls-24" d="M352.19,402.55s-13.71-2-13-10.36,14.38-10,14.38-10-38.46-1-43.81,8S328.45,403.89,352.19,402.55Z"/><path class="cls-25" d="M353.53,382.15s12,.34,12,10.37c0,8.39-13.38,10-13.38,10s35.49,3.36,41.6-5.17S377.3,382.87,353.53,382.15Z"/></g><g class="cls-26"><path class="cls-27" d="M318.26,319.29H203a2.74,2.74,0,0,1-2.73-2.73h0a2.74,2.74,0,0,1,2.73-2.74H318.26a2.74,2.74,0,0,1,2.74,2.74h0A2.74,2.74,0,0,1,318.26,319.29Z"/><path class="cls-27" d="M318.26,329.49H203a2.75,2.75,0,0,1-2.73-2.74h0A2.75,2.75,0,0,1,203,324H318.26a2.75,2.75,0,0,1,2.74,2.74h0A2.75,2.75,0,0,1,318.26,329.49Z"/><path class="cls-27" d="M243.53,339.18H203a2.74,2.74,0,0,1-2.73-2.73h0a2.74,2.74,0,0,1,2.73-2.74h40.53a2.74,2.74,0,0,1,2.74,2.74h0A2.74,2.74,0,0,1,243.53,339.18Z"/></g><g class="cls-28"><g class="cls-29"><polygon class="cls-30" points="167.21 207.06 351.61 119.06 289.66 98.5 146.89 163.53 167.21 207.06"/><polygon class="cls-30" points="166.73 255.84 363.23 160.67 357.9 148.71 158.99 244.84 166.73 255.84"/><polygon class="cls-30" points="155.11 354.83 374.36 233.84 380.65 259.66 218.52 342.4 363.23 279.75 189.96 370.61 158.99 370.13 155.11 354.83"/><polyline class="cls-30" points="344.84 219.01 166.73 338.09 344.84 226.66 341.93 219.01"/></g></g><path class="cls-1" d="M154.08,201.12l-1.88,25.32a7.17,7.17,0,0,0,4.43,7.16l23.51,9.61a7.59,7.59,0,0,1-1.07,14.4l-24.67,6a7.17,7.17,0,0,0-5.44,6.43l-1.88,25.32a7.59,7.59,0,0,1-14,3.44l-13.36-21.6a7.16,7.16,0,0,0-7.79-3.18l-24.67,6a7.59,7.59,0,0,1-7.6-12.28L96,248.43a7.16,7.16,0,0,0,.62-8.39L83.29,218.45a7.6,7.6,0,0,1,9.33-11L116.13,217a7.14,7.14,0,0,0,8.17-2l16.41-19.38A7.59,7.59,0,0,1,154.08,201.12Z"/><g class="cls-31"><path class="cls-5" d="M153,198.91l-1.88,25.33a7.15,7.15,0,0,0,4.43,7.15l23.5,9.61A7.6,7.6,0,0,1,178,255.41l-24.66,6a7.14,7.14,0,0,0-5.44,6.42L146,293.2a7.59,7.59,0,0,1-14,3.43L118.6,275a7.15,7.15,0,0,0-7.78-3.19l-24.67,6a7.59,7.59,0,0,1-7.6-12.28L95,246.23a7.16,7.16,0,0,0,.63-8.4L82.21,216.24a7.6,7.6,0,0,1,9.33-11l23.51,9.62a7.17,7.17,0,0,0,8.17-2l16.41-19.39A7.6,7.6,0,0,1,153,198.91Z"/></g><path class="cls-21" d="M108.05,219.05c2.55.54,5,1.24,7.54,2,.31.1.62.19.91.26l.44.12.44.08a10,10,0,0,0,1.8.17,10.64,10.64,0,0,0,6.66-2.29,9.61,9.61,0,0,0,1.31-1.24l.3-.34.31-.38.63-.74c1.66-2,3.37-3.94,5.21-5.8-1.29,2.27-2.72,4.44-4.19,6.58-.38.54-.7,1.05-1.15,1.6a10.86,10.86,0,0,1-9.13,4.17,11.82,11.82,0,0,1-2-.32l-.5-.13-.49-.17c-.34-.11-.63-.23-.93-.36C112.76,221.27,110.38,220.24,108.05,219.05Z"/><path class="cls-21" d="M96.58,212.36c-1.28-.39-2.57-.83-3.84-1.3l-.47-.16-.23-.08-.22-.06a5.73,5.73,0,0,0-.88-.18,4.81,4.81,0,0,0-1.61,0,2.92,2.92,0,0,0-1.29.51,2.36,2.36,0,0,0-.47.42l-.1.12-.1.14-.21.26a20.27,20.27,0,0,1-1.77,2.06,20.34,20.34,0,0,1,1.18-2.44c.12-.2.21-.39.35-.59a2.78,2.78,0,0,1,.5-.53,3.3,3.3,0,0,1,1.46-.63,5.74,5.74,0,0,1,1.89,0,6.36,6.36,0,0,1,1,.26l.26.08.25.1.49.21C94.06,211.15,95.32,211.72,96.58,212.36Z"/><path class="cls-21" d="M86.27,264.75c-1,.92-2,1.81-3,2.69l-.38.32-.18.16-.16.16a5.34,5.34,0,0,0-.6.67,4.83,4.83,0,0,0-.79,1.4,3.06,3.06,0,0,0-.21,1.37,2.15,2.15,0,0,0,.14.62l0,.15.07.15.12.32a19.87,19.87,0,0,1,.9,2.56,20.65,20.65,0,0,1-1.52-2.25,5.66,5.66,0,0,1-.34-.59,2.37,2.37,0,0,1-.21-.7,3.28,3.28,0,0,1,.19-1.58,5.49,5.49,0,0,1,1-1.62,8.81,8.81,0,0,1,.74-.76l.2-.18.21-.17.43-.31C84,266.33,85.09,265.52,86.27,264.75Z"/><path class="cls-7" d="M119.38,426.76l-7.56,12.33,1.26,9.8s6.94,1.51,4.42,3-7.58,1.51-8.21,0-5.68-15.84-4.41-16.6,4.41-2.26,4.41-2.26l4.42-11.32Z"/><g class="cls-32"><path class="cls-33" d="M112.45,442.1l-.63-3s-2.53,0-2.53-2.27.63-5.28-2.52-5.28-4.42,9-4.42,9l3.16,9.81,3.15,3.77h8.84l2.52-4.52Z"/></g><path class="cls-7" d="M159.15,419.47v21.88s14.52,6,13.25,7.54c0,0-18.3,0-18.3-1.51s.63-6.79.63-6.79l-3-19.91Z"/><g class="cls-34"><path class="cls-33" d="M153.47,441.35s2.52-.76,3.16.75,3.78-2.26,3.78-2.26l16.41,6.79-5.68,7.54-23.35-5.28Z"/></g><path class="cls-8" d="M146.53,323.65l-22.72,9.81s-6.31,23.39-5.68,28.67,2.52,33.2,1.26,35.46S112.45,424,112.45,424s8.83,3.77,8.2,3.77,16.41-23.39,17-32.44S139,381.75,139,381.75s10.73,24.89,13.26,41.49l8.83-1.51s-.63-52.06-4.41-68.65A149.59,149.59,0,0,0,146.53,323.65Z"/><g class="cls-35"><path class="cls-36" d="M141.48,390.8,139,381.75l1.27-21.13s1.26,9.05,2.52,9.81,1.26,3.77,0,5.28-1.26,7.55-1.26,7.55,2.52,11.31,0,10.56S141.48,390.8,141.48,390.8Z"/><g class="cls-37"><path class="cls-38" d="M153.94,335.72h-.15a1.15,1.15,0,0,1,0-2.26h.15a1.15,1.15,0,0,1,0,2.26Z"/></g><g class="cls-37"><path class="cls-39" d="M128.48,330.61c-.59,4.13-1.27,8.63-3.94,11.64-2.07,2.32-4.94,3-7.48,1.43-.27-.17,0-.66.24-.49,3.36,2.12,6.79-.27,8.54-3.84,1.32-2.7,1.75-5.86,2.19-8.89.05-.36.5-.21.45.15Z"/></g><g class="cls-37"><path class="cls-39" d="M152.06,333.39c-7-.28-11.5-6.74-15.44-12.93-.18-.29.23-.57.41-.29,3.83,6,8.17,12.38,15,12.65.31,0,.31.58,0,.57Z"/></g><g class="cls-37"><path class="cls-39" d="M150.08,325a67.75,67.75,0,0,1-39.37,12.75c-.3,0-.3-.57,0-.57a67.18,67.18,0,0,0,39.13-12.67c.26-.18.5.31.24.49Z"/></g><g class="cls-37"><path class="cls-39" d="M138.75,331.46a18.51,18.51,0,0,0-.81-3.4.24.24,0,1,1,.46-.15,18.49,18.49,0,0,1,.8,3.4c.05.35-.4.51-.45.15Z"/></g><g class="cls-37"><path class="cls-39" d="M134.61,333.16a26.91,26.91,0,0,0-1.86-4.84c-.15-.31.26-.6.41-.28a27.77,27.77,0,0,1,1.91,5c.09.35-.36.5-.46.15Z"/></g><g class="cls-37"><path class="cls-39" d="M128.9,336a160.19,160.19,0,0,0-2.63,27.61q0,6.8.48,13.58c.36,4.45,1,8.93.7,13.42-.53,7.48-4.15,14.49-7.28,20.81a156.33,156.33,0,0,1-11.73,19.8c-.2.28-.53-.12-.34-.4A154.85,154.85,0,0,0,120,410.59c3.95-8.06,7.49-16,6.91-25.59-.51-8.36-1.34-16.53-1.09-24.94a161.37,161.37,0,0,1,2.59-24.18c.06-.35.52-.2.45.15Z"/></g><g class="cls-37"><path class="cls-39" d="M160.66,399.48c-.15-24.34-4.42-47.15-15-68.14-.15-.31.25-.6.41-.29,10.58,21.07,14.89,44,15,68.43a.24.24,0,1,1-.48,0Z"/></g></g><polygon class="cls-40" points="150.95 424 162.31 424 162.31 419.47 150.95 420.98 150.95 424"/><polygon class="cls-40" points="111 423.29 120.83 430.12 122.73 426.21 112.27 420.69 111 423.29"/><path class="cls-7" d="M129.91,284.77a25.65,25.65,0,0,1-4.62-3c-1.05-1.14-4.72-5.69-4.06-8.41,0,0,4.71,1.79,6.12-1.95,1.85-4.88-7-16.23-9.23-16.87s-7-3.58-11.55.09,2,19.33,6.9,20.07c0,0,5.28,8.72,3.46,11.54,0,0,7.51,3.2,10.34,1.11S129.91,284.77,129.91,284.77Z"/><g class="cls-41"><path class="cls-42" d="M122.28,274.5l-1-1.14s-3.28-.68-4.33-1.82c0,0,2.61,3.4,4.81,3.49S122.28,274.5,122.28,274.5Z"/></g><path class="cls-43" d="M118.91,263.09a1.64,1.64,0,0,0-.87-.49,1.5,1.5,0,0,0-1.05.17,1.74,1.74,0,0,0-.67.81,3,3,0,0,0-.13.49,2.68,2.68,0,0,0,0,.49c.1-.14.18-.27.26-.4l.25-.37a2.31,2.31,0,0,1,.58-.55A2.44,2.44,0,0,1,118.91,263.09Z"/><path class="cls-43" d="M123.2,261a1.1,1.1,0,0,0-.62-.35,1,1,0,0,0-.75.12,1.23,1.23,0,0,0-.47.57,2.25,2.25,0,0,0-.09.35c0,.12,0,.23,0,.35l.37-.55a1.48,1.48,0,0,1,.4-.39A1.72,1.72,0,0,1,123.2,261Z"/><path class="cls-44" d="M122.49,259.17a2.07,2.07,0,0,0-1.19-.65,1.51,1.51,0,0,0-.7,0,1.12,1.12,0,0,0-.59.42l0,.05a2.81,2.81,0,0,0,.66.08c.19,0,.38-.08.57-.09a2.31,2.31,0,0,1,1.19.25Z"/><path class="cls-44" d="M115.24,262.18a2.3,2.3,0,0,1,.32-1.17c.11-.17.26-.3.35-.47a2.6,2.6,0,0,0,.23-.62l0,0a1.13,1.13,0,0,0-.64.33,1.34,1.34,0,0,0-.31.63,2,2,0,0,0,0,1.35Z"/><path class="cls-45" d="M124.37,268.73l-3.89.95a6.71,6.71,0,0,0,2.7,1.2C124.28,270.93,124.37,268.73,124.37,268.73Z"/><path class="cls-9" d="M123.49,333.38s4.86-10.7,5.83-12.64-17.5-25.29-17.5-28.21,2.92-14.58,12.64-13.61,24.31,7.78,22.37,13.61-2,21.4,0,31.12c1.21,6.07-5.15,10.62-10.1,13.19A9.16,9.16,0,0,1,127,336Z"/><g class="cls-46"><path class="cls-47" d="M145,286c-1.1.55-19.22,6.34-22.52,5.37h0s7.13,19.36-3.31,26.5-6-26.93-6-26.93l18.75-7.5Z"/></g><path class="cls-7" d="M176,241c-1.94-1,1,7.78-1.94,9.72s-23.34,19.45-23.34,19.45a170.94,170.94,0,0,0-19.3,7.16c-.59,2.54-.62,6.75,3.82,10.39,8.42-2.84,17.28-6.29,18.4-6.85,1.94-1,26.25-28.2,28.2-30.15S178,242,176,241Z"/><path class="cls-9" d="M131.42,277.33a126.07,126.07,0,0,0-17,8.86c-3.21,4.36.29,5.37,6.12,5.37,2.48,0,8.46-1.75,14.67-3.84C130.8,284.08,130.83,279.87,131.42,277.33Z"/><path class="cls-48" d="M113.77,254.61a2.86,2.86,0,0,0-2.92,2.92c0,2.91,17.5,36,7.78,49.59S87.51,319.76,85.57,310s11.67-7.78,7.78-14.59-6.81-10.69,2.91-14.58,8.75-6.81,4.86-12.65-1-18.47,10.7-16.53a21.28,21.28,0,0,1,5.84-1c2.91,0,3.59,6.62,3.59,6.62S115.71,251.69,113.77,254.61Z"/><path class="cls-2" d="M432.28,420.59A61.72,61.72,0,0,1,425.81,404c-2.83-12.26-14.15-24.53-14.15-24.53-.94-11.32-7.54-45.28-7.54-46.22,0,0-8.49-16-14.16,3.77s11.33,37.74,11.33,43.4,27.35,43.39,27.35,43.39v.05A6.13,6.13,0,0,0,432.28,420.59Z"/><g class="cls-49"><path class="cls-50" d="M405,325.12c-8.06,0-16.62-10.05-16.62-10.05s-3.86,2.7-5.75,16.05c-.89,6.26-3.78,41.5-5.66,50-1.86,8.34-8.27,52.26-8.49,53.73a5.46,5.46,0,0,0,5.38.2c1.15-5.63,3.75-16.43,7.82-21.86,5.67-7.55,3.78-22.64,5.67-27.36s9.43-35.84,17-40.56C414.24,339,406.9,325.12,405,325.12Z"/></g><path class="cls-51" d="M432.28,420.59a6.13,6.13,0,0,1-3.65,3.23l-1.87,4.67s-2.83,1.89-4.72,2.83,4.72,1.89,6.6,0a75,75,0,0,0,5.66-7.55A36.72,36.72,0,0,1,432.28,420.59Z"/><path class="cls-2" d="M403.42,320.48c-8.06,0-16.62-10.05-16.62-10.05s-3.87,2.71-5.76,16.05c-.89,6.26-3.77,41.51-5.66,50s-8.27,52.26-8.48,53.73a5.49,5.49,0,0,0,5.38.21c1.14-5.64,3.75-16.44,7.82-21.87,5.66-7.54,3.77-22.64,5.66-27.36s9.44-35.84,17-40.56C412.69,334.39,405.35,320.48,403.42,320.48Z"/><path class="cls-51" d="M366.9,430.21v0l-7.55,1.89C355.57,435,371.61,434,371.61,434s.22-1.41.67-3.6A5.49,5.49,0,0,1,366.9,430.21Z"/><path class="cls-52" d="M353.31,292.26s20.67-3.65,32.1-6.19c0,0,7.58-8.94,15.3-8.1,5,.53,13,4.71,3.54,8.78S387.53,294,387.53,294l-33.23,1.63s-1.25,4.25-3,4.46-11.12.16-10.11-1.13,6.66-3.15,6.66-3.15-5.78.69-5.92-.46,11.36-3.12,11.36-3.12"/><path class="cls-53" d="M374.82,288s2.69,4.21.58,6.36a3.35,3.35,0,0,1,2.23.93c1.14,1,2.24,1,2.59.6a5.37,5.37,0,0,1,1.07-.74s8.93,3.48,20-2.89,13.16-9.95,11.59-12.68-2.11-6.9-10.1-5.19-16.49,9-18.64,10.17a33.33,33.33,0,0,1-4.6,1.91,1.6,1.6,0,0,0-1.71-.6C376.91,286.25,375.49,286.59,374.82,288Z"/><path class="cls-3" d="M400.22,281.26s4.39-2.28,5.69-3.69,5.82-7,5-10.35c0,0-5.8,2.2-7.54-2.41-2.27-6,8.69-20,11.36-20.76s8.63-4.41,14.23.11-2.44,23.79-8.5,24.71c0,0-6.5,10.73-4.25,14.21,0,0-9.25,3.93-12.74,1.36S400.22,281.26,400.22,281.26Z"/><g class="cls-54"><path class="cls-42" d="M409.62,268.62l1.29-1.4s4-.84,5.33-2.25c0,0-3.22,4.19-5.92,4.3S409.62,268.62,409.62,268.62Z"/></g><path class="cls-4" d="M391.82,326.28c7.35,1.16,12.45,1.78,13.92-2.71.94-2.87,1.24-10.45,7.34-16.62,4.39-4.43,12.73-16.48,8.37-23.75s-13.68-3.52-15.7-3.44,1.81-5.49,1.81-5.49h0c-10.06,2.44-15.43,7-19.74,14.33-6.19,10.49-8.19,33.71-6.43,36.52Z"/><g class="cls-55"><path class="cls-56" d="M374.27,305.39S410,312.75,418.69,292h0l-18-7s-11.33,9-18.82,8S374.27,305.39,374.27,305.39Z"/></g><path class="cls-43" d="M413.77,254.57a2,2,0,0,1,1.07-.6,1.83,1.83,0,0,1,1.3.21,2.09,2.09,0,0,1,.82,1,4.31,4.31,0,0,1,.16.59,4.16,4.16,0,0,1,0,.61,4.07,4.07,0,0,1-.32-.49l-.31-.46a2.63,2.63,0,0,0-.71-.67A2.91,2.91,0,0,0,413.77,254.57Z"/><path class="cls-43" d="M408.49,252a1.37,1.37,0,0,1,1.68-.29,1.58,1.58,0,0,1,.58.71,3.39,3.39,0,0,1,.11.43,3.05,3.05,0,0,1,0,.43c-.16-.25-.3-.47-.45-.68a2.06,2.06,0,0,0-.5-.48A2.1,2.1,0,0,0,408.49,252Z"/><path class="cls-33" d="M409.36,249.74a2.54,2.54,0,0,1,1.47-.79,1.67,1.67,0,0,1,.86,0,1.4,1.4,0,0,1,.72.51l0,.07a3.63,3.63,0,0,1-.81.09,5.81,5.81,0,0,1-.71-.11,2.92,2.92,0,0,0-1.46.31Z"/><path class="cls-33" d="M418.29,253.44a2.9,2.9,0,0,0-.4-1.43c-.13-.21-.32-.36-.43-.58a3.46,3.46,0,0,1-.29-.76l.05,0a1.37,1.37,0,0,1,.78.4,1.73,1.73,0,0,1,.38.78,2.55,2.55,0,0,1,0,1.66Z"/><path class="cls-33" d="M410.39,248.07s-4.37-2.75-2.82-5.46,5.79,0,5.79,0-5.79-5.41-2.31-7.34,10.43,3.48,10.43,3.48-1.16-3.86,1.55-5,10.82,7.73,8.89,13.14c0,0,8.5,3.09.77,12.36s-12.37,9.67-12.37,9.67a9.82,9.82,0,0,1,.77-7,1.69,1.69,0,0,0,2.32.77c1.55-.77,3.48-3.09,3.09-4.25s-5,.39-5,.39-1.93-4.25,0-6.19,0-2.7,0-2.7-7.32.26-9.07-3.74A7.65,7.65,0,0,0,410.39,248.07Z"/><path class="cls-33" d="M420.91,256.85s-3.68,4.32-7.16,3.93-5.32-4-9.42-3c0,0-3.33,3.74-2.56,6.83s12.75,7.73,19.71-6.18C421.48,258.46,421.89,256.4,420.91,256.85Z"/><path class="cls-45" d="M407.05,261.51l4.78,1.17a8.38,8.38,0,0,1-3.32,1.49C407.15,264.22,407.05,261.51,407.05,261.51Z"/><path class="cls-1" d="M344.84,216.07,360,236.46a7.16,7.16,0,0,0,8,2.52l24.07-8.09a7.6,7.6,0,0,1,8.61,11.6L386,263.18a7.16,7.16,0,0,0,.09,8.42L401.18,292a7.59,7.59,0,0,1-8.37,11.77l-24.23-7.6a7.16,7.16,0,0,0-8,2.68l-14.72,20.7a7.59,7.59,0,0,1-13.78-4.33l-.26-25.39a7.16,7.16,0,0,0-5-6.76l-24.23-7.61a7.59,7.59,0,0,1-.15-14.44l24.08-8.09a7.17,7.17,0,0,0,4.87-6.86l-.25-25.39A7.59,7.59,0,0,1,344.84,216.07Z"/><g class="cls-57"><path class="cls-5" d="M342.58,215.11l15.13,20.39a7.16,7.16,0,0,0,8,2.52l24.07-8.09a7.6,7.6,0,0,1,8.61,11.6L383.7,262.22a7.18,7.18,0,0,0,.08,8.42L398.92,291a7.6,7.6,0,0,1-8.38,11.77l-24.23-7.6a7.15,7.15,0,0,0-8,2.68l-14.72,20.69a7.59,7.59,0,0,1-13.78-4.32l-.26-25.39a7.15,7.15,0,0,0-5-6.76l-24.23-7.61a7.59,7.59,0,0,1-.15-14.44L324.26,252a7.17,7.17,0,0,0,4.88-6.86l-.26-25.39A7.6,7.6,0,0,1,342.58,215.11Z"/></g><path class="cls-21" d="M321.73,259.73c2.29-1.26,4.63-2.37,7-3.43.3-.13.6-.26.86-.4l.41-.2.39-.22a10.9,10.9,0,0,0,1.47-1,10.06,10.06,0,0,0,2.28-2.75,9.94,9.94,0,0,0,1.26-3.34,9,9,0,0,0,.18-1.8v-.45l0-.49v-1c0-2.59,0-5.19.16-7.79.51,2.56.85,5.13,1.13,7.71.06.66.16,1.26.18,2a12,12,0,0,1-.09,2.07,11.18,11.18,0,0,1-1.37,3.92,11.37,11.37,0,0,1-2.73,3.13,11.5,11.5,0,0,1-1.76,1.1l-.47.23-.48.2c-.32.13-.63.23-.93.33C326.74,258.33,324.26,259.11,321.73,259.73Z"/><path class="cls-21" d="M308.68,262.16c-1.23.55-2.49,1-3.76,1.53l-.46.19-.22.09-.21.09a6,6,0,0,0-.79.44,4.88,4.88,0,0,0-1.21,1.07,3,3,0,0,0-.64,1.22,2.27,2.27,0,0,0-.08.63v.33l0,.33a20.57,20.57,0,0,1,0,2.72,22.7,22.7,0,0,1-.7-2.63,6.18,6.18,0,0,1-.12-.67,2.49,2.49,0,0,1,0-.72,3.29,3.29,0,0,1,.7-1.43,5.52,5.52,0,0,1,1.45-1.22,7.49,7.49,0,0,1,.94-.47l.25-.1.25-.09c.18-.07.34-.12.51-.17C306,262.89,307.31,262.5,308.68,262.16Z"/><path class="cls-21" d="M335.12,308.55c-.13,1.34-.33,2.68-.55,4,0,.17-.05.34-.07.49l0,.24,0,.23a6.84,6.84,0,0,0,0,.9,5.16,5.16,0,0,0,.32,1.58,3.09,3.09,0,0,0,.74,1.16,2.38,2.38,0,0,0,.51.39l.14.08.15.07.3.15a21.34,21.34,0,0,1,2.35,1.36,20.62,20.62,0,0,1-2.62-.71,4.61,4.61,0,0,1-.65-.23,2.34,2.34,0,0,1-.61-.39,3.38,3.38,0,0,1-.89-1.31,5.71,5.71,0,0,1-.33-1.87,9.51,9.51,0,0,1,.06-1l0-.26.05-.27c0-.19.07-.35.11-.52C334.41,311.26,334.74,309.9,335.12,308.55Z"/><path class="cls-3" d="M353,297.43s24.28-2.32,37.75-4.21c0,0,16.39-13.51,25.26-11.83,5.71,1.08,7.86,10.52-3.5,14.35s-20,6.89-20,6.89l-38.64-1.17s-1.84,4.81-3.87,4.9-12.9-.85-11.6-2.25,8-3,8-3-6.76.27-6.82-1.08S353,297.43,353,297.43"/><path class="cls-4" d="M382.16,294.2s2.55,5.75.33,8.13a3.49,3.49,0,0,1,2.36,1c1.2,1.11,2.36,1.07,2.73.67a5.22,5.22,0,0,1,1.13-.82s9.44,3.88,21.15-3.16,13.87-11,12.21-14-2.24-7.64-10.68-5.76-17.39,10-19.66,11.22a34.87,34.87,0,0,1-4.85,2.12s-.8-1.1-1.81-.68S382.87,292.62,382.16,294.2Z"/><g class="cls-58"><path class="cls-59" d="M255,297.11l1.38,2.79,3.09.45a.87.87,0,0,1,.49,1.49L257.74,304l.53,3.08A.88.88,0,0,1,257,308l-2.76-1.45L251.48,308a.88.88,0,0,1-1.27-.92l.53-3.08-2.24-2.18a.87.87,0,0,1,.49-1.49l3.08-.45,1.39-2.79A.87.87,0,0,1,255,297.11Z"/><path class="cls-60" d="M259.71,300.42a.83.83,0,0,1-.24.41L257.24,303l.52,3.08a.87.87,0,0,1-1.26.92l-2.77-1.45L251,307a.86.86,0,0,1-.75,0v.06a.88.88,0,0,0,1.27.92l2.76-1.45L257,308a.88.88,0,0,0,1.27-.92l-.53-3.08,2.24-2.18A.87.87,0,0,0,259.71,300.42Z"/><path class="cls-61" d="M252.92,299.82c.37-.8.74-1.61,1.12-2.42.08-.18-.18-.33-.26-.15-.38.8-.75,1.61-1.13,2.42-.08.18.18.33.27.15Z"/><path class="cls-61" d="M251.23,303.12l-2-1.82c-.14-.13-.37.07-.23.2l2,1.82c.14.13.37-.07.22-.2Z"/></g><g class="cls-58"><path class="cls-59" d="M239.39,297.11l1.38,2.79,3.09.45a.87.87,0,0,1,.48,1.49L242.11,304l.53,3.08a.88.88,0,0,1-1.27.92l-2.76-1.45L235.84,308a.87.87,0,0,1-1.26-.92l.52-3.08-2.23-2.18a.87.87,0,0,1,.48-1.49l3.09-.45,1.38-2.79A.88.88,0,0,1,239.39,297.11Z"/><path class="cls-60" d="M244.08,300.42a.91.91,0,0,1-.24.41L241.6,303l.53,3.08a.88.88,0,0,1-1.27.92l-2.76-1.45L235.34,307a.86.86,0,0,1-.75,0v.06a.87.87,0,0,0,1.26.92l2.77-1.45,2.76,1.45a.88.88,0,0,0,1.27-.92l-.53-3.08,2.23-2.18A.87.87,0,0,0,244.08,300.42Z"/><path class="cls-61" d="M237.28,299.82c.38-.8.75-1.61,1.13-2.42.08-.18-.18-.33-.27-.15-.37.8-.75,1.61-1.12,2.42-.08.18.18.33.26.15Z"/><path class="cls-61" d="M235.6,303.12l-2-1.82c-.15-.13-.37.07-.23.2l2,1.82c.14.13.37-.07.23-.2Z"/></g><g class="cls-58"><path class="cls-59" d="M223.75,297.11l1.39,2.79,3.08.45a.87.87,0,0,1,.49,1.49L226.47,304l.53,3.08a.88.88,0,0,1-1.27.92L223,306.57,220.21,308a.88.88,0,0,1-1.27-.92l.53-3.08-2.24-2.18a.88.88,0,0,1,.49-1.49l3.09-.45,1.38-2.79A.87.87,0,0,1,223.75,297.11Z"/><path class="cls-60" d="M228.44,300.42a.76.76,0,0,1-.24.41L226,303l.53,3.08a.88.88,0,0,1-1.27.92l-2.76-1.45L219.7,307a.86.86,0,0,1-.75,0v.06a.88.88,0,0,0,1.27.92l2.76-1.45,2.76,1.45a.88.88,0,0,0,1.27-.92l-.53-3.08,2.24-2.18A.87.87,0,0,0,228.44,300.42Z"/><path class="cls-61" d="M221.65,299.82c.37-.8.75-1.61,1.12-2.42.08-.18-.18-.33-.26-.15-.38.8-.75,1.61-1.13,2.42-.08.18.18.33.27.15Z"/><path class="cls-61" d="M220,303.12l-2-1.82c-.14-.13-.37.07-.22.2l2,1.82c.14.13.37-.07.22-.2Z"/></g><g class="cls-58"><path class="cls-59" d="M208.12,297.11l1.38,2.79,3.09.45a.87.87,0,0,1,.48,1.49L210.84,304l.53,3.08a.88.88,0,0,1-1.27.92l-2.76-1.45L204.57,308a.87.87,0,0,1-1.26-.92l.52-3.08-2.23-2.18a.87.87,0,0,1,.48-1.49l3.09-.45,1.38-2.79A.88.88,0,0,1,208.12,297.11Z"/><path class="cls-60" d="M212.81,300.42a.91.91,0,0,1-.24.41L210.33,303l.53,3.08a.88.88,0,0,1-1.27.92l-2.76-1.45L204.07,307a.86.86,0,0,1-.75,0v.06a.87.87,0,0,0,1.26.92l2.77-1.45L210.1,308a.88.88,0,0,0,1.27-.92l-.53-3.08,2.23-2.18A.86.86,0,0,0,212.81,300.42Z"/><path class="cls-61" d="M206,299.82c.38-.8.75-1.61,1.13-2.42.08-.18-.18-.33-.27-.15-.37.8-.74,1.61-1.12,2.42-.08.18.18.33.26.15Z"/><path class="cls-61" d="M204.33,303.12l-2-1.82c-.14-.13-.37.07-.23.2l2,1.82c.15.13.37-.07.23-.2Z"/></g><g class="cls-58"><path class="cls-59" d="M270.66,297.11,272,299.9l3.09.45a.87.87,0,0,1,.48,1.49L273.38,304l.52,3.08a.87.87,0,0,1-1.26.92l-2.77-1.45L267.11,308a.88.88,0,0,1-1.27-.92l.53-3.08-2.23-2.18a.87.87,0,0,1,.48-1.49l3.09-.45,1.38-2.79A.88.88,0,0,1,270.66,297.11Z"/><path class="cls-60" d="M275.35,300.42a.91.91,0,0,1-.24.41L272.87,303l.53,3.08a.88.88,0,0,1-1.27.92l-2.76-1.45L266.61,307a.89.89,0,0,1-.76,0v.06a.88.88,0,0,0,1.27.92l2.76-1.45,2.77,1.45a.87.87,0,0,0,1.26-.92l-.52-3.08,2.23-2.18A.87.87,0,0,0,275.35,300.42Z"/><path class="cls-61" d="M268.55,299.82c.37-.8.75-1.61,1.12-2.42.09-.18-.18-.33-.26-.15-.37.8-.75,1.61-1.12,2.42-.08.18.18.33.26.15Z"/><path class="cls-61" d="M266.87,303.12l-2-1.82c-.15-.13-.37.07-.23.2l2,1.82c.14.13.37-.07.23-.2Z"/></g></g></g></svg>