<svg id="Layer_1" data-name="Layer 1" xmlns="http://www.w3.org/2000/svg" viewBox="0 0 139.76 139.53"><defs><style>.cls-1{fill:#0b4e91;}.cls-2{fill:#8ac2e9;}.cls-3{fill:#050709;}.cls-4{fill:#6798d0;}.cls-5{fill:#5385c3;}.cls-6{fill:#965455;}.cls-7{fill:#eac6bb;}.cls-8{fill:#cfafa6;}.cls-9{fill:#824747;}.cls-10{fill:#85b0d8;}.cls-11{fill:#111820;}.cls-12{fill:#0f161d;}</style></defs><path class="cls-1" d="M420.86,363.65A69.76,69.76,0,1,1,490.91,294,69.69,69.69,0,0,1,420.86,363.65Z" transform="translate(-351.14 -224.12)"/><path class="cls-2" d="M384.76,348.2c-9.28-4.63-15.58-12.35-20.61-21-23.29-40,.4-90.65,46-98.6,27.16-4.73,56.06,9.46,68.91,33.84,13.66,25.91,9.49,56.7-10.5,77.07-2.21,2.25-4.61,4.32-6.93,6.47-1.17,1.08-2.23,1.56-2.8-.53-1.46-1.56-1.49-3.65-2-5.54-2.3-7.77-7.09-11.68-15-12.29-2.38-.18-5.33.57-6.44-2.52s1.2-4.9,3.14-6.74c7.37-7,9.84-16,10.18-25.73.21-6,.11-12,0-17.95-.11-6.71-2.24-12.42-8.38-16-2.62-1.5-3.54-3.82-3.58-6.66s-1.28-4-4.11-2.79c-4.54.56-9.08,1.07-13.51-.59-6.69-1.85-13.14.35-17.59,6.18a27.48,27.48,0,0,0-6,17.1c0,7.83-.1,15.65,0,23.47.14,8.48,2.81,16,9.14,21.95.61.57,1.19,1.17,1.74,1.78,1.57,1.76,3.34,3.55,2.35,6.15s-3.49,2.16-5.59,2.29c-10.33.63-15.53,5.65-16.67,16.14C386.21,345.35,386.46,347.14,384.76,348.2Z" transform="translate(-351.14 -224.12)"/><path class="cls-3" d="M433,248.43c.77-1.29,1.49-2.78,3.4-2.09,1.55.56,1.72,2,1.49,3.34-.77,4.5.87,7,5.08,9.21,4.67,2.44,6.51,7.42,6.56,12.72.08,8.3.21,16.62-.06,24.92-.31,9.79-4.16,18-11.93,24.22-1.48,1.18-2.29,2.46-1.76,4.24.61,2,2.47,1.25,3.82,1.29,12.52.4,18.63,6.48,19.16,19.17-.74,2.35-1.45,4.73-4.61,4.72-1.89-1.42-1.38-3.53-1.49-5.42-.33-5.83-2.81-10-8.74-11.53-4.62-1.23-8.87-1.1-12.31,2.91a4.17,4.17,0,0,1-5,1.18,12,12,0,0,0-9.2-.25c-2.16.8-4.19,0-6.09-1.29-7.66-5.37-14.31-4-19.69,3.89a4,4,0,0,1-1.78,1.67c-1.38,1.71-.6,3.76-.9,5.63-.21,1.32.92,3.36-.93,3.79-1.39.32-2.46-1.3-3.27-2.55a71.12,71.12,0,0,1,.39-7.46c1.34-8.55,9.2-15.7,18.5-14.49,1.31.17,3.21.79,4-1s0-3.12-1.48-4.32c-9.2-7.34-12.52-17.16-12.2-28.63.21-7.31-.11-14.63.12-21.94.35-11,7.44-20.79,17-23.44,2.68-.74,5.76-2.25,8.24.75,1.1,3.9-1.71,4.35-4.36,5-9.55,2.36-14.79,9-14.62,18.58,0,1.62-.52,3.54,2.45,2.58,1.62-.52,3.25.43,4.76,1.08a34.13,34.13,0,0,0,29.78-.63,6.7,6.7,0,0,1,2.38-.66c3.41,1.19,4.61.12,3.61-3.44-.75-2.69-2-5.38-4.58-6.2-7.72-2.47-7.64-8.11-6.57-14.38A4.91,4.91,0,0,1,433,248.43Z" transform="translate(-351.14 -224.12)"/><path class="cls-4" d="M389.86,341.33c3.6-10.52,13.62-12.4,22.87-6.65,4.45,2.77,13.07,2.8,17.7.25,4.8-2.64,8.65-3.73,13.6-2.84,6.63,4,8.69,12.8,5,21.23-18.6,9.15-37.26,8.51-56,.39-2.25-1-3.37-2.38-3.2-4.93S389.86,343.81,389.86,341.33Z" transform="translate(-351.14 -224.12)"/><path class="cls-5" d="M449,353.32a65.38,65.38,0,0,1,0-7.92c.62-5.38-1.27-9.66-5-13.31,5.93,1.17,9.56,5.14,10,11.12.17,2.31.09,4.64.13,7C453,352.08,451.1,352.85,449,353.32Z" transform="translate(-351.14 -224.12)"/><path class="cls-6" d="M433,248.43a1,1,0,0,1,0,.9c-5,5.44-3.59,13,2.93,16.19,4.85,2.4,5.69,4.23,4,8.77-10.86,6.19-22,7-33.37,1.57-2.74-1.31-4.9-1.47-6.95,1.13-3.08-13.17,3.36-23.17,16.41-25.74,2.28-.45,3.1-1.56,3.22-3.61C423.79,249.28,428.46,247.89,433,248.43Z" transform="translate(-351.14 -224.12)"/><path class="cls-7" d="M429,319.39c-13.39,5.47-28.42-4.21-29.86-19.84-.53-5.76-2.85-12.31,2.75-17.32.93-.84,1.43-2.15,3.23-1.31,11.4,5.33,22.8,4.9,34.15-.25.17-.08.52.25.79.39,2.5,12.65,3,24.88-6.75,35.21A19.62,19.62,0,0,1,429,319.39Z" transform="translate(-351.14 -224.12)"/><path class="cls-8" d="M429,319.39c7.22-7.13,11.81-15.31,11-25.91-.31-4.11,0-8.28,0-12.42,4.63,2.77,5,7.1,4.89,12-.15,9-2.38,17-9.5,23C433.62,317.62,431.72,319.29,429,319.39Z" transform="translate(-351.14 -224.12)"/><path class="cls-9" d="M440,274.29c.61-4.38-1.22-7.18-5.57-7.9-3.68-.6-5-3.09-5.35-6.22-.3-2.46.07-5-.11-7.48-.24-3.19,1.62-3.57,4.07-3.36,0,1.65.2,3.31.09,4.95-.26,4,.21,6.72,5.14,7.9,5.43,1.31,7.19,6.43,6.3,14.52C442.54,276.82,441.76,274.55,440,274.29Z" transform="translate(-351.14 -224.12)"/><path class="cls-10" d="M414.53,325.32a27.08,27.08,0,0,0,14.67-.05c1.28-.35,1.94.38,1.72,1.58-.39,2.06-1.77,4.44-3.68,3.8a15.69,15.69,0,0,0-10.95,0c-2,.73-3.23-1.76-3.55-3.83C412.56,325.65,413.21,325,414.53,325.32Z" transform="translate(-351.14 -224.12)"/><path class="cls-11" d="M424.07,344.46c-.16,1.58-.84,2.67-2.46,2.52-1.32-.13-1.88-1.22-1.89-2.47s.52-2.31,1.92-2.39C423.26,342,424,343,424.07,344.46Z" transform="translate(-351.14 -224.12)"/><path class="cls-12" d="M424.05,354.94c-.14,1.5-.88,2.48-2.46,2.37-1.39-.09-1.88-1.16-1.86-2.4s.59-2.31,1.92-2.41C423.23,352.39,423.92,353.45,424.05,354.94Z" transform="translate(-351.14 -224.12)"/></svg>