<svg id="OBJECTS" xmlns="http://www.w3.org/2000/svg" xmlns:xlink="http://www.w3.org/1999/xlink" viewBox="0 0 500 500"><defs><style>.cls-1,.cls-8,.cls-9{fill:none;}.cls-2{font-size:82.73px;fill:#0367bf;font-family:Montserrat-BlackItalic, Montserrat;font-weight:800;font-style:italic;}.cls-3{fill:#c1d6f2;}.cls-4{clip-path:url(#clip-path);}.cls-5{fill:#eba76c;}.cls-6{fill:#c4dff8;}.cls-7{fill:#9ebee6;}.cls-8{stroke:#c1d6f2;stroke-width:6.84px;}.cls-8,.cls-9{stroke-miterlimit:10;}.cls-9{stroke:#2065bf;stroke-width:13.68px;}.cls-10{fill:#57a9f2;}.cls-11{fill:#3a7fd8;}.cls-12{fill:#badcf2;}.cls-13{fill:#2065bf;}.cls-14{fill:#e17d27;}.cls-15{fill:#3c69ba;}.cls-16{fill:#6d9ad8;}.cls-17{fill:#f2a71d;}.cls-18{fill:#d86f13;}.cls-19{fill:#5885c7;}.cls-20{fill:#d29026;}.cls-21{fill:#1e3358;}.cls-22{fill:#6190d5;}.cls-23{fill:#4f4e4e;}</style><clipPath id="clip-path"><rect class="cls-1" width="500" height="500"/></clipPath></defs><title>404</title><text class="cls-2" transform="translate(162.48 124.38)">404</text><path class="cls-3" d="M95.52,176.2H87v8.48H79.62V176.2H71.14v-7.42h8.48v-8.47H87v8.47h8.48Z"/><path class="cls-3" d="M241.14,180.2h-8.48v8.48h-7.42V180.2h-8.47v-7.42h8.47v-8.47h7.42v8.47h8.48Z"/><path class="cls-3" d="M392.85,142.2h-8.47v8.48H377V142.2h-8.48v-7.42H377v-8.47h7.42v8.47h8.47Z"/><path class="cls-3" d="M95.52,314.87H87v8.48H79.62v-8.48H71.14v-7.42h8.48V299H87v8.48h8.48Z"/><path class="cls-3" d="M416.38,299.88c0-1.86-1.22-3.07-3.93-3.07-2.91,0-4.66,2-5.72,4.45l-7.31-4.19a14.07,14.07,0,0,1,13.35-8.53c6,0,12.08,3.71,12.08,10.6,0,7.89-8.47,10.33-8.47,14H407.9C407.9,306.93,416.38,304.54,416.38,299.88Zm-9.28,22.2a5,5,0,1,1,5,5A5.07,5.07,0,0,1,407.1,322.08Z"/><path class="cls-3" d="M132.37,125.21c0-1.85-1.21-3.07-3.92-3.07-2.91,0-4.66,2-5.72,4.45l-7.31-4.19a14.07,14.07,0,0,1,13.35-8.53c6,0,12.08,3.71,12.08,10.6,0,7.9-8.48,10.33-8.48,14H123.9C123.9,132.26,132.37,129.88,132.37,125.21Zm-9.27,22.21a5,5,0,1,1,5,5A5.07,5.07,0,0,1,123.1,147.42Z"/><path class="cls-3" d="M433,112.54c0-1.85-1.22-3.07-3.92-3.07-2.91,0-4.66,2-5.72,4.45l-7.32-4.18a14.1,14.1,0,0,1,13.36-8.54c6,0,12.08,3.71,12.08,10.6,0,7.9-8.48,10.34-8.48,14h-8.48C424.56,119.59,433,117.21,433,112.54Zm-9.27,22.21a5,5,0,1,1,5,5A5.07,5.07,0,0,1,423.77,134.75Z"/><path class="cls-3" d="M441.54,177.71,440.8,182h5.62l-.9,5.83h-5.67l-1.33,7.95h-6l1.32-7.95h-4.87l-1.33,7.95h-6l1.33-7.95h-5.62l1-5.83h5.62l.74-4.24h-5.67l1-5.83h5.67l1.32-7.95h6l-1.32,7.95h4.87l1.33-7.95h6l-1.32,7.95h5.56l-.95,5.83Zm-6,0h-4.88l-.74,4.24h4.88Z"/><path class="cls-3" d="M287.72,155.71,287,160h5.62l-.9,5.83H286l-1.33,7.95h-6l1.33-7.95h-4.88l-1.32,7.95h-6.05l1.33-7.95h-5.62l1-5.83H270l.75-4.24h-5.68l1-5.83h5.67l1.32-7.95h6l-1.32,7.95h4.88l1.32-7.95h6l-1.32,7.95h5.56l-.95,5.83Zm-6,0h-4.87l-.75,4.24h4.88Z"/><path class="cls-3" d="M73.54,361l-.74,4.24h5.62l-.9,5.83H71.85l-1.33,7.95h-6l1.32-7.95H60.93l-1.33,7.95h-6l1.33-7.95H49.27l.95-5.83h5.62l.74-4.24H50.91l1-5.83h5.67l1.32-7.95h6l-1.32,7.95h4.87l1.33-7.95h6l-1.32,7.95h5.56l-1,5.83Zm-6,0H62.62l-.74,4.24h4.88Z"/><path class="cls-3" d="M452.88,361l-.75,4.24h5.62l-.9,5.83h-5.67l-1.33,7.95h-6l1.33-7.95h-4.88l-1.32,7.95h-6l1.32-7.95H428.6l1-5.83h5.62l.74-4.24h-5.67l.95-5.83h5.67l1.33-7.95h6l-1.33,7.95h4.88l1.32-7.95h6l-1.32,7.95h5.56l-.95,5.83Zm-6.05,0H442l-.74,4.24h4.87Z"/><g class="cls-4"><path class="cls-5" d="M348.47,327.55c-.6.89-2.33.77-3.2.61a6.94,6.94,0,0,1-2.87-1.56,89.66,89.66,0,0,1-7.67-6.4c-1.2-1.16-2.71-2.09-3.66-3.44a5.24,5.24,0,0,1-.15-1.83c0-.59.68-.53,1.17-.51,2.74.16,5.17,1.74,7.4,3.19.86.56,1.59,1.26,2.45,1.83a32.57,32.57,0,0,1,3.81,2.78,12.65,12.65,0,0,1,2.37,3,3.18,3.18,0,0,1,.59,1.91C348.64,327.53,348.38,327.78,348.47,327.55Z"/><path class="cls-5" d="M331.7,317.86a3.35,3.35,0,0,1-.95-2.07,56.84,56.84,0,0,1-.94-7.41c-.19-2,.08-4.12-.3-6.17s-1.26-3.78-1.44-5.75a7.92,7.92,0,0,1,.48-3.95.75.75,0,0,1,1.22-.16,2.49,2.49,0,0,1,.41.56,9.94,9.94,0,0,1,.39,1.71c.3,1,.77,2,1,3a6.06,6.06,0,0,0,.06-1.95.19.19,0,0,1,.37-.07,19.35,19.35,0,0,1,.67,2.87c.12,1-.41,2.25-.32,3.24.16,1.73.87,3,1.3,4.69.72,2.8,2,5.8,1.73,8.75-.08.74.11,2-.52,2.54A3.88,3.88,0,0,1,331.7,317.86Z"/><path class="cls-6" d="M351.69,323.25c-.59-.5-1.6-.48-2.37-.73a14.61,14.61,0,0,1-3-1.34c-.49-.3-.95-.63-1.45-.88a10.91,10.91,0,0,1-1.55-.72c-.42-.29-.71-.73-1.19-.4s-.75.76-1.16,1.1a6.44,6.44,0,0,0-1.85,2.17c-.29.62-.35,1.28-.58,1.9.55.34,1,.83,1.55,1.17a12.91,12.91,0,0,1,2.1,1.42,9.67,9.67,0,0,1,1.32,1.55,3.72,3.72,0,0,1,.48,2.81c-.11,1.77-.61,3.55-.61,5.33.3-.2.56-.52.87-.73a10.64,10.64,0,0,0,1.53-.91c.88-.83.94-2.31,1.2-3.42a10.85,10.85,0,0,1,2.44-5.19,9.73,9.73,0,0,0,1.49-2,11.21,11.21,0,0,1,.75-1.21C351.6,323.34,351.52,323.51,351.69,323.25Z"/><path class="cls-5" d="M134.69,290.41c0-.24.07-.48.1-.71a28.74,28.74,0,0,1,1.26-5.73c.32-.82.74-1.61,1-2.45a3.87,3.87,0,0,0,0-2.6,5.57,5.57,0,0,0-1.07,2.64,44.58,44.58,0,0,1,.37-6.22.54.54,0,0,0-.53.05,7.34,7.34,0,0,0-2.21,1.66,3.37,3.37,0,0,0-.72,1.11,3.77,3.77,0,0,0-.15,1.42c.08,1.33.66,2.85.22,4.11a9,9,0,0,1-.69,2c-.79,1.52-1.56,3.05-2.33,4.57-.87,1.72-2.9,5.78-2,7.81a2.15,2.15,0,0,0,2.46,1.5c1.23-.17,1.86-1.25,2.41-2.37A26.85,26.85,0,0,0,134.69,290.41Z"/><path class="cls-5" d="M129.15,319.21a6.76,6.76,0,0,0,.63-1.8c1.5-6,2.66-12.23,2.29-18.52a5.16,5.16,0,0,0-.41-2,2.32,2.32,0,0,0-1.64-1.31,2.1,2.1,0,0,0-1.88.75,4.89,4.89,0,0,0-.89,1.78,54.61,54.61,0,0,0-3,16.88,6.59,6.59,0,0,0,.87,4,3.42,3.42,0,0,0,2.2,1.47A2.11,2.11,0,0,0,129.15,319.21Z"/><path class="cls-7" d="M130.35,318.38a12,12,0,0,0,.85-2.25c.18-.6.36-1.21.55-1.82s.33-1.1.45-1.66.18-1.11.25-1.67c.11-1,.23-1.92.34-2.88a16,16,0,0,0-10.28-.33,33.48,33.48,0,0,0,0,4.59,13,13,0,0,0,1,4.36,8,8,0,0,0,3.1,3.4C128.05,320.92,129.69,319.58,130.35,318.38Z"/><path class="cls-8" d="M-101.54,402.24c21.16-2.27,98.19,9.63,120.44,9.12,53.73-1.21,99.67-15.59,99.67-15.59"/><path class="cls-9" d="M67.45,241.69c-46.84,0-78.83-29.7-124-33.13s-114.25,49.13-175.95,57.13S-381,213.06-441,213.06"/><path class="cls-10" d="M161.35,243.48,164.57,184h-27.2c-16.29,0-23.64,29.57-39.85,38.21-13.48,7.19-25.28,7.34-32.14,7.34S58,242.12,58,242.12s.5,12.59,7.35,12.59,18.66.15,32.14,7.34c16.21,8.64,23.56,38.2,39.85,38.2h27.2l-3.45-56.77Z"/><path class="cls-11" d="M196.28,242.12c0-20.37-2.89-38.69-7.5-51.46V172.28H173.14c-12.78,0-23.13,31.27-23.13,69.84S160.36,312,173.14,312h15.64V293.58C193.39,280.82,196.28,262.49,196.28,242.12Z"/><ellipse class="cls-12" cx="187.71" cy="242.12" rx="23.14" ry="69.84"/><path class="cls-13" d="M190.71,216.2c0,5-1.34,9.05-3,9.05s-3-4.05-3-9.05,1.34-9,3-9S190.71,211.2,190.71,216.2Z"/><rect class="cls-13" x="187.71" y="207.15" width="49.49" height="18.11"/><circle class="cls-13" cx="238.7" cy="216.2" r="9.05"/><path class="cls-13" d="M190.71,268.05c0,5-1.34,9.05-3,9.05s-3-4.05-3-9.05,1.34-9.06,3-9.06S190.71,263.05,190.71,268.05Z"/><rect class="cls-13" x="187.71" y="258.99" width="49.49" height="18.11"/><circle class="cls-13" cx="238.7" cy="268.05" r="9.05"/><path class="cls-8" d="M385.88,402.24c21.17-2.27,78.12,9.09,100.38,9.12,49,.08,124.23-22.36,124.23-22.36"/><path class="cls-9" d="M429.73,241.69c46.84,0,91.78,29.78,136.91,26.36s125.11-43.78,186.81-35.78,115.69,34.15,184.73-19.21"/><path class="cls-10" d="M431.8,229.54c-6.86,0-18.65-.15-32.14-7.34C383.45,213.56,376.1,184,359.82,184H332.61l3.66,56.63h-.43l-3.23,59.64h27.21c16.28,0,23.63-29.56,39.84-38.2,13.49-7.19,25.28-7.34,32.14-7.34s7.35-12.59,7.35-12.59S438.65,229.54,431.8,229.54Z"/><path class="cls-11" d="M300.9,242.12c0-20.37,2.89-38.69,7.5-51.46V172.28H324c12.78,0,23.14,31.27,23.14,69.84S336.82,312,324,312H308.4V293.58C303.79,280.82,300.9,262.49,300.9,242.12Z"/><ellipse class="cls-10" cx="309.47" cy="242.12" rx="23.14" ry="69.84"/><path class="cls-13" d="M306.47,216.2c0,5,1.34,9.05,3,9.05s3-4.05,3-9.05-1.34-9-3-9S306.47,211.2,306.47,216.2Z"/><path class="cls-13" d="M306.47,268.05c0,5,1.34,9.05,3,9.05s3-4.05,3-9.05-1.34-9.06-3-9.06S306.47,263.05,306.47,268.05Z"/><path class="cls-3" d="M182.87,396.11c0,2.67-17.86,4.83-39.88,4.83s-39.88-2.16-39.88-4.83S121,391.29,143,391.29,182.87,393.45,182.87,396.11Z"/><path class="cls-5" d="M163.74,296.38l.54-.48a28.55,28.55,0,0,0,4.06-4.24c.5-.73.92-1.51,1.48-2.2A3.84,3.84,0,0,1,172,288a5.64,5.64,0,0,1-1.6,2.36,44.36,44.36,0,0,0,5-3.77.53.53,0,0,1,.25.47,7.29,7.29,0,0,1-.14,2.75,2.92,2.92,0,0,1-1.62,2.13c-1.15.69-2.74,1-3.54,2.11a9.25,9.25,0,0,0-1.25,1.69c-.83,1.49-1.67,3-2.5,4.48-.94,1.67-3.18,5.62-5.37,6a2.16,2.16,0,0,1-2.63-1.2c-.54-1.12,0-2.25.63-3.33A26.78,26.78,0,0,1,163.74,296.38Z"/><path class="cls-5" d="M162.17,305.53c0,.09-.07.18-.11.27a4.94,4.94,0,0,1-1.32,1.49,57,57,0,0,1-9.65,6.79,46.22,46.22,0,0,1-4.85,2.36,6.54,6.54,0,0,1-4,.69,3.4,3.4,0,0,1-2.2-1.48,2.1,2.1,0,0,1,.43-2.16,6.88,6.88,0,0,1,1.43-1.26c5-3.66,10.33-7.07,16.29-9.1a5.15,5.15,0,0,1,2-.38,2.31,2.31,0,0,1,1.83,1A2.06,2.06,0,0,1,162.17,305.53Z"/><path class="cls-5" d="M140.81,305.68c-.32.7-.79,1.44-1.55,1.59a6.67,6.67,0,0,1-1.59-.1l-.5-.08a5.15,5.15,0,0,1-1.55-.42,7.47,7.47,0,0,1-1.35-1.85l-.08-.17c-.05-.11-.13-.25-.21-.4a3.5,3.5,0,0,1-.55-1.29c0-2.36,1-3,1.87-4.13a7.47,7.47,0,0,1,3.52-2.45,4.16,4.16,0,0,1,2.41-.24c.69.2.6.71.64,1.33A17.49,17.49,0,0,1,140.81,305.68Z"/><path class="cls-5" d="M138.71,311a7.31,7.31,0,0,1-6.89,2.09,11.82,11.82,0,0,0-2.1-.48,4.43,4.43,0,0,0,1.72-3,8.69,8.69,0,0,0-.12-3.93c-.07-.26-.66-1.35-.39-1.55s1.51.38,1.88.37a3,3,0,0,0,1.17-.29l.18-.08h0a11.87,11.87,0,0,1,1.27-.55.45.45,0,0,1,.28,0,.53.53,0,0,1,.2.13l1.69,1.53a11,11,0,0,0-.42,1.71.59.59,0,0,0,0,.13,9.32,9.32,0,0,0-.12,1.67,3.85,3.85,0,0,0,0,.48,2.4,2.4,0,0,0,.13.59A1.88,1.88,0,0,0,138.71,311Z"/><path class="cls-14" d="M137.17,307.09a9.32,9.32,0,0,0-.12,1.67,3.85,3.85,0,0,0,0,.48,3.31,3.31,0,0,1-.43-.38c-.25-.23-.48-.46-.72-.71a8.12,8.12,0,0,1-1.47-2.69,5.11,5.11,0,0,1-.26-.81,1.94,1.94,0,0,1,0-.48h0a24.38,24.38,0,0,0,1.81,2,7,7,0,0,0,1.21.79l.13.06a3.68,3.68,0,0,0,.35.15Z"/><path class="cls-15" d="M135.33,306.41a7.9,7.9,0,0,0,1.25-1.27c.84-1.15,1.08-2.64,1.79-3.88a5.87,5.87,0,0,1,1.88-2,16,16,0,0,0,1.95-1.21,4.19,4.19,0,0,0,1.27-3.15,8.51,8.51,0,0,0-.84-3.38,2.8,2.8,0,0,1-1.79.75c-1.81.25-3.66.08-5.48.25a7.21,7.21,0,0,0-4.9,2.14c-1.26,1.47-1.48,3.55-1.51,5.49a13,13,0,0,0,.19,2.92,7.94,7.94,0,0,0,1.61,3.42C132.09,308.14,133.87,307.62,135.33,306.41Z"/><path class="cls-5" d="M138.81,300.83a1.47,1.47,0,0,0-.59-.57.7.7,0,0,0-.78.09.75.75,0,0,0-.18.6,1.88,1.88,0,0,0,.19.61,7.39,7.39,0,0,0,1.06,2c.09.11.21.21.33.17a.31.31,0,0,0,.17-.15c0-.17.24-.49.29-.68a2.39,2.39,0,0,0,.07-.8s0,.05,0,.05C139.07,301.82,139,301.21,138.81,300.83Z"/><path class="cls-16" d="M128.22,394.49a3.52,3.52,0,0,0,0,1.55,2.43,2.43,0,0,0,2.54,1.42,6.76,6.76,0,0,0,2.87-1.19,26.09,26.09,0,0,0,4.18-3,4.83,4.83,0,0,0,1.18-1.52,2.1,2.1,0,0,0,0-1.86,2.36,2.36,0,0,0-2.66-.83,15.48,15.48,0,0,0-2.71,1.26c-1.24.57-2,1-3.23,1.5A2.72,2.72,0,0,0,128.22,394.49Z"/><path class="cls-17" d="M126.55,346.24a42.59,42.59,0,0,0,.79,9.67q.73,5.05,1.14,10.16a17.35,17.35,0,0,1,.05,3.14c-.18,1.69-.82,3.29-1.16,5a28.56,28.56,0,0,0,0,8.61l.57,5.69a25.93,25.93,0,0,0,.91,5.34,2.64,2.64,0,0,0,3.07-.61,73.68,73.68,0,0,1,2.4-14.76c.41-1.51.86-3,1.12-4.55a48.87,48.87,0,0,0,.46-5.27c.45-6.73,2-13.43,1.34-20.15a63.21,63.21,0,0,0-1.32-7.7,1.23,1.23,0,0,0-.27-.64,1.24,1.24,0,0,0-.73-.28l-4.14-.63c-.83-.13-1.94-.53-2.6.18s-.79,2.25-1,3.14A24.56,24.56,0,0,0,126.55,346.24Z"/><path class="cls-16" d="M141.94,397.23a4,4,0,0,0,0,1.64,2.6,2.6,0,0,0,2.67,1.64,7.54,7.54,0,0,0,3.16-1.11c1.55-.82,3.11-1.65,4.59-2.6a5.53,5.53,0,0,0,2.16-2.13,2.15,2.15,0,0,0-.62-2.73c-1-.56-2.15,0-3.19.41a19.69,19.69,0,0,1-3.48.87c-1.19.23-3.24.21-4.28.81S142.11,396.23,141.94,397.23Z"/><path class="cls-17" d="M134.59,352.23c.68,1,1.5,1.94,2.14,3a21.06,21.06,0,0,1,1.92,4.62c1.41,4.36,2.84,8.79,2.92,13.37.05,3.21-.57,6.39-.65,9.6a57,57,0,0,0,.31,6.39q.27,3.27.56,6.54a8.9,8.9,0,0,0,5.15-1.08,71.08,71.08,0,0,1,1.21-16.13c.45-2.57,1-5.13,1.21-7.73a68.08,68.08,0,0,0-.76-14.32c-.73-5.9-1.47-11.85-3.53-17.43.14.38-9.9,1.35-10.77,1.44-3.2.32-2.33,4.18-1.85,6.5A15,15,0,0,0,134.59,352.23Z"/><path class="cls-18" d="M132.3,365.84a23.42,23.42,0,0,1,.84,3.27,18.07,18.07,0,0,1,0,3.89c-.13,1.47-.26,2.94-.38,4.41-.33,3.8-.62,7.61-1.23,11.37-.25,1.51.27,2.73.43,4.43A122.38,122.38,0,0,0,135,379a128.48,128.48,0,0,0,1.62-16.85c.09-1.63.18-3.26.26-4.89a4.31,4.31,0,0,0-.33-2.42,5.06,5.06,0,0,0-1.87-1.58c-1.8-1.13-3-2.75-4.54-4.07-.57.75-.05,2.71,0,3.61.12,1.47.25,2.94.43,4.41A52.86,52.86,0,0,0,132.3,365.84Z"/><path class="cls-7" d="M145.63,329.15a27.57,27.57,0,0,0,.26-3,19.33,19.33,0,0,0-1.07-5.35l-2.13-7a13.13,13.13,0,0,0-1-2.51,7.55,7.55,0,0,1-3.44-.22l.16.11a8.08,8.08,0,0,1-5.57,1.88h0c-.22-.11-.59-.07-.87-.2a5,5,0,0,1-.72-.39c-.34-.21-.75-.69-.57-1.13a3,3,0,0,1-1.89.66,2.86,2.86,0,0,0-1.69.46,4.43,4.43,0,0,0-1.35,2.65s0,.09,0,.14a6.93,6.93,0,0,0-.09,2.65,35.45,35.45,0,0,0,.85,5.51c.28,1.13.65,2.24.86,3.39.85,4.62-1.05,9.43-.16,14.05.56-.05,1,.39,1.47.74a9,9,0,0,0,5.39,1.65c1.91.05,3.81-.24,5.72-.29,2.18-.05,4.61.12,6.26-1.31A53.9,53.9,0,0,1,145.63,329.15Z"/><path class="cls-19" d="M141.45,312.84a1.45,1.45,0,0,0-1.81.56,3.74,3.74,0,0,0-.47,2c-.08,4.18,1.16,8.27,1.5,12.43a8.05,8.05,0,0,1-.12,2.64c-.21.83-.65,1.58-.92,2.39a10,10,0,0,0-.11,5,49,49,0,0,1,.88,5,20.92,20.92,0,0,0,6.06-1.26.49.49,0,0,0,.31-.21.58.58,0,0,0,0-.39,45.23,45.23,0,0,1-.49-12,20.69,20.69,0,0,0,.07-3.05,18.53,18.53,0,0,0-.48-2.76c-.5-2.21-1-4.52-2.54-6.22a19.49,19.49,0,0,1-1.68-1.84,2.3,2.3,0,0,1-.29-2.34l.56.85"/><path class="cls-7" d="M138.93,313.26a10.87,10.87,0,0,1,1.64-1.75l1.39-1.3c.42-.39.84-.78,1.3-1.13s.92-.65,1.39-1l2.43-1.58a16,16,0,0,1,4.82,9.09,31.93,31.93,0,0,1-4.13,2,13,13,0,0,1-4.35,1.05,7.92,7.92,0,0,1-4.42-1.29C137.65,316.44,138.14,314.38,138.93,313.26Z"/><path class="cls-19" d="M137.29,309.29c.09.1,0,.06,0,0Z"/><path class="cls-3" d="M395.12,402.24c0,2.67-17.85,4.83-39.87,4.83s-39.88-2.16-39.88-4.83,17.85-4.82,39.88-4.82S395.12,399.58,395.12,402.24Z"/><path class="cls-20" d="M345,322.62a3.3,3.3,0,0,0,1.36.19,11.61,11.61,0,0,0,2.69-.29,15.44,15.44,0,0,0,3.92-2c.39-.23.75-.5,1.14-.72a3,3,0,0,0,.64-.34c-.33-.16-.74,0-1.1-.22a4.08,4.08,0,0,1-1.94-2.54c-.12-.39-.24-.8-.35-1.22s-.13-.56-.18-.84a2.86,2.86,0,0,1-.06-.46,4.06,4.06,0,0,1,.12-1.49l.14-.19c-.19,0-.38-.23-.57-.24s-.59.36-.79.53a4.33,4.33,0,0,1-1.72,1.08,6.84,6.84,0,0,1-2.86.36A4.57,4.57,0,0,1,346,316a1.29,1.29,0,0,0,0,.19,7.8,7.8,0,0,1,.21,1.73v.05a8.06,8.06,0,0,1-.27,1.76A13.27,13.27,0,0,1,345,322.62Z"/><path class="cls-5" d="M343.16,307a19.07,19.07,0,0,0-.53,2,8.86,8.86,0,0,0,.25,3.08,12.23,12.23,0,0,0,3.48,5.29c2.31,2,4.51-1.83,5.08-3.76.48-1.64.89-3.9,0-5.44a5.83,5.83,0,0,0-3.29-2.89,4.83,4.83,0,0,0-3.32.4C344.19,306,343.66,307.11,343.16,307Z"/><path class="cls-21" d="M350.62,309.81c-1.5-2-3.73-1.26-4.61-1.38a3.45,3.45,0,0,1-2.95-3.21,7.25,7.25,0,0,1,.05-2.75,4.3,4.3,0,0,0,2.05.4,14,14,0,0,1,2.42-.56,5.89,5.89,0,0,1,4.69,1.6,9.31,9.31,0,0,1,2.13,6.29c0,.67-1.83,6.35-3,5.53-.44-.3-.21-2.73-.27-3.29A10.11,10.11,0,0,0,350.62,309.81Z"/><path class="cls-21" d="M344,305c-1.49-.11-2.42,1.91-2.56,3.29a9.08,9.08,0,0,0,.82,3.9,10.55,10.55,0,0,0,.88,1.86c.12.19.73,1.31,1,1.28.54-.06-.26-1.57-.36-1.81a10.13,10.13,0,0,1-.66-2.57,6.83,6.83,0,0,1,.44-3.82C344,306.24,344.32,305.86,344,305Z"/><path class="cls-5" d="M350.64,310.75c.17-.47.17-.86.55-1.19s.6-.34.87,0c.56.66-.18,1.56-.49,2.13-.16.31-.43.6-.57.9a10.64,10.64,0,0,1-.17-1.11C350.79,311.27,350.74,310.72,350.64,310.75Z"/><path class="cls-22" d="M358.85,394.82c.39.76-.06,2.14.08,3a5.38,5.38,0,0,0,1.28,2.27c.76,1.06,3,3,2.31,4.48-.85,1.85-3.12,1.07-4.31.18s-1.6-2.5-2.55-3.66a2.93,2.93,0,0,1-.58-2.87,22.58,22.58,0,0,0,.27-3.43,14.89,14.89,0,0,1,2.3.15C358,395,359,395.06,358.85,394.82Z"/><path class="cls-22" d="M348.62,394.66a32.63,32.63,0,0,0,0,3.28c.17.9,1,1.95.76,2.95s-1.54,1-2.38,1.3a4,4,0,0,0-2,1.58,3.78,3.78,0,0,1-5.34.4,1.8,1.8,0,0,1-.09-2.5c.74-.63,1.82-.59,2.65-1.06a6,6,0,0,0,3.18-5.94,13.93,13.93,0,0,0,3.15.13C348.53,394.92,348.49,395,348.62,394.66Z"/><path class="cls-17" d="M356.79,343.8c.93.41,1.43,2.81,1.81,3.76a19.4,19.4,0,0,1,1.22,4.63c.61,4.39,0,8.75-.48,13.1-.18,1.73-.51,3.45-.64,5.19a14,14,0,0,0,1,5.73,16.6,16.6,0,0,1,.87,7c-.27,2-.08,2.19-.29,4.19s-.39,3.74-.48,5.59c0,.71-.11,1.39-.08,2.1s-.17,1.46-.17,2.18a.24.24,0,0,1-.24.24,19.5,19.5,0,0,1-5-.44.16.16,0,0,1-.11-.13c-.38-3.29-1-6.57-1.67-9.82-1-5-2-10.1-2.95-15.14-.92-4.72-1.85-9.53-2.46-14.31a55.18,55.18,0,0,1-.43-6.8c0-1.11,0-2.2.07-3.3,0-.47-.11-1.44.29-1.72s2.26-.14,2.88-.2a16.81,16.81,0,0,0,3.22-.48c1.32-.35,2.72-.77,4-1.2C356.82,344,356.48,344.09,356.79,343.8Z"/><path class="cls-23" d="M350.41,345.88h.15C350.5,345.79,350.45,345.8,350.41,345.88Z"/><path class="cls-17" d="M339.06,360.17a69.54,69.54,0,0,0,2,14.57c1.05,4.9,1.91,9.77,2.62,14.73.26,1.88.37,3.82.74,5.65a5.21,5.21,0,0,0,.32,1.4c.34.51,1.06.32,1.75.32a17.46,17.46,0,0,0,1.9.06c.79-.1.87-.5,1-1.31.45-3.06.49-5.42.64-7.83a37.33,37.33,0,0,0,.17-5.58c0-.13,0-.25,0-.38-.35-3.13-.81-6.22-1.23-9.33a18.67,18.67,0,0,1-.06-3.81c.11-1.55.33-3.1.44-4.66.43-5.82-.2-11.66.94-17.41a3,3,0,0,1,.19-.71c-3.09,0-7.6,1.88-10.32-.29.06,2.48-.67,4.8-.8,7.24S339.06,357.69,339.06,360.17Z"/><path class="cls-6" d="M339.54,345.79c.08-2.48.32-5,.32-7.44s0-4.75.17-7.13a15.69,15.69,0,0,0,0-3.14,22.6,22.6,0,0,1-.26-3.18c0-1-.08-3.06.95-3.53.79-.37,1.63-.69,2.41-1.07a11,11,0,0,1,3-1.33,2.44,2.44,0,0,0,.05.51l0,0c.08,1.15,1.17,1.6,2.18,1.75a4,4,0,0,0,3.59-1.13,3.28,3.28,0,0,0,.93-1.53,4.38,4.38,0,0,0,1.84.4,4.11,4.11,0,0,0,1,.35c.61.23,1.24.41,1.86.63a3.29,3.29,0,0,0,1.75.78c.42.23.82.48,1.21.74a5.33,5.33,0,0,1,.19.74c.3,1.59.51,3.08-.4,4.46-.4.6-2.46,4-2.54,4.23a8.89,8.89,0,0,0,0,1.93v2.6a57.38,57.38,0,0,0,1,8.36c.16,1,.34,2,.56,3,0,.17.08.34.11.52a6.15,6.15,0,0,1,.34,2.19,4.42,4.42,0,0,0-1.06.21c-1.36.31-2.65.94-4,1.13a52.63,52.63,0,0,1-6.88.43c-2.52,0-5.59.65-7.8-.92-.49-.35-.33-.88-.33-1.49C339.65,347.89,339.5,346.85,339.54,345.79Z"/><path class="cls-5" d="M355.7,325.24c.81.72,2.49.11,3.31-.3a7.74,7.74,0,0,0,2.46-2.37,99.85,99.85,0,0,0,6.07-8.59c.91-1.51,2.18-2.86,2.8-4.48a5.31,5.31,0,0,0-.28-1.87c-.14-.59-.79-.34-1.27-.18-2.68.94-4.69,3.22-6.56,5.31-.71.8-1.27,1.71-2,2.52a35,35,0,0,0-3.1,3.87,13.56,13.56,0,0,0-1.64,3.64,3.48,3.48,0,0,0-.13,2.09C355.54,325.28,355.85,325.45,355.7,325.24Z"/><path class="cls-5" d="M369.69,310.1a3.34,3.34,0,0,0,1-2.05,55.19,55.19,0,0,0,1.07-7.4c.23-2,0-4.12.42-6.16s1.32-3.76,1.54-5.72a7.91,7.91,0,0,0-.42-4,.74.74,0,0,0-1.21-.19,3.36,3.36,0,0,0-.43.56,11.74,11.74,0,0,0-.42,1.7c-.31,1-.79,2-1,3a6,6,0,0,1,0-2,.19.19,0,0,0-.37-.07,18.3,18.3,0,0,0-.72,2.85c-.14,1,.37,2.26.26,3.24-.19,1.74-.92,3-1.38,4.68-.77,2.78-2.13,5.76-1.88,8.71.06.74-.15,2,.47,2.55A3.91,3.91,0,0,0,369.69,310.1Z"/><path class="cls-23" d="M338.77,332.58l-.07-.08C338.67,332.57,338.7,332.6,338.77,332.58Z"/><path class="cls-18" d="M345.93,361a30.12,30.12,0,0,0,1.44,7.46,20.22,20.22,0,0,1,1.07,5.76c0,.84-.11,1.65-.11,2.49a15.69,15.69,0,0,0,.31,2.9,13.8,13.8,0,0,0,.78,2.59,8,8,0,0,0,.72,1.7c0-.56,0-1.13,0-1.7,0-.13,0-.25,0-.38-.35-3.13-.81-6.22-1.23-9.33a18.67,18.67,0,0,1-.06-3.81,24.78,24.78,0,0,1-.51-3.2c-.11-1.08-.34-2.15-.38-3.24a11.19,11.19,0,0,0-.41-3.48c-.33-.77-1.31-1.12-1.92-1.6A26.16,26.16,0,0,0,345.93,361Z"/><path class="cls-6" d="M365.57,316.82a12.24,12.24,0,0,0-1.18-1.21l-1.33-1.25a3.76,3.76,0,0,0-.82-.6c-.33-.19-.91-.3-1.12-.6-.23.16-.78.75-1.18,1.08a17.41,17.41,0,0,0-1.79,1.53,17.32,17.32,0,0,1-2.11,1.82,7.15,7.15,0,0,1-3.08,1.5c-.17.35-.33.7-.51,1.05a4.29,4.29,0,0,1-.65.91v.08a13,13,0,0,1-.15,1.64,3,3,0,0,0-.1,1.66,9,9,0,0,0,2.34,3.07,23.82,23.82,0,0,1,2.78,3.54c.12.18.23.38.34.57a5.15,5.15,0,0,1,.38-1.38,10,10,0,0,1,2.63-3.36,1.2,1.2,0,0,1,.32-.16c.4-.64.81-1.27,1.22-1.91.71-1.12,1.11-2.3,1.71-3.44.38-.74.9-1.36,1.32-2.09a14.21,14.21,0,0,1,.9-1.57C365.78,317.3,365.91,317.26,365.57,316.82Z"/></g></svg>