<svg id="Layer_1" data-name="Layer 1" xmlns="http://www.w3.org/2000/svg" viewBox="0 0 1395.75 1396.28"><defs><style>.cls-1{fill:#f5f5f5;}.cls-2{fill:#e0e0e0;}.cls-15,.cls-3{fill:#455a64;}.cls-4{fill:#27debf;}.cls-5{fill:#a1a1ff;}.cls-6{fill:#2f2fa8;}.cls-7{fill:#263238;}.cls-8{fill:#37474f;}.cls-9{fill:#3e3ece;}.cls-10,.cls-16,.cls-18{fill:#fff;}.cls-10{opacity:0.9;}.cls-10,.cls-15,.cls-18,.cls-19,.cls-22,.cls-26{isolation:isolate;}.cls-11{opacity:0.4;}.cls-12{fill:#2839dd;}.cls-13{fill:#f0f0f0;}.cls-14{fill:#0f063a;}.cls-15,.cls-17{opacity:0.5;}.cls-18{font-size:75.35px;font-family:Montserrat-SemiBold, Montserrat;font-weight:600;}.cls-19,.cls-29{fill:#4440f4;}.cls-19,.cls-30{opacity:0.1;}.cls-20{fill:#ffa8a7;}.cls-21{fill:#1e12b5;}.cls-22{opacity:0.3;}.cls-23{fill:#f28f8f;}.cls-24{fill:#0a0530;}.cls-25{fill:#ffbda7;}.cls-26{opacity:0.2;}.cls-27{fill:#e6e6e6;}.cls-28{fill:#f79776;}.cls-31{fill:#914f4e;}.cls-32{fill:#783736;}</style></defs><g id="Layer_2" data-name="Layer 2"><g id="Layer_1-2" data-name="Layer 1-2"><g id="Floor"><ellipse id="Floor-2" class="cls-1" cx="697.88" cy="993.37" rx="697.88" ry="402.91"/></g><g id="Shadows"><ellipse id="Shadow" class="cls-2" cx="817.33" cy="1140.82" rx="128.32" ry="74.08"/><ellipse id="Shadow-2" class="cls-2" cx="1151.15" cy="1096.94" rx="128.32" ry="74.08"/><ellipse id="Shadow-3" class="cls-2" cx="449.27" cy="1251.9" rx="128.32" ry="74.08"/></g><g id="Window"><path class="cls-3" d="M242.06,1111.18a15.06,15.06,0,0,1-6.57-11.88V453.09a15.51,15.51,0,0,1,7-12.13L1002.73,2a13.12,13.12,0,0,1,20.1,11.59V659.86a15.48,15.48,0,0,1-7,12.12l-760.24,439A15,15,0,0,1,242.06,1111.18Z" transform="translate(0 0)"/><path class="cls-4" d="M254.28,1111.52H254a2.71,2.71,0,0,1-.68.28h-.53a3.18,3.18,0,0,1-1,.21,2.36,2.36,0,0,1-.65,0l-1.06.16a13.66,13.66,0,0,1-8.06-1.4,14.89,14.89,0,0,1-6.54-11.84v-563l13.15,7.6v563.36c0,3.1,1.58,5,3.87,5a2.42,2.42,0,0,0,.93,0h0A3.52,3.52,0,0,0,254.28,1111.52Z" transform="translate(0 0)"/><path class="cls-5" d="M254.28,1111.52H254a2.71,2.71,0,0,1-.68.28h-.53a3.18,3.18,0,0,1-1,.21,2.36,2.36,0,0,1-.65,0l-1.06.16a13.66,13.66,0,0,1-8.06-1.4,14.89,14.89,0,0,1-6.54-11.84v-563l13.15,7.6v563.36c0,3.1,1.58,5,3.87,5a2.42,2.42,0,0,0,.93,0h0A3.52,3.52,0,0,0,254.28,1111.52Z" transform="translate(0 0)"/><polygon class="cls-4" points="248.61 543.51 235.46 535.91 235.46 661.04 248.61 668.7 248.61 543.51"/><polygon class="cls-6" points="248.61 543.51 235.46 535.91 235.46 661.04 248.61 668.7 248.61 543.51"/><path class="cls-7" d="M250.62,453.77a14.54,14.54,0,0,0-2,6.88v82.86l-13.15-7.6V452.19a14.53,14.53,0,0,1,2-6.21Z" transform="translate(0 0)"/><path class="cls-8" d="M1022.83,13.65V51L465.55,372.77c-3.84,2.23-7,.4-7-4V354.57c0-4.44-3.1-6.2-7-4l-169.72,98a15.49,15.49,0,0,0-7,12.12v14.14a15.5,15.5,0,0,1-7,12l-19.25,11.22V460.87a15.5,15.5,0,0,1,7-12.13L1015.85,9.61C1019.7,7.38,1022.83,9.3,1022.83,13.65Z" transform="translate(0 0)"/><path class="cls-9" d="M1022.86,659.89a15.47,15.47,0,0,1-7,12.09l-760.27,439c-3.84,2.2-7,.4-7-4.06V498.17l19.25-11.1c3.85-2.23,10.11-36.15,14-38.39l166.86-96.35c3.88-2.23,13,22.83,16.84,20.6L1022.83,51V659.89Z" transform="translate(0 0)"/><path class="cls-10" d="M1022.86,659.89a15.47,15.47,0,0,1-7,12.09l-760.27,439c-3.84,2.2-7,.4-7-4.06V498.17l19.25-11.1c3.85-2.23,10.11-36.15,14-38.39l166.86-96.35c3.88-2.23,13,22.83,16.84,20.6L1022.83,51V659.89Z" transform="translate(0 0)"/><g class="cls-11"><path class="cls-12" d="M1019.73,56.41V659.89a12.41,12.41,0,0,1-5.46,9.3L254,1108.23a3.08,3.08,0,0,1-1.58.53c-.71,0-.74-1.55-.74-1.89v-607l17.7-10.24c2.73-1.58,4.47-7,8.38-21a105.3,105.3,0,0,1,5.83-17.55l165.5-95.54a71.7,71.7,0,0,1,5.33,8.5c4.5,7.87,7,12,10.57,12a4.55,4.55,0,0,0,2.08-.53L1019.73,56.41m3.1-5.37L465.55,372.77a1.57,1.57,0,0,1-.53,0c-3.9,0-11.84-20.87-15.78-20.87a1.57,1.57,0,0,0-.53,0L281.85,448.56c-3.88,2.23-10.14,36.16-14,38.39l-19.25,11.22v608.7c0,3.1,1.58,5,3.84,5a6.41,6.41,0,0,0,3.1-.93L1015.85,672a15.47,15.47,0,0,0,7-12.09V51Z" transform="translate(0 0)"/></g><polygon class="cls-9" points="248.61 543.51 248.61 668.7 1022.83 221.75 1022.83 96.53 248.61 543.51"/><path class="cls-13" d="M1022.83,51V96.53l-774.22,447V498.17L263,490c3.85-2.24,5.15-5.65,7-12.13l4.9-16.93c1.52-5.89,3.1-9.89,7-12.12l166.86-96.35c3.88-2.23,6.92-2.48,9.86,2.39l6,10.85c2.17,3.81,3.29,6.2,7.13,3.81Z" transform="translate(0 0)"/><path class="cls-14" d="M990,37.21c4.87-2.79,8.81-.52,8.81,5.09A19.46,19.46,0,0,1,990,57.56c-4.84,2.79-8.77.52-8.77-5.09A19.52,19.52,0,0,1,990,37.21Z" transform="translate(0 0)"/><path class="cls-14" d="M958.39,55.35c4.84-2.79,8.78-.52,8.78,5.09a19.56,19.56,0,0,1-8.78,15.26c-4.87,2.79-8.81.52-8.81-5.09A19.49,19.49,0,0,1,958.39,55.35Z" transform="translate(0 0)"/><path class="cls-14" d="M926.67,73.62c4.84-2.79,8.8-.53,8.8,5.08A19.55,19.55,0,0,1,926.67,94c-4.87,2.82-8.81.53-8.81-5.08A19.43,19.43,0,0,1,926.67,73.62Z" transform="translate(0 0)"/><path class="cls-15" d="M280.67,501.28l-11,6.2,4.19-8a2.07,2.07,0,0,0,0-2c-.31-.37-.87,0-1.24.59l-5.95,11.47h0V510h0v.59a1.14,1.14,0,0,0,0,.52h0v.25h0l5.95,4.59a.53.53,0,0,0,.59,0,2.34,2.34,0,0,0,.65-.87,2,2,0,0,0,0-1.86l-4.19-3.1,11-6.2a2.26,2.26,0,0,0,.9-1.89C281.57,501.28,281.17,501,280.67,501.28Z" transform="translate(0 0)"/><path class="cls-15" d="M289.85,496.16,300.8,490l-4.19-3.1c-.37-.28-.4-1.12,0-1.86s.87-1.15,1.24-.87l6,4.43h0a.43.43,0,0,1,.18.22h0a1.35,1.35,0,0,1,0,.49,1.94,1.94,0,0,1,0,.59v.1l-.18.43h0l-6,11.35a1.5,1.5,0,0,1-.59.68.43.43,0,0,1-.61,0l0,0a2,2,0,0,1,0-2l4.1-8-11,6.2c-.5.28-.87,0-.87-.87A2.3,2.3,0,0,1,289.85,496.16Z" transform="translate(0 0)"/><path class="cls-15" d="M325.79,464.37c0-.65-.65-.55-.93.16l-1.52,3.69c-2.57-.28-5.67,2.2-7.78,6.67-2.7,5.73-2.7,12.4,0,15.16a3.92,3.92,0,0,0,5,.31,13.24,13.24,0,0,0,5.08-6,1.89,1.89,0,0,0,0-1.92c-.37-.34-.93,0-1.27.72-2,4.27-5.33,6.2-7.35,4.24s-2-7,0-11.35c1.43-3.1,3.51-4.86,5.34-5l-1.15,2.76c-.28.72,0,1.4.43,1.09l4.5-2.92a1.55,1.55,0,0,0,.5-1.24Z" transform="translate(0 0)"/><path class="cls-15" d="M443.91,373l4-8.5a2.7,2.7,0,0,0,0-2.64c-.47-.43-1.24,0-1.71,1l-4,8.46-4-3.84c-.47-.47-1.24,0-1.71,1a2.68,2.68,0,0,0,0,2.63l3.88,3.85-4,8.53a2.68,2.68,0,0,0,0,2.63.66.66,0,0,0,.87,0,2.1,2.1,0,0,0,.84-1l4-8.5,4,3.88a.6.6,0,0,0,.83,0,2.27,2.27,0,0,0,.87-1,2.65,2.65,0,0,0,0-2.64Z" transform="translate(0 0)"/><path class="cls-16" d="M340.46,474.79V460.65a15.48,15.48,0,0,1,7-12.09l629-362.82c3.88-2.23,7-.43,7,4v14a15.48,15.48,0,0,1-7,12.12l-629,363C343.59,481.09,340.46,479.26,340.46,474.79Z" transform="translate(0 0)"/><path class="cls-2" d="M967,116.75h-.5a1.63,1.63,0,0,1-.86-1.83l.68-5.86h0l-2.86-2a1.57,1.57,0,0,1-.62-1.31,3.12,3.12,0,0,1,1.06-2.23l4.09-3.1a.88.88,0,0,0,.28-.47l1.83-6a2.35,2.35,0,0,1,1.83-1.77,1.42,1.42,0,0,1,1.33.81h0l1.65,3.53,3.72-1.42a1.39,1.39,0,0,1,1.55.34,2.29,2.29,0,0,1,0,2.51l-3.1,5.58a1.4,1.4,0,0,0,0,.5l.71,5a2.79,2.79,0,0,1-.81,2.27,1.53,1.53,0,0,1-1.36.55l-3.69-.46-3.57,4.77A1.84,1.84,0,0,1,967,116.75Zm-2.36-11.32,2.86,2a1.75,1.75,0,0,1,.58,1.68l-.34,4.83,3.1-3.9a1.88,1.88,0,0,1,1.59-.78l3.69.47a1.2,1.2,0,0,0,0-.75l-.72-5a2.7,2.7,0,0,1,.34-1.62l3.11-5.58-3.42,1.31a1.33,1.33,0,0,1-1.76-.68h0l-1.52-3.1h0l-1.83,6a2.56,2.56,0,0,1-.93,1.39l-4.1,3.1A1.4,1.4,0,0,0,964.59,105.43Z" transform="translate(0 0)"/><g class="cls-17"><path class="cls-3" d="M991.73,83.73a2.42,2.42,0,0,1-1.21-4.53l19.66-11.35a2.43,2.43,0,0,1,2.45,4.19h0L992.94,83.42A2.45,2.45,0,0,1,991.73,83.73Z" transform="translate(0 0)"/><path class="cls-3" d="M991.73,95.2a2.42,2.42,0,0,1-1.24-4.53h0l19.66-11.38a2.45,2.45,0,0,1,2.45,4.22L992.9,94.86A2.41,2.41,0,0,1,991.73,95.2Z" transform="translate(0 0)"/><path class="cls-3" d="M991.73,106.55a2.44,2.44,0,0,1-2.11-1.21,2.38,2.38,0,0,1,.87-3.1h0l19.66-11.38a2.43,2.43,0,0,1,2.45,4.19h0l-19.7,11.38A2.33,2.33,0,0,1,991.73,106.55Z" transform="translate(0 0)"/></g><polygon class="cls-2" points="248.61 498.02 248.61 543.51 235.46 535.91 235.46 490.45 248.61 498.02"/><text class="cls-18" transform="matrix(0.65, -0.38, 0, 1, 778.04, 329.7)">About us</text><polygon class="cls-19" points="282.19 698.22 496.31 574.58 496.31 923.66 281.57 1046.96 282.19 698.22"/><path class="cls-19" d="M543.51,553.77,801.82,404.65c5.21-3.1,9.3-.75,9.3,5.05a20.56,20.56,0,0,1-9.3,16L543.48,576.51c-5.18,3.1-9.3.62-9.3-5.37v-1.08A20.79,20.79,0,0,1,543.51,553.77Z" transform="translate(0 0)"/><path class="cls-19" d="M540.81,599,968.25,352.18c3.72-2.14,6.73-.62,6.73,3.38a14.37,14.37,0,0,1-6.73,11.16L540.81,613.5c-3.69,2.14-6.7.62-6.7-3.38A14.49,14.49,0,0,1,540.81,599Z" transform="translate(0 0)"/><path class="cls-19" d="M540.81,628.17,968.25,381.42c3.72-2.14,6.73-.62,6.73,3.38A14.37,14.37,0,0,1,968.25,396L540.81,642.71c-3.69,2.14-6.7.62-6.7-3.41A14.46,14.46,0,0,1,540.81,628.17Z" transform="translate(0 0)"/><path class="cls-19" d="M540.81,657.41,968.25,410.57C972,408.43,975,410,975,414a14.44,14.44,0,0,1-6.73,11.14L540.81,671.83c-3.69,2.14-6.7.62-6.7-3.41A14.49,14.49,0,0,1,540.81,657.41Z" transform="translate(0 0)"/><path class="cls-19" d="M540.81,686.56,968.25,439.78c3.72-2.14,6.73-.62,6.73,3.38a14.37,14.37,0,0,1-6.73,11.17L540.81,701.1c-3.69,2.14-6.7.62-6.7-3.38A14.49,14.49,0,0,1,540.81,686.56Z" transform="translate(0 0)"/><path class="cls-19" d="M540.81,715.77,839.06,542.12c3.69-2.14,6.7-.63,6.7,3.41a14.43,14.43,0,0,1-6.7,11.13L540.81,730.31c-3.69,2.14-6.7.62-6.7-3.41A14.46,14.46,0,0,1,540.81,715.77Z" transform="translate(0 0)"/><path class="cls-19" d="M540.81,774.16,968.25,527.39c3.72-2.14,6.73-.62,6.73,3.38a14.37,14.37,0,0,1-6.73,11.16L540.81,788.71c-3.69,2.14-6.7.62-6.7-3.38A14.49,14.49,0,0,1,540.81,774.16Z" transform="translate(0 0)"/><path class="cls-19" d="M540.81,803.37,968.25,556.6C972,554.46,975,556,975,560a14.37,14.37,0,0,1-6.73,11.16L540.81,817.92c-3.69,2.14-6.7.62-6.7-3.41A14.46,14.46,0,0,1,540.81,803.37Z" transform="translate(0 0)"/><path class="cls-19" d="M540.81,832.55,968.25,585.78c3.72-2.14,6.73-.62,6.73,3.41a14.41,14.41,0,0,1-6.73,11.13L540.81,847.13c-3.69,2.14-6.7.62-6.7-3.41A14.51,14.51,0,0,1,540.81,832.55Z" transform="translate(0 0)"/><path class="cls-19" d="M540.81,861.76l157.1-91.66c3.69-2.14,6.7-.62,6.7,3.41a14.46,14.46,0,0,1-6.7,11.13L540.84,876.31c-3.69,2.14-6.69.62-6.69-3.38A14.38,14.38,0,0,1,540.81,861.76Z" transform="translate(0 0)"/></g><g id="Character_3" data-name="Character 3"><path class="cls-20" d="M1112,694.16c22.73-73.74,44.84-122.34,22.3-137.38h0c-21,3.91-30.36,14.3-34.82,42-4.69,29-14.42,69.43-20.1,92.75a276.56,276.56,0,0,1-20.93,56.34,12,12,0,0,1-6.2,5.43c-7,2.76-10.36,6.2-16.07,10.42-4.49,3.1-7.78,3.54-7.56,4.87a5.89,5.89,0,0,0,7,4.34,41.71,41.71,0,0,0,9.76-3.1,48.48,48.48,0,0,1-12.21,17.86c-11,9.3-9.31,18.39,8.34,19.44,6.2.38,21-5.39,34.61-28.56a234.06,234.06,0,0,0,12.12-26.7C1097.75,728.08,1107.46,709,1112,694.16Z" transform="translate(0 0)"/><path class="cls-4" d="M1138.25,555.91s-17.49-.89-28.1,10.8-22.94,81.4-22.94,81.4,11.59,15.94,42.17,9.3Z" transform="translate(0 0)"/><path class="cls-14" d="M1138.25,555.91s-17.49-.89-28.1,10.8-22.94,81.4-22.94,81.4,11.59,15.94,42.17,9.3Z" transform="translate(0 0)"/><rect class="cls-20" x="1196.67" y="1051.33" width="23.47" height="41.86"/><polygon class="cls-20" points="1138.74 1049.1 1115.27 1049.96 1114.09 1005.65 1138.74 1004.81 1138.74 1049.1"/><path class="cls-8" d="M1223.46,688.88c0,23.36-3.44,211.27-3.44,211.27.53,6.73,6.57,19.14,5.27,44.94-1.77,35-4.15,127.14-4.15,127.14a29.78,29.78,0,0,1-26.14.56s-22.21-127.61-26.39-162.37c-3.69-30.3-9.93-132.38-9.93-132.38L1146,896.71a146.34,146.34,0,0,1,2.91,38.89c-1.11,16.06-8.65,99.76-8.65,99.76a31,31,0,0,1-27.1,2.14s-13.37-126-13.64-140.79c-.31-16.8,7.81-208.1,7.81-208.1Z" transform="translate(0 0)"/><path class="cls-7" d="M1196.67,1081.16v-3.5c-2.26,1-7.47,21.7-16.78,30.63-7.41,7-17.52,15.14-20.09,23s14.08,12.68,21,11.41c8-1.49,22-7.38,25.46-12.87s5.15-13.52,8-17.52,9.31-8.46,10.92-13.11a28,28,0,0,0-1.34-12.84c-1.33-4.72-2.26-9.09-3.69-8.68v2.66a18,18,0,0,1-11.72,4.16C1205,1084.57,1196.64,1083.86,1196.67,1081.16Z" transform="translate(0 0)"/><path class="cls-7" d="M1115,1042.4c-1.21,0-2.2,1.83-4.9,4.87a51.08,51.08,0,0,1-13.8,10.35c-8.8,4.59-25.89,11.63-33.64,15.26-4.81,2.26-4.59,8.34.4,11.81s17.06,6,31.54,2.58c7.87-1.83,18.17-9.3,24.65-9s18.61.35,23.47-3.1,2.89-10.79,1.52-17.11c-1.48-6.89-3.31-17.65-5.52-17.18v2.38c-2.82,4.44-17.39,6.21-23.59,3.11Z" transform="translate(0 0)"/><path class="cls-7" d="M1158.68,778.07A86.25,86.25,0,0,1,1126,758.53s6.2,12.41,25,23.76l-4,106Z" transform="translate(0 0)"/><path class="cls-21" d="M1211.24,561.5s18.36,1.7,17.06,36.68L1224.24,654v83.73c-17.27,19.56-93.81,18.1-120-1.59,0,0,3.1-99,4.71-137.12,1.27-27.07,7.51-40.72,34.11-43.69l32.72,1.42Z" transform="translate(0 0)"/><polygon class="cls-22" points="1159.06 579.86 1154.84 609.25 1145.04 609.07 1156.11 610.83 1159.06 579.86"/><path class="cls-7" d="M1183.55,482.67a35.72,35.72,0,0,1-34.94,36.44c-19.32,0-34.12-16.35-35-36.41-1.52-35.57,15.66-36.44,35-36.44A35.75,35.75,0,0,1,1183.55,482.67Z" transform="translate(0 0)"/><path class="cls-7" d="M1203.37,500.69s-5.37,26.23-7.51,30.54a11.33,11.33,0,0,1-6.57,5.52l.37-18.61Z" transform="translate(0 0)"/><path class="cls-7" d="M1196.73,463.1s3.85-1,7.94,5.43c3.51,5.46,4.31,17.74-1.21,32.16l-10.08,1.21Z" transform="translate(0 0)"/><path class="cls-20" d="M1190.34,501.9c2,1.27,4.9-2.8,7.42-5.52s10.63-6.42,14.73,2.48-3.6,21.11-10,23.22c-11.07,3.63-12.71-3.78-12.71-3.78l-.87,41.55c-14.67,22.73-47.94,21.9-36-1.08V546.12a68.37,68.37,0,0,1-14.92.8c-8.12-1.33-13.24-8-15.72-17.18-4-14.73-5.46-26.6-2.11-55.6,3.72-31.78,39.2-32.06,58.39-19.38S1190.34,501.9,1190.34,501.9Z" transform="translate(0 0)"/><path class="cls-14" d="M1189.07,550.55a53.28,53.28,0,0,1-14.35,18,41,41,0,0,1-17.4,7.38,38.26,38.26,0,0,1,12.4,13.8c3.69,8.06,29.52-14.18,29.28-30,0,0-4-15.85-9.62-16.84Z" transform="translate(0 0)"/><path class="cls-14" d="M1157.32,576s-8-3.94-4.4-17.18V546.12l-3.51.46a30.85,30.85,0,0,0-8.25,14.7c-.8,3.63-2.79,22,.72,25.61S1150.16,576.94,1157.32,576Z" transform="translate(0 0)"/><path class="cls-7" d="M1176.76,467.16a5.27,5.27,0,0,1,2.73,0c3.1,1.37,3.66,10.73,4.19,13.43,1.76,9.09,3.25,24.5,6.66,24.56,1,0,4.9-6.67,7.42-9,3.5-3.32-1-33.28-1-33.28a14.58,14.58,0,0,0-3.35-15.16c-6.2-7.2-16.18-8.81-25.21-9.3-10.63-.59-21.43.21-31.91-2.11a90,90,0,0,0-10-2.14,1.17,1.17,0,0,0-.9,0c-.34.28-.28.8-.19,1.24a33.46,33.46,0,0,0,3.29,9,80.4,80.4,0,0,1-18.36-3.63,2.08,2.08,0,0,0-1,0c-.72.22-.84,1.15-.78,1.89.4,7.51,4,18.86,10.08,23.26a35.41,35.41,0,0,0,18.17,5.74C1153,472.37,1163.06,468.9,1176.76,467.16Z" transform="translate(0 0)"/><path class="cls-7" d="M1196.73,464.68l12.25-6.85a6.63,6.63,0,0,0-8.74-3.38l-.56.28A7.75,7.75,0,0,0,1196.73,464.68Z" transform="translate(0 0)"/><path class="cls-23" d="M1153,546.12s18.14-3.82,24.49-7.32a21.49,21.49,0,0,0,8.78-9.06,30.43,30.43,0,0,1-5,10.67c-4.62,6.2-28.28,10.73-28.28,10.73Z" transform="translate(0 0)"/><path class="cls-7" d="M1157.32,497.18a3.63,3.63,0,1,0,3.63-4,3.75,3.75,0,0,0-3.63,3.87h0Z" transform="translate(0 0)"/><path class="cls-7" d="M1163.06,481.49l7.78,4.47a4.93,4.93,0,0,0-1.58-6.39,4.21,4.21,0,0,0-5.83,1.25l0,.05A3.13,3.13,0,0,0,1163.06,481.49Z" transform="translate(0 0)"/><path class="cls-23" d="M1154.59,523.35l-8.31,3.11a4.35,4.35,0,0,0,5.29,3.12l.07,0h.28A4.91,4.91,0,0,0,1154.59,523.35Z" transform="translate(0 0)"/><path class="cls-7" d="M1123.92,484.81l7.1-5.71a4.19,4.19,0,0,0-5.77-1.27,2.61,2.61,0,0,0-.43.31A5,5,0,0,0,1123.92,484.81Z" transform="translate(0 0)"/><path class="cls-7" d="M1127.05,496.16a3.76,3.76,0,0,0,3.59,3.91h0a3.94,3.94,0,0,0,0-7.88A3.88,3.88,0,0,0,1127.05,496.16Z" transform="translate(0 0)"/><polygon class="cls-23" points="1146.53 493.06 1146.09 516.04 1133.04 513.03 1146.53 493.06"/><path class="cls-4" d="M1247,516.16c5.24-6.95,15.84,8.47,20.74,19.1s5,16.65,1,20.87-11.63,1.68-19.23-8.4S1244,521.28,1247,516.16Z" transform="translate(0 0)"/><path class="cls-24" d="M1247,516.16c5.24-6.95,15.84,8.47,20.74,19.1s5,16.65,1,20.87-11.63,1.68-19.23-8.4S1244,521.28,1247,516.16Z" transform="translate(0 0)"/><path class="cls-20" d="M1284,518.21c-18.6,43.41-44.5,67.88-56.12,95.82-15.23-1-27.11-37.84-15.76-53.56,0,0,44.6-48.28,48.63-67.26,3.59-16.84,8.4-44.62,8-58.92a10,10,0,0,0-2.76-6.2c-4.69-5-4.69-9.08-7.69-14.63-2.33-4.35-4.9-6-4.16-6.95a5.62,5.62,0,0,1,7.6-.56,30.33,30.33,0,0,1,5.74,5.52,32.06,32.06,0,0,0-2.64-16.31c-5.18-11.72-3.91-17.68,11.88-13.52,9.92,2.64,16.12,10.88,17.61,34.67a239.93,239.93,0,0,1,.19,29.74c-1.74,18.32-2.83,37.43-5.09,52.71A79.68,79.68,0,0,1,1284,518.21Z" transform="translate(0 0)"/><path class="cls-4" d="M1207.46,561l39.32-45S1242.1,527,1252.33,543s16.31,13.18,16.31,13.18-23.22,33.9-29.42,45.24-12.69,20.94-12.69,20.94a7.51,7.51,0,0,1-7.35,4C1213.42,626.4,1198.13,600.69,1207.46,561Z" transform="translate(0 0)"/><path class="cls-14" d="M1207.46,561l39.32-45S1242.1,527,1252.33,543s16.31,13.18,16.31,13.18-23.22,33.9-29.42,45.24-12.69,20.94-12.69,20.94a7.51,7.51,0,0,1-7.35,4C1213.42,626.4,1198.13,600.69,1207.46,561Z" transform="translate(0 0)"/></g><g id="Character_2" data-name="Character 2"><polygon class="cls-23" points="888.37 662.06 906.88 686.72 886.97 709.51 861.33 679.52 888.37 662.06"/><path class="cls-3" d="M827.75,606c16.15.74,23.84,3.1,32.31,13.21s50.76,71.32,50.76,71.32-7.47,21-23.84,19.16L857.24,679Z" transform="translate(0 0)"/><path class="cls-7" d="M748.49,1118a121.1,121.1,0,0,0-1.87,19.47c-.21,11.79-2.38,16-2.66,25.68-.34,11.07,1.58,15.23,6.2,21.43s16.28,11.87,21.27,1.36,4.34-17.39,2.73-28.28-1.86-17.43-2.79-26c-.87-7.57-1.86-13.31-1.86-13.31Z" transform="translate(0 0)"/><path class="cls-25" d="M782,1025.34l-38.92-.71c.59,26,4.71,69.21,5.4,93.55,0,4.59,0,35.64,1.61,45.09,2.6,14.17,19.41,12.25,20.31,3.79s-1.09-44.75-1-48.5c-.16-15.51,7.16-56.38,11-84.44C780.58,1032.63,781.82,1026.43,782,1025.34Z" transform="translate(0 0)"/><path class="cls-7" d="M839.16,1097.75s-2,0-2.33,1.74-.46,5-1.27,8.24a45.82,45.82,0,0,0-1.36,15.51c.65,3.63,8.93,9,14.6,10s13.65,6.55,18.08,10.73a43.41,43.41,0,0,0,25.15,9.87c9.3,0,16-3.11,19.13-8.19s-2.82-5.68-13.61-12.68l-8.4-5.46c-17.09-11.17-23.35-17.15-28.19-28.31Z" transform="translate(0 0)"/><path class="cls-25" d="M861.08,1091.76c-.28-8.06,3.82-67.29,3.82-67.29l-33.46,3.79c7.93,47.19,8.56,63.29,7.66,70.17h0a6.82,6.82,0,0,0-.22,2c0,9.3,10.39,14.14,18.6,20.24a72.53,72.53,0,0,0,21,13.12c6.2,2.14,17.7,3.1,19.16-.84-9.8-7.5-23.19-17.3-31-25.89C862.79,1102.87,861.36,1099.77,861.08,1091.76Z" transform="translate(0 0)"/><path class="cls-4" d="M752.11,756.64c-18.23,39.88.69,180.29.69,180.29-.56,6.48-8,19.2-10.7,47.7-3.26,33.61,6,123.69,6,123.69a21.71,21.71,0,0,0,21.71.47S793.33,976.44,797.7,943c3.69-29.21,10.76-93.4,10.76-93.4l20.09,93.21a174.78,174.78,0,0,0-6.39,28.84c-1.89,19.66,17.28,118.43,17.28,118.43a27.08,27.08,0,0,0,21.7-.43s8.47-127.58,10.27-151.27c3.1-39.82-7.6-164-14.89-187.58Z" transform="translate(0 0)"/><path class="cls-14" d="M752.11,756.64c-18.23,39.88.69,180.29.69,180.29-.56,6.48-8,19.2-10.7,47.7-3.26,33.61,6,123.69,6,123.69a21.71,21.71,0,0,0,21.71.47S793.33,976.44,797.7,943c3.69-29.21,10.76-93.4,10.76-93.4l20.09,93.21a174.78,174.78,0,0,0-6.39,28.84c-1.89,19.66,17.28,118.43,17.28,118.43a27.08,27.08,0,0,0,21.7-.43s8.47-127.58,10.27-151.27c3.1-39.82-7.6-164-14.89-187.58Z" transform="translate(0 0)"/><path class="cls-26" d="M808.4,849.67l5.92-37s25-5.17,36.44-15.87a64.66,64.66,0,0,1-29.65,19.69L814.44,845l11.66,86.3Z" transform="translate(0 0)"/><path class="cls-4" d="M761.48,632.85l24.81,6.45V586.8h0c-13.71-3.57-24.81,4.34-24.81,17.68Z" transform="translate(0 0)"/><path class="cls-7" d="M761.48,632.85l24.81,6.45V586.8h0c-13.71-3.57-24.81,4.34-24.81,17.68Z" transform="translate(0 0)"/><path class="cls-4" d="M810.6,594.3l-8.9-.18c-27.17-.65-48.69-24.06-48.1-52.35h0c0-30.82,23.88-55.81,53.46-56.09h0c29.59-.16,53.71,24.81,53.87,55.5v3.11C860.18,572.6,837.7,594.89,810.6,594.3Z" transform="translate(0 0)"/><path class="cls-7" d="M810.6,594.3l-8.9-.18c-27.17-.65-48.69-24.06-48.1-52.35h0c0-30.82,23.88-55.81,53.46-56.09h0c29.59-.16,53.71,24.81,53.87,55.5v3.11C860.18,572.6,837.7,594.89,810.6,594.3Z" transform="translate(0 0)"/><path class="cls-4" d="M769,498.55a6.73,6.73,0,0,0-8.12-5h-.47l2.39,9.31a6.5,6.5,0,0,0-9.15-1,6.58,6.58,0,0,0-1.64,2,4.14,4.14,0,0,0-.31.59l12.09,7.1a7.4,7.4,0,0,0,.81-3.94A7.61,7.61,0,0,0,769,498.55Z" transform="translate(0 0)"/><path class="cls-7" d="M769,498.55a6.73,6.73,0,0,0-8.12-5h-.47l2.39,9.31a6.5,6.5,0,0,0-9.15-1,6.58,6.58,0,0,0-1.64,2,4.14,4.14,0,0,0-.31.59l12.09,7.1a7.4,7.4,0,0,0,.81-3.94A7.61,7.61,0,0,0,769,498.55Z" transform="translate(0 0)"/><path class="cls-8" d="M783.68,608.14a232.47,232.47,0,0,0-24.81,4.77c9.62,23.57-5.33,60-5.33,60l14.23,43.82c-9.83,20.13-17.92,30.11-21.27,46.52,9.06,17.67,73,34.54,114.58,2.32,0,0-1.33-44.75-6.63-70.82,13.61-26.58,11.41-34.39,8.62-43.67-6.48-21.55-19.57-29.83-35.17-45l-9.3-1Z" transform="translate(0 0)"/><path class="cls-7" d="M769.23,734.25c7.72-7.91,24.1-10.17,24.1-10.17l-15-8.56-16.81-40.59a93.05,93.05,0,0,0,10.14-44.68L762,627.92c1.11,21.49-8.47,45-8.47,45l14.23,43.82c-9.83,20.13-17.92,30.11-21.27,46.52,6.2,12.09,38.11,23.81,71,19.66C773.29,779.93,761.82,741.91,769.23,734.25Z" transform="translate(0 0)"/><path class="cls-27" d="M813.73,783.25l1.8-.19A8.34,8.34,0,0,0,813.73,783.25Z" transform="translate(0 0)"/><path class="cls-25" d="M841,513.15c5.33,4.9,12,15.51,11.47,46.52-.47,26.36-8.62,32.9-12.74,34.79s-12,.81-19.76-.5v10.92s10.17,11.29,9.55,18.6S815,633.75,805,626.59a92.93,92.93,0,0,1-18.6-18.77V574.68s-4.53,4.62-12.41-2.33c-6.2-5.77-8.55-15.51-3.62-20.78a10.82,10.82,0,0,1,15.3-.2l.2.2a10.33,10.33,0,0,1,2.3,3.45,101.2,101.2,0,0,0,34.11-9.8A33.7,33.7,0,0,0,841,513.15Z" transform="translate(0 0)"/><path class="cls-7" d="M819.9,553.74a3.1,3.1,0,1,1-3.35-3.1A3.3,3.3,0,0,1,819.9,553.74Z" transform="translate(0 0)"/><path class="cls-28" d="M821.11,575.7l8.28,2.7a4.22,4.22,0,0,1-5.09,3.1H824A4.81,4.81,0,0,1,821.11,575.7Z" transform="translate(0 0)"/><path class="cls-7" d="M849.86,541.87l-7.54-2.58a3.66,3.66,0,0,1,4.39-2.74h.42A4.42,4.42,0,0,1,849.86,541.87Z" transform="translate(0 0)"/><path class="cls-4" d="M788,552.19v11.14a5.28,5.28,0,0,0,5.46-5V558A5.77,5.77,0,0,0,788,552.19Z" transform="translate(0 0)"/><path class="cls-7" d="M788,552.19v11.14a5.28,5.28,0,0,0,5.46-5V558A5.77,5.77,0,0,0,788,552.19Z" transform="translate(0 0)"/><path class="cls-7" d="M847.13,552.66a3.39,3.39,0,0,1-3.1,3.63,3.45,3.45,0,1,1,3.1-3.76h0Z" transform="translate(0 0)"/><polygon class="cls-28" points="829.45 548.16 829.39 569.75 839.44 566.43 829.45 548.16"/><path class="cls-28" d="M819.93,594.09c-8.15-1.06-24.81-6-27.57-12.87a18,18,0,0,0,5.93,8.77c5,4.44,21.7,9.31,21.7,9.31Z" transform="translate(0 0)"/><path class="cls-25" d="M720.7,718.34s19.91,28.29,23.32,32,5.77,2.44,9.3.8a103.3,103.3,0,0,1,13.83-4.49c6.21-1.52,7.38,4.09,1.37,8.09-4.34,2.91-9.31,4.15-7.26,6.54a46.48,46.48,0,0,0,14.51,8.9c14.7,5.8,13.56,8.72,10.86,13.46-2.36,4.16-9.31,13.09-35.48,2.54-10.85-4.37-26.11-16.74-33.3-24.81-10.39-11.5-26.61-32.12-26.61-32.12Z" transform="translate(0 0)"/><path class="cls-3" d="M762.84,611.89c-7.19.46-20.74,2.2-37.74,30.42-14.91,24.81-38,58.33-42.29,70.33-1.74,4.87,5,15,13.73,25.27,11.88-.53,22.7-8.74,28.32-15.32a54.33,54.33,0,0,0-5.46-10l34.7-39.73s13.24-12.12,16-27.9C773.08,627.86,772.15,614.4,762.84,611.89Z" transform="translate(0 0)"/><polygon class="cls-4" points="957.83 665.41 871.9 688.05 848.24 785.26 929.95 761.54 957.83 665.41"/><polygon class="cls-29" points="957.83 665.41 871.9 688.05 848.24 785.26 929.95 761.54 957.83 665.41"/><g class="cls-30"><path d="M919,734.25a17,17,0,0,0,16.06,9.62l.62-2.14Z" transform="translate(0 0)"/></g><g class="cls-30"><path d="M931.94,680.85l.71-3.28c.41-1.8-4.65-1.9-11.25,0l-12.69,3.1c-6.6,1.73-12.4,4.59-12.68,6.39l-.68,3.28Z" transform="translate(0 0)"/></g><path class="cls-8" d="M938.54,668.54c.25-1.15-1.79-1.46-4.55-.68l-5,1.4s1.49-7.11-9.61-4.63a17.52,17.52,0,0,0-13.58,10.55l-5.34,1.52c-3.1.84-5.64,2.42-6,3.53l-.65,2,44.28-11.66Z" transform="translate(0 0)"/><path class="cls-8" d="M932.44,672c-4,1-5.74,1.51-6.21,4.31s-1,5.52-1,5.52L905.67,687s1-4,1.28-5.58-.38-2.54-3.51-1.7l-.25-1.24,30.7-7.85Z" transform="translate(0 0)"/><path class="cls-8" d="M933.12,681.13l.71-3.28c.4-1.8-4.65-1.9-11.26,0L909.89,681c-6.6,1.73-12.4,4.59-12.68,6.38l-.68,3.29Z" transform="translate(0 0)"/><path class="cls-25" d="M948.9,696.64s-3.1,11-3.94,13.61-10.38,7.35-16.68,9.09-13.49,3.78-10.39,12.49c2.73,8.16,13.15,10,18.42,9.77s12.56-5.27,15.51-13.43c3.62-10.42,1.67-21.52,3.1-27.59S952,693,948.9,696.64Z" transform="translate(0 0)"/></g><g id="Character_1" data-name="Character 1"><path class="cls-31" d="M623.3,699.21c-11.79-11.88-16-7.26-17.49,5.77a58.71,58.71,0,0,1-3.94,15.91,30.46,30.46,0,0,0-2.2-7.85,5.74,5.74,0,0,0-7-3.44c-1.15.46.28,3.1,0,8.28-.22,6.45-2.33,10-.81,16.87a11,11,0,0,1-1.14,7.56c-6.2,11.79-26.64,33.56-41,49.25l-54.42-49.15c-18.61-16.75-24.62-24.28-42.58-23.07a48.42,48.42,0,0,1,15.26,9.3c8.34,7,6.36,47.32,6.36,47.32s61.77,44.28,68.22,48.5c.93.62,1.89,1.18,2.82,1.71A15.24,15.24,0,0,0,564,822.6c13.18-15.07,32.4-44.75,43.41-60.16a190.11,190.11,0,0,0,13.43-23.38C631.86,717.13,630.65,706.65,623.3,699.21Z" transform="translate(0 0)"/><path class="cls-4" d="M454.64,718.34a31,31,0,0,1,24.8,6.21c10.61,8.06,55.82,49.61,55.82,49.61s1.24,22-21.71,35.07l-55.41-39.07Z" transform="translate(0 0)"/><path class="cls-14" d="M454.64,718.34a31,31,0,0,1,24.8,6.21c10.61,8.06,55.82,49.61,55.82,49.61s1.24,22-21.71,35.07l-55.41-39.07Z" transform="translate(0 0)"/><rect class="cls-31" x="377.67" y="1214.38" width="23.47" height="41.86"/><polygon class="cls-31" points="459.07 1212.14 482.54 1212.98 483.72 1168.67 459.07 1167.83 459.07 1212.14"/><path class="cls-8" d="M374.35,851.9c0,23.35,3.44,211.3,3.44,211.3-.52,6.7-6.57,19.11-5.27,44.91,1.77,35.07,4.16,127.14,4.16,127.14a29.84,29.84,0,0,0,26.14.52s22.2-127.6,26.42-162.33c3.66-30.33,9.89-132.41,9.89-132.41l12.71,118.7a146.09,146.09,0,0,0-2.91,38.86c1.12,16.06,8.65,99.76,8.65,99.76a31.07,31.07,0,0,0,27.14,2.17s13.33-126.06,13.61-140.79c.31-16.81-7.82-208.14-7.82-208.14Z" transform="translate(0 0)"/><path class="cls-7" d="M401.14,1244.15v-3.48c2.27,1,7.48,21.71,16.78,30.61,7.41,7,17.52,15.16,20.09,23s-14.07,12.65-21,11.38c-8-1.49-22-7.38-25.46-12.84s-5.15-13.55-8-17.55-9.3-8.46-10.91-13.12a30.81,30.81,0,0,1,1.33-12.83c1.08-4.31,2.26-9.06,3.69-8.66v2.83a18.21,18.21,0,0,0,11.75,4.12C392.83,1247.59,401.17,1246.88,401.14,1244.15Z" transform="translate(0 0)"/><path class="cls-7" d="M482.79,1205.45c1.21,0,2.2,1.83,4.9,4.87a51.65,51.65,0,0,0,13.8,10.32c8.81,4.59,25.89,11.66,33.65,15.29,4.83,2.26,4.59,8.34-.41,11.78s-17.05,6-31.53,2.61c-7.88-1.86-18.17-9.31-24.81-9s-18.61.31-23.48-3.1-2.88-10.82-1.51-17.11c1.48-6.92,3.34-17.68,5.52-17.21v2.41c2.82,4.47,17.39,6.21,23.59,3.1Z" transform="translate(0 0)"/><path class="cls-7" d="M439.13,941.09a86.29,86.29,0,0,0,32.69-19.54s-6.21,12.41-25.06,23.76l4,105.92Z" transform="translate(0 0)"/><path class="cls-21" d="M386.57,724.55s-18.36,1.67-17.06,36.68l4.07,55.82-.38,83.72c17.25,19.57,93.81,18.15,120-1.58,0,0-2.7-99-4.46-137.12-1.27-27.07-7.51-40.72-34.11-43.69l-32.75,1.42Z" transform="translate(0 0)"/><polygon class="cls-22" points="438.76 742.9 442.98 772.3 452.81 772.12 441.7 773.85 438.76 742.9"/><path class="cls-31" d="M328.3,844.74c9.52-76.59,31.45-114.74,58.15-119.14l-1.9,49a432.77,432.77,0,0,0-25.42,81.09c-3.51,18.85-7.57,51.63-6.52,67.72A12,12,0,0,0,356,931c5.28,5.36,6.86,10,10.39,16.06,2.79,4.75,5.65,6.42,4.9,7.57a5.91,5.91,0,0,1-8.18,1,44.34,44.34,0,0,1-7.63-6.85,48.34,48.34,0,0,0,3.84,21.3c6.2,12.9,5.21,19.69-12.09,15.88-10.85-2.36-18.61-13.8-21.71-40.5a235.84,235.84,0,0,1-.53-30C326.19,890,326.41,860.06,328.3,844.74Z" transform="translate(0 0)"/><path class="cls-4" d="M388,724.33c-13.86,0-26.51,2.39-36.59,21.71-9.64,18.6-17.05,58-20.8,70.82,0,0,20.24,12,38.88,11.66L382.57,783S391.44,761.76,388,724.33Z" transform="translate(0 0)"/><path class="cls-14" d="M388,724.33c-13.86,0-26.51,2.39-36.59,21.71-9.64,18.6-17.05,58-20.8,70.82,0,0,20.24,12,38.88,11.66L382.57,783S391.44,761.76,388,724.33Z" transform="translate(0 0)"/><path class="cls-7" d="M416.59,645.5a35,35,0,1,0,34.94-36.4A35.74,35.74,0,0,0,416.59,645.5Z" transform="translate(0 0)"/><path class="cls-7" d="M394.35,663.61s5.37,26.24,7.51,30.55a11.44,11.44,0,0,0,6.6,5.55l-.4-18.61Z" transform="translate(0 0)"/><path class="cls-7" d="M401.08,626.12s-4-.81-7.94,5.4c-3.5,5.45-4.28,17.73,1.21,32.15l10.08,1.21Z" transform="translate(0 0)"/><path class="cls-31" d="M407.47,664.91c-2,1.28-4.9-2.79-7.41-5.48s-10.64-6.45-14.7,2.48,3.57,21.11,10,23.19c11.07,3.63,12.71-3.78,12.71-3.78l.87,41.58c14.66,22.7,47.94,21.9,36-1.11V709a69,69,0,0,0,14.91.81c8.13-1.31,13.25-8,15.73-17.18,4-14.73,5.45-26.61,2.11-55.57-3.7-31.76-39.14-32.1-58.3-19.54S407.47,664.91,407.47,664.91Z" transform="translate(0 0)"/><path class="cls-14" d="M408.74,713.57a53.19,53.19,0,0,0,14.36,18A41.25,41.25,0,0,0,440.5,739a38.59,38.59,0,0,0-12.41,13.76c-3.66,8.1-29.52-14.14-29.27-29.92,0,0,4.06-15.85,9.61-16.87Z" transform="translate(0 0)"/><path class="cls-14" d="M440.53,739s8-4,4.4-17.21V709l3.5.47a30.69,30.69,0,0,1,8.38,14.54c.8,3.63,2.79,22-.72,25.61S447.66,740.05,440.53,739Z" transform="translate(0 0)"/><path class="cls-7" d="M407.47,668.48c-1,0-4.9-6.67-7.41-9.05-3.51-3.32,1-33.31,1-33.31A14.72,14.72,0,0,1,404.43,611c4.81-5.49,12.81-6.2,26.45-8.31a143.55,143.55,0,0,0,16.19-3.1,95.72,95.72,0,0,0,16.19-7.88,8.07,8.07,0,0,1,5.45-1.24,5.29,5.29,0,0,1,3.51,4,16.32,16.32,0,0,1,0,5.49,8.9,8.9,0,0,1,12.56.43,12.84,12.84,0,0,1,2,13.27,23.73,23.73,0,0,1-9.3,10.45c-17.15,11.6-37.4,8.38-56.62,6.21a4.79,4.79,0,0,0-2.73.18c-3.1,1.37-3.66,10.7-4.19,13.4C412.43,653,410.88,668.42,407.47,668.48Z" transform="translate(0 0)"/><path class="cls-7" d="M401.08,627.7l-12.22-6.85a6.61,6.61,0,0,1,8.7-3.42h0l.59.31A7.8,7.8,0,0,1,401.08,627.7Z" transform="translate(0 0)"/><path class="cls-32" d="M444.87,709s-18.14-3.81-24.5-7.32a21.13,21.13,0,0,1-8.78-9.05,29.85,29.85,0,0,0,5,10.67c4.62,6.2,28.28,10.76,28.28,10.76Z" transform="translate(0 0)"/><path class="cls-7" d="M438.29,659.12a3.77,3.77,0,0,1-3.62,3.93h0a3.87,3.87,0,0,1-3.63-4,3.63,3.63,0,0,1,7.25,0h0Z" transform="translate(0 0)"/><path class="cls-7" d="M432.06,643.36l-7.78,4.47a5,5,0,0,1,1.8-6.45,4.31,4.31,0,0,1,5.83,1.64Z" transform="translate(0 0)"/><path class="cls-32" d="M443.22,686.37l8.31,3.1a4.28,4.28,0,0,1-5.17,3.15l-.16,0h-.31A4.9,4.9,0,0,1,443.22,686.37Z" transform="translate(0 0)"/><path class="cls-7" d="M474.64,647.7l-8.19-4a4.19,4.19,0,0,1,5.36-2.51h0l.43.19A5,5,0,0,1,474.64,647.7Z" transform="translate(0 0)"/><path class="cls-7" d="M469.27,659.12a3.66,3.66,0,0,1-7.28.68h0a1.94,1.94,0,0,1,0-.68,3.75,3.75,0,0,1,3.59-3.91h0A3.81,3.81,0,0,1,469.27,659.12Z" transform="translate(0 0)"/><polygon class="cls-32" points="448.65 656.29 449.05 679.27 462.11 676.29 448.65 656.29"/><path class="cls-7" d="M432.68,649.63a9.09,9.09,0,0,0,0,18.17h1.64a9.09,9.09,0,1,0,0-18.17h-1.64Zm-10.76,9.08a10.85,10.85,0,0,1,10.73-10.94h1.67a10.94,10.94,0,0,1,0,21.7h-1.64A10.81,10.81,0,0,1,421.92,658.71Z" transform="translate(0 0)"/><path class="cls-7" d="M465.33,649.63a9.09,9.09,0,0,0,0,18.17H467a9.09,9.09,0,0,0,0-18.17Zm-10.73,9.08a10.85,10.85,0,0,1,10.73-10.94H467a10.94,10.94,0,0,1,0,21.7h-1.65a10.81,10.81,0,0,1-10.66-10.76Z" transform="translate(0 0)"/><path class="cls-7" d="M444.93,656.54a7,7,0,0,1,5.67-2.94,5.81,5.81,0,0,1,4.94,1.92L457,654.4a7.3,7.3,0,0,0-6.48-2.63,8.73,8.73,0,0,0-7.13,3.81Z" transform="translate(0 0)"/><rect class="cls-7" x="404.43" y="656.45" width="18.48" height="1.83"/></g></g></g></svg>