<svg xmlns="http://www.w3.org/2000/svg" viewBox="0 0 650 450"><defs><style>.cls-1{isolation:isolate;}.cls-2{fill:#ccccd8;mix-blend-mode:multiply;}.cls-3{fill:#003be6;}.cls-4{fill:#588bf0;}.cls-5{fill:#ffd61a;}.cls-6{fill:#170c7a;}.cls-7{fill:#7a788e;}.cls-8{fill:#6f6d83;}.cls-9{fill:#9190a3;}.cls-10{fill:#a8a8b8;}.cls-11{fill:#090138;}.cls-12{fill:#f0c4ae;}.cls-13{fill:#4475e6;}.cls-14{fill:#003ce6;}.cls-15{fill:#262333;}.cls-16{fill:#1b1828;}.cls-17{fill:#f1bb85;}.cls-18{fill:#e2a874;}.cls-19{fill:#fcc28f;}.cls-20{fill:#c1c0cd;}.cls-21{fill:#e4e4ed;}.cls-22,.cls-24{fill:#fff;}.cls-23{fill:#d8d8e2;}.cls-24{opacity:0.62;}.cls-25{fill:#0092e6;}.cls-26{fill:#dd995b;}</style></defs><title>easy to use</title><g class="cls-1"><g id="Layer_1" data-name="Layer 1"><polygon class="cls-2" points="395.51 395.71 331.23 358.6 421.05 308.62 485.33 345.73 395.51 395.71"/><path class="cls-3" d="M390,93.56v38.92c0,1.76-1.29,2.44-2.87,1.53L328.2,100a6.22,6.22,0,0,1-2.87-4.84V56.22c0-1.76,1.29-2.44,2.87-1.53l58.94,34A6.22,6.22,0,0,1,390,93.56Z"/><path class="cls-4" d="M388.86,94.36v38.91c0,1.76-1.28,2.45-2.86,1.53l-58.94-34a6.2,6.2,0,0,1-2.87-4.84V57c0-1.76,1.28-2.45,2.87-1.53l58.94,34A6.25,6.25,0,0,1,388.86,94.36Z"/><path class="cls-5" d="M332.73,78.57l-2.9-1.67a4.29,4.29,0,0,0,1.69,3.26l7.62,4.4c.89.51,1.62-.08,1.68-1.32l-3.46-2Z"/><polygon class="cls-5" points="333.97 76.35 333.97 78.72 336.68 80.28 336.68 77.91 336.68 75.42 336.68 72.75 333.97 71.19 333.97 73.86 333.97 76.35"/><polygon class="cls-5" points="340.82 79.88 340.82 78.22 337.6 76.37 337.6 78.02 340.82 79.88"/><polygon class="cls-5" points="337.6 80.81 340.82 82.67 340.82 80.46 337.6 78.61 337.6 80.81"/><path class="cls-5" d="M340.82,77.63V76.51a3.1,3.1,0,0,0-1.57-2.27l-1.65-1v2.49Z"/><polygon class="cls-5" points="329.83 73.54 329.83 71.88 333.06 73.74 333.06 75.4 329.83 73.54"/><polygon class="cls-5" points="333.06 78.19 329.83 76.33 329.83 74.12 333.06 75.98 333.06 78.19"/><path class="cls-5" d="M329.83,71.28V70.17c0-.75.71-1,1.57-.46l1.65,1v2.48Z"/><polygon class="cls-3" points="340.98 93.9 329.67 87.37 329.67 83.2 340.98 89.73 340.98 93.9"/><polygon class="cls-3" points="354.78 101.86 343.47 95.33 343.47 91.17 354.78 97.69 354.78 101.86"/><polygon class="cls-3" points="368.57 109.83 357.26 103.3 357.26 99.13 368.57 105.66 368.57 109.83"/><polygon class="cls-3" points="382.37 117.79 371.06 111.26 371.06 107.09 382.37 113.62 382.37 117.79"/><polygon class="cls-3" points="335.79 98.84 329.27 95.07 329.27 91.45 335.79 95.22 335.79 98.84"/><polygon class="cls-3" points="362.79 114.95 359.35 112.96 359.35 108.64 362.79 110.63 362.79 114.95"/><polygon class="cls-3" points="367.76 117.82 364.32 115.83 364.32 111.52 367.76 113.5 367.76 117.82"/><polygon class="cls-3" points="350.38 107.26 336.92 99.49 336.92 95.87 350.38 103.64 350.38 107.26"/><path class="cls-6" d="M167.65,144.45c-.87-7.69,97.92-58.92,104.24-55.69,8,4.11,18.06,10.08,22.56,16.19,8.1,11,45.9,104.12,45.9,104.12l27.32,13.51c17.45,10.08,32.75,32.3,37.38,54.28l2.46,11.72c3.75,17.8-5.94,25.64-21.69,34.74l-78.09,43-85.88-80Z"/><polygon class="cls-7" points="396.65 391.05 350.91 364.64 350.91 305.48 396.65 331.89 396.65 391.05"/><polygon class="cls-8" points="404.36 386.73 396.6 391.05 396.6 331.89 404.36 327.57 404.36 386.73"/><polygon class="cls-7" points="470.8 349.15 425.06 322.75 425.06 263.59 470.8 289.99 470.8 349.15"/><polygon class="cls-8" points="478.51 344.83 470.75 349.15 470.75 289.99 478.51 285.68 478.51 344.83"/><polygon class="cls-9" points="395.38 337.11 331.1 300 331.1 288.74 395.38 325.85 395.38 337.11"/><polygon class="cls-8" points="485.53 286.89 395.31 337.11 395.31 325.85 485.53 275.63 485.53 286.89"/><polygon class="cls-10" points="395.51 325.73 331.23 288.62 421.05 238.63 485.33 275.75 395.51 325.73"/><path class="cls-11" d="M164.58,153.22c-.87-7.7,3.77-11.56,10.09-8.33,8,4.11,18.07,10.08,22.56,16.19,8.1,11,45.91,104.12,45.91,104.12l27.31,13.51C287.9,288.79,303.2,311,307.83,333l4.3,20.43A9.81,9.81,0,0,1,297.74,364l-102-57.18a33,33,0,0,1-16.65-25.07Z"/><path class="cls-12" d="M260.59,152.28c-.19-.6-4.6-15.2,1.87-15.64s15.32,6.94,18.67,13.79,14.06,17.58,15,17.94,6.39-.38,11.15,2.86,22.19,5.17,23.42,5,2.39,1.53,5,1.61,9,0,11.29.44a40.72,40.72,0,0,1,6.23,2.26s2.12,2.78,4,3.29,1.66,2.67.81,2.66a3.94,3.94,0,0,0-1.76.56s1,1-.4,1.48a16,16,0,0,1-4.64.17l-4.85-1.23-4.16,1-3,1.65a12.81,12.81,0,0,1,1.57,1.93c.12.4,2.08.53,2.77,1.63s2.18,3-.08,2.79a17,17,0,0,1-4.55-1.17,38.5,38.5,0,0,0-4.08-2.91c-.89-.39-4.64-2-5.61-4.49s-1.86-4.24-1.86-4.24-7.58.77-14.47,1.25-11.45,4-18.16.11a142.56,142.56,0,0,1-14.59-10.15Z"/><path class="cls-13" d="M269.91,166.81s2.51,1,9.15-.66a28.66,28.66,0,0,0,3.39-.92c9.18-2.92,4.34-8.88,3.58-9.86s-5.92-9.8-11.78-17.23-15.09-3.32-15-2.9a13.06,13.06,0,0,0-3.6,6.73,17.06,17.06,0,0,0-.38,2.65C254.89,150.88,269.91,166.81,269.91,166.81Z"/><path class="cls-14" d="M269.91,166.81s9.07.51,15.65-3c-.49-1.24-4.58-8.69-11.33-10.52-.76-1-2.62.52-8.48-6.95A11.25,11.25,0,0,0,255.69,142a17.06,17.06,0,0,0-.38,2.65C254.89,150.88,269.91,166.81,269.91,166.81Z"/><path class="cls-2" d="M229.33,130.5c-1.72-.36,7.69,6.3-8.33,23.83-7.88,8.63-4.32,29.54,5.65,45.33s32.2,32.73,35.9,37.23,10.65,8.27,29.55,13c23.24,5.8,38.11,2.13,45.25,4s13.56,23.75,13.56,23.75l18.48-10.28s27.5,8.84,30.29,8.14c5.18-1.31-5.55-11-10.6-14.94s-22.43-22.66-30.61-29.77-20.23-17-26.06-17.88-39.45-7.56-41.6-9.17S229.33,130.5,229.33,130.5Z"/><path class="cls-15" d="M301.37,194.43s16.93,4.12,28.29,7.38,23.22,7,23.22,7,4.22,18.11-5.45,18.54-30.42-.94-48.06-7.62-25.6-15.71-22.5-18.7S301.37,194.43,301.37,194.43Z"/><path class="cls-4" d="M388,256.4c.94-.52,12.61-.65,16.36-2.87s7.79-9.08,9.32-9.72,4.19-.11,4.62,2.27a12.87,12.87,0,0,1-3.13,9.75c-2.72,3.09-9.26,6.68-10,9.71s-2.84,9.75-5.52,10-5.67-1.84-7.81-4.39a11.49,11.49,0,0,0-5.37-3.38S385.46,257.81,388,256.4Z"/><path class="cls-14" d="M386.8,255.71c.95-.52,12.61-.66,16.37-2.87s7.78-9.09,9.32-9.72,4.19-.12,4.62,2.27a12.91,12.91,0,0,1-3.13,9.75c-2.73,3.09-9.27,6.68-10,9.71s-2.85,9.75-5.52,10-5.68-1.84-7.82-4.4a11.51,11.51,0,0,0-5.36-3.37S384.25,257.12,386.8,255.71Z"/><path class="cls-16" d="M282.66,204c8.27-2.71,52.64,22.05,53.64,22.83s21.3,14.62,34.72,16.65a37.49,37.49,0,0,1,20.9,10.31s-5.94,5.22-5.25,9.29a37.19,37.19,0,0,1,.65,5.86s-19.25-3.94-31.11-7.46-18.58-12.54-25.56-11.78-37.67-.93-48.75-5.36C251.58,232.19,259.63,211.51,282.66,204Z"/><path class="cls-14" d="M391,240.52s-.48-5.75-1-5.44a7.71,7.71,0,0,0-4.47,4.2c-1.28,3.11-1.3,9.3-3.11,9.46s-4,6.53-4.08,9.6,7.95,12.41,10.33,11.1S391,240.52,391,240.52Z"/><path class="cls-4" d="M400.29,244c.26,6.48-2.27,9.09-4.5,11.43s-1.36,16.44-7.6,14.23-4.41-8.32-4.17-11.24,2-6.69,1.31-9.47c0,0-.24-11.71,4.65-13.9S400,237.55,400.29,244Z"/><path class="cls-4" d="M254.42,139.48s20.07-.89,25.16,12.15,21.79,42.8,21.79,42.8-17.84,4.79-25.15,13.23c-8.78,10.12-11.88,28.28-17.24,16.25s-1.37-10.76-5.84-16.17S230.07,179.38,227.9,173s2.17-21,4.24-23S254.42,139.48,254.42,139.48Z"/><path class="cls-15" d="M352.88,208.85c10.78,7.05,29.52,39.89,29.52,39.89s-3.1,1.2-2.41,8.91c.56,6.21,2.79,8.12,2.79,8.12s-15.56-13-22.7-21-14.67-16.26-14.67-16.26S342.1,201.79,352.88,208.85Z"/><path class="cls-16" d="M244,112.23c.36-.15,3.75-2.07,2.11-7.16a10.81,10.81,0,0,0-5.83-6.23c-3.59-1.59-16.1,3.58-19.83,6.38-2.89,2.17-4.41,9.6-2.71,14,3.58,9.2,16.16,13.31,16.91,13.61S230.92,117.61,244,112.23Z"/><path class="cls-17" d="M248.08,136.06a41.14,41.14,0,0,0,2.75,5.57c1.48,2.38,3.15,1.27.81,4.39s-14.77,4.82-17.48,4.88-2.36-3.22-2.36-3.22.48-10.36-1-13.77l-1.48-3.41Z"/><path class="cls-18" d="M231.38,132.8a9.86,9.86,0,0,0,2.85,3c2.23,1.72,11.61,3.49,13.45,3.49s1.83-.2,1.83-.2l-.69-1.31-.74-1.71Z"/><path class="cls-19" d="M243,106s6.36,5.65,6.88,7.62a19.28,19.28,0,0,1,.47,5c0,.77,1.85,3.66,2.17,6.71s.73,8.89,1.68,9.29-2.69,3.83-6.11,3.57-9.13-.36-11-1.35-5-2.87-5-2.87l-3.32-.06c-1.52,0-4.7-3.39-4.29-4.91s3.69-2.42,3.69-2.42,5.67,2.5,4.92.1-4.3-12.71-2.39-14.55,8-2.32,9.1-4.37A3.23,3.23,0,0,1,243,106Z"/><path class="cls-20" d="M258.72,214.25h2.91l51.54-29.79a3.13,3.13,0,0,1,2.85.12l31.08,17.94h2.73v1.91a.86.86,0,0,1-.5.91l-54,31.19c-.73.42-3.11,1-3.95.48l-32-19.71c-.55-.32-.78-.76-.66-1.13C258.72,216.17,258.72,214.25,258.72,214.25Z"/><path class="cls-21" d="M295.37,234.39l54-31.19c.74-.42.64-1.16-.2-1.65L316,182.44a3.16,3.16,0,0,0-2.85-.12l-54,31.2c-.73.42-.64,1.16.2,1.64l32,19.71C292.26,235.36,294.64,234.82,295.37,234.39Z"/><path class="cls-9" d="M294.37,231.9l49.72-28.75c.62-.36.55-1-.18-1.41l-21.62-12.42a2.74,2.74,0,0,0-2.44-.1L270.14,218c-.63.36-.55,1,.17,1.4l21.62,12.42A2.71,2.71,0,0,0,294.37,231.9Z"/><polygon class="cls-22" points="292.21 203.3 300.64 198.44 293.95 194.58 285.52 199.44 292.21 203.3"/><path class="cls-22" d="M301.65,197.85l2.36-1.36c.7-.4.61-1.1-.19-1.56L300,192.74a3,3,0,0,0-2.7-.11L295,194Z"/><path class="cls-22" d="M291.19,203.89l-2.36,1.36a3,3,0,0,1-2.7-.11L282.34,203c-.8-.46-.89-1.16-.2-1.56l2.37-1.36Z"/><path class="cls-21" d="M290.37,230l2,1.16a2.13,2.13,0,0,0,1.93.08l2.32-1.34c.49-.28.43-.78-.14-1.11l-2-1.16a2.13,2.13,0,0,0-1.93-.08l-2.32,1.34C289.73,229.18,289.8,229.68,290.37,230Z"/><path class="cls-21" d="M295,227.34l2,1.16a2.13,2.13,0,0,0,1.93.08l2.32-1.34c.49-.28.43-.78-.14-1.11l-2-1.16a2.11,2.11,0,0,0-1.92-.08l-2.32,1.33C294.36,226.51,294.42,227,295,227.34Z"/><path class="cls-21" d="M299.62,224.67l2,1.16a2.13,2.13,0,0,0,1.93.08l2.32-1.34c.49-.28.43-.78-.14-1.11l-2-1.17a2.16,2.16,0,0,0-1.93-.08l-2.32,1.34C299,223.84,299.05,224.34,299.62,224.67Z"/><path class="cls-21" d="M304.25,222l2,1.17a2.14,2.14,0,0,0,1.92.08l2.32-1.34c.5-.29.44-.78-.13-1.11l-2-1.17a2.16,2.16,0,0,0-1.93-.08l-2.32,1.34C303.62,221.17,303.68,221.66,304.25,222Z"/><path class="cls-21" d="M308.88,219.32l2,1.17a2.16,2.16,0,0,0,1.93.08l2.32-1.34c.5-.29.43-.79-.14-1.12L313,217a2.13,2.13,0,0,0-1.93-.08l-2.32,1.34C308.24,218.49,308.31,219,308.88,219.32Z"/><path class="cls-21" d="M313.5,216.65l2,1.17a2.19,2.19,0,0,0,1.93.08l2.32-1.34c.49-.29.43-.79-.14-1.12l-2-1.16a2.11,2.11,0,0,0-1.92-.08l-2.32,1.34C312.87,215.82,312.93,216.32,313.5,216.65Z"/><path class="cls-21" d="M318.13,214l2,1.16a2.13,2.13,0,0,0,1.93.08l2.32-1.34c.49-.28.43-.78-.14-1.11l-2-1.16a2.13,2.13,0,0,0-1.93-.08L318,212.87C317.5,213.15,317.56,213.65,318.13,214Z"/><path class="cls-21" d="M322.76,211.31l2,1.16a2.11,2.11,0,0,0,1.92.08l2.32-1.34c.5-.28.44-.78-.13-1.11l-2-1.17a2.16,2.16,0,0,0-1.93-.07l-2.32,1.33C322.13,210.48,322.19,211,322.76,211.31Z"/><path class="cls-21" d="M327.39,208.64l2,1.16a2.13,2.13,0,0,0,1.93.08l2.32-1.34c.5-.28.43-.78-.14-1.11l-2-1.17a2.16,2.16,0,0,0-1.93-.08l-2.32,1.34C326.75,207.81,326.82,208.31,327.39,208.64Z"/><path class="cls-21" d="M332,206l2,1.17a2.16,2.16,0,0,0,1.93.08l2.32-1.34c.49-.29.43-.78-.14-1.11l-2-1.17a2.14,2.14,0,0,0-1.92-.08l-2.32,1.34C331.38,205.14,331.44,205.63,332,206Z"/><path class="cls-21" d="M336.64,203.29l2,1.17a2.16,2.16,0,0,0,1.93.08l2.32-1.34c.49-.29.43-.79-.14-1.12l-2-1.16a2.13,2.13,0,0,0-1.93-.08l-2.32,1.34C336,202.46,336.07,203,336.64,203.29Z"/><path class="cls-21" d="M285.66,227.29l2,1.17a2.14,2.14,0,0,0,1.92.08l3.7-2.14c.5-.28.43-.78-.14-1.11l-2-1.17a2.14,2.14,0,0,0-1.92-.08l-3.7,2.14C285,226.46,285.09,227,285.66,227.29Z"/><path class="cls-21" d="M291.27,224.05l2,1.17a2.16,2.16,0,0,0,1.93.08l2.32-1.34c.49-.29.43-.78-.14-1.11l-2-1.17a2.14,2.14,0,0,0-1.92-.08l-2.32,1.34C290.63,223.23,290.69,223.72,291.27,224.05Z"/><path class="cls-21" d="M295.36,221.69l2,1.17a2.16,2.16,0,0,0,1.93.08l2.32-1.34c.5-.29.43-.79-.14-1.12l-2-1.16a2.13,2.13,0,0,0-1.93-.08l-2.32,1.34C294.72,220.86,294.79,221.36,295.36,221.69Z"/><path class="cls-21" d="M299.45,219.33l2,1.16a2.13,2.13,0,0,0,1.93.08l2.32-1.34c.5-.28.43-.78-.14-1.11l-2-1.16a2.13,2.13,0,0,0-1.93-.08l-2.32,1.34C298.82,218.5,298.88,219,299.45,219.33Z"/><path class="cls-21" d="M303.54,217l2,1.16a2.11,2.11,0,0,0,1.92.08l2.32-1.34c.5-.28.44-.78-.14-1.11l-2-1.16a2.13,2.13,0,0,0-1.93-.08l-2.32,1.33C302.91,216.14,303,216.64,303.54,217Z"/><path class="cls-21" d="M307.63,214.61l2,1.16a2.11,2.11,0,0,0,1.92.08l2.32-1.34c.5-.28.44-.78-.13-1.11l-2-1.17a2.16,2.16,0,0,0-1.93-.08l-2.32,1.34C307,213.78,307.06,214.28,307.63,214.61Z"/><path class="cls-21" d="M311.72,212.24l2,1.17a2.16,2.16,0,0,0,1.93.08l2.32-1.34c.49-.29.43-.78-.14-1.11l-2-1.17a2.16,2.16,0,0,0-1.93-.08l-2.32,1.34C311.09,211.42,311.15,211.91,311.72,212.24Z"/><path class="cls-21" d="M315.81,209.88l2,1.17a2.16,2.16,0,0,0,1.93.08l2.32-1.34c.49-.29.43-.79-.14-1.12l-2-1.16a2.13,2.13,0,0,0-1.93-.08l-2.32,1.34C315.18,209.05,315.24,209.55,315.81,209.88Z"/><path class="cls-21" d="M319.9,207.52l2,1.16a2.13,2.13,0,0,0,1.93.08l2.32-1.33c.49-.29.43-.79-.14-1.12l-2-1.16a2.13,2.13,0,0,0-1.93-.08l-2.32,1.34C319.27,206.69,319.33,207.19,319.9,207.52Z"/><path class="cls-21" d="M324,205.16l2,1.16a2.13,2.13,0,0,0,1.93.08l2.32-1.34c.49-.28.43-.78-.14-1.11l-2-1.16a2.11,2.11,0,0,0-1.92-.08l-2.32,1.34C323.36,204.33,323.42,204.83,324,205.16Z"/><path class="cls-21" d="M328.09,202.8l2,1.16A2.13,2.13,0,0,0,332,204l2.32-1.34c.49-.28.43-.78-.14-1.11l-2-1.17a2.14,2.14,0,0,0-1.92-.08L328,201.68C327.45,202,327.51,202.47,328.09,202.8Z"/><path class="cls-21" d="M287.48,220.8l2,1.17a2.16,2.16,0,0,0,1.93.08l2.32-1.34c.49-.29.43-.79-.14-1.12l-2-1.16a2.13,2.13,0,0,0-1.93-.08l-2.32,1.34C286.85,220,286.91,220.47,287.48,220.8Z"/><path class="cls-21" d="M291.54,218.46l2,1.16a2.13,2.13,0,0,0,1.93.08l2.31-1.34c.5-.28.44-.78-.13-1.11l-2-1.16a2.13,2.13,0,0,0-1.93-.08l-2.32,1.34C290.91,217.63,291,218.13,291.54,218.46Z"/><path class="cls-21" d="M295.6,216.11l2,1.17a2.14,2.14,0,0,0,1.92.08l2.32-1.34c.5-.29.44-.78-.13-1.11l-2-1.17a2.16,2.16,0,0,0-1.93-.08L295.46,215C295,215.29,295,215.78,295.6,216.11Z"/><path class="cls-21" d="M299.66,213.77l2,1.17a2.17,2.17,0,0,0,1.92.08l2.32-1.34c.5-.29.44-.79-.13-1.12l-2-1.16a2.13,2.13,0,0,0-1.93-.08l-2.32,1.34C299,212.94,299.09,213.44,299.66,213.77Z"/><path class="cls-21" d="M303.72,211.43l2,1.16a2.11,2.11,0,0,0,1.92.08l2.32-1.34c.5-.28.44-.78-.13-1.11l-2-1.17a2.16,2.16,0,0,0-1.93-.08l-2.32,1.34C303.09,210.6,303.15,211.1,303.72,211.43Z"/><path class="cls-21" d="M307.78,209.08l2,1.17a2.14,2.14,0,0,0,1.92.08L314,209c.5-.29.44-.79-.14-1.11l-2-1.17a2.16,2.16,0,0,0-1.93-.08L307.64,208C307.15,208.25,307.21,208.75,307.78,209.08Z"/><path class="cls-21" d="M311.84,206.74l2,1.16a2.11,2.11,0,0,0,1.92.08l2.32-1.34c.5-.28.43-.78-.14-1.11l-2-1.16a2.13,2.13,0,0,0-1.93-.08l-2.32,1.34C311.21,205.91,311.27,206.41,311.84,206.74Z"/><path class="cls-21" d="M315.9,204.4l2,1.16a2.13,2.13,0,0,0,1.93.08l2.32-1.34c.5-.28.43-.78-.14-1.11L320,202a2.16,2.16,0,0,0-1.93-.08l-2.32,1.34C315.26,203.57,315.33,204.07,315.9,204.4Z"/><path class="cls-21" d="M284.8,216.91l2,1.17a2.16,2.16,0,0,0,1.93.08l2.32-1.34c.49-.29.43-.79-.14-1.12l-2-1.16a2.13,2.13,0,0,0-1.93-.08l-2.32,1.34C284.17,216.08,284.23,216.58,284.8,216.91Z"/><path class="cls-21" d="M288.86,214.57l2,1.16a2.13,2.13,0,0,0,1.93.08l2.32-1.34c.49-.28.43-.78-.14-1.11l-2-1.16a2.13,2.13,0,0,0-1.93-.08l-2.32,1.33C288.23,213.74,288.29,214.24,288.86,214.57Z"/><path class="cls-21" d="M292.92,212.22l2,1.17a2.16,2.16,0,0,0,1.93.08l2.32-1.34c.49-.29.43-.78-.14-1.11l-2-1.17a2.16,2.16,0,0,0-1.93-.08l-2.32,1.34C292.29,211.4,292.35,211.89,292.92,212.22Z"/><path class="cls-21" d="M271.46,219.18l2,1.16a2.13,2.13,0,0,0,1.93.08l2.32-1.33c.49-.29.43-.79-.14-1.12l-2-1.16a2.13,2.13,0,0,0-1.93-.08l-2.32,1.34C270.82,218.35,270.89,218.85,271.46,219.18Z"/><path class="cls-21" d="M275.52,216.84l2,1.16a2.13,2.13,0,0,0,1.93.08l2.32-1.34c.49-.28.43-.78-.14-1.11l-2-1.17a2.14,2.14,0,0,0-1.92-.08l-2.32,1.34C274.88,216,275,216.51,275.52,216.84Z"/><path class="cls-21" d="M279.58,214.49l2,1.17a2.16,2.16,0,0,0,1.93.08l2.32-1.34c.49-.29.43-.79-.14-1.12l-2-1.16a2.11,2.11,0,0,0-1.92-.08l-2.32,1.34C278.94,213.66,279,214.16,279.58,214.49Z"/><path class="cls-21" d="M309.69,197.11l2,1.16a2.11,2.11,0,0,0,1.92.08L316,197c.5-.28.44-.78-.13-1.11l-2-1.17a2.16,2.16,0,0,0-1.93-.08L309.55,196C309.06,196.28,309.12,196.78,309.69,197.11Z"/><path class="cls-21" d="M313.75,194.76l2,1.17a2.14,2.14,0,0,0,1.92.08l2.32-1.34c.5-.29.44-.79-.14-1.11l-2-1.17a2.13,2.13,0,0,0-1.93-.08l-2.32,1.34C313.12,193.93,313.18,194.43,313.75,194.76Z"/><path class="cls-21" d="M317.81,192.42l2,1.16a2.11,2.11,0,0,0,1.92.08l2.32-1.34c.5-.28.43-.78-.14-1.11l-2-1.16A2.13,2.13,0,0,0,320,190l-2.32,1.34C317.18,191.59,317.24,192.09,317.81,192.42Z"/><path class="cls-21" d="M297,209.88l2,1.16a2.13,2.13,0,0,0,1.93.08l2.32-1.33c.49-.29.43-.79-.14-1.12l-2-1.16a2.13,2.13,0,0,0-1.93-.08l-2.32,1.34C296.35,209.05,296.41,209.55,297,209.88Z"/><path class="cls-21" d="M301,207.54l2,1.16a2.13,2.13,0,0,0,1.93.08l2.31-1.34c.5-.28.44-.78-.13-1.11l-2-1.17a2.16,2.16,0,0,0-1.93-.08l-2.32,1.34C300.41,206.71,300.47,207.21,301,207.54Z"/><path class="cls-21" d="M305.1,205.19l2,1.17a2.14,2.14,0,0,0,1.92.08l2.32-1.34c.5-.29.44-.79-.13-1.11l-2-1.17a2.16,2.16,0,0,0-1.93-.08L305,204.08C304.47,204.37,304.53,204.86,305.1,205.19Z"/><path class="cls-21" d="M309.16,202.85l2,1.16a2.11,2.11,0,0,0,1.92.08l2.32-1.34c.5-.28.44-.78-.13-1.11l-2-1.16a2.13,2.13,0,0,0-1.93-.08L309,201.74C308.53,202,308.59,202.52,309.16,202.85Z"/><path class="cls-21" d="M313.22,200.5l2,1.17a2.14,2.14,0,0,0,1.92.08l2.32-1.34c.5-.29.44-.78-.13-1.11l-2-1.17a2.16,2.16,0,0,0-1.93-.08l-2.32,1.34C312.59,199.68,312.65,200.18,313.22,200.5Z"/><path class="cls-21" d="M320,202.05l2,1.17a2.16,2.16,0,0,0,1.93.08l2.32-1.34c.5-.29.43-.79-.14-1.12l-2-1.16a2.13,2.13,0,0,0-1.93-.08l-2.32,1.34C319.32,201.22,319.39,201.72,320,202.05Z"/><path class="cls-21" d="M331.93,200.57l2,1.17a2.16,2.16,0,0,0,1.93.08l2.32-1.34c.49-.29.43-.78-.14-1.11l-2-1.17a2.16,2.16,0,0,0-1.93-.08l-2.31,1.34C331.3,199.75,331.36,200.24,331.93,200.57Z"/><path class="cls-21" d="M281,224.57l2,1.17a2.14,2.14,0,0,0,1.92.08l4.72-2.73c.5-.28.44-.78-.13-1.11l-2-1.17a2.19,2.19,0,0,0-1.93-.08l-4.72,2.73C280.32,223.75,280.38,224.24,281,224.57Z"/><path class="cls-21" d="M317.53,198l2,1.17a2.16,2.16,0,0,0,1.93.08l7.3-4.22c.5-.28.43-.78-.14-1.11l-2-1.17a2.2,2.2,0,0,0-1.93-.08l-7.31,4.22C316.9,197.19,317,197.69,317.53,198Z"/><path class="cls-21" d="M283.92,212l2,1.16a2.13,2.13,0,0,0,1.93.08l23.67-13.66c.49-.29.43-.79-.14-1.12l-2-1.16a2.16,2.16,0,0,0-1.93-.08l-23.66,13.66C283.29,211.16,283.35,211.66,283.92,212Z"/><path class="cls-21" d="M276.24,221.85l2,1.17a2.16,2.16,0,0,0,1.93.08l6.21-3.59c.5-.29.44-.78-.13-1.11l-2-1.17a2.16,2.16,0,0,0-1.93-.08l-6.22,3.59C275.61,221,275.67,221.52,276.24,221.85Z"/><path class="cls-21" d="M324,199.69l2,1.17a2.16,2.16,0,0,0,1.93.08l5.5-3.18c.49-.28.43-.78-.14-1.11l-2-1.17a2.14,2.14,0,0,0-1.92-.08l-5.5,3.18C323.41,198.86,323.47,199.36,324,199.69Z"/><path class="cls-22" d="M292.58,227.41l-2.28,1.31c-.37.22-.32.58.1.83l2.05,1.18a1.58,1.58,0,0,0,1.43.06l2.28-1.32c.37-.21.32-.57-.1-.82L294,227.46A1.55,1.55,0,0,0,292.58,227.41Z"/><path class="cls-22" d="M297.21,224.73l-2.29,1.32c-.36.21-.32.58.11.83l2.05,1.18a1.58,1.58,0,0,0,1.43.06l2.28-1.32c.37-.21.32-.58-.1-.82l-2.06-1.19A1.59,1.59,0,0,0,297.21,224.73Z"/><path class="cls-22" d="M301.83,222.06l-2.28,1.32c-.36.21-.32.58.1.82l2.06,1.19a1.59,1.59,0,0,0,1.42.06l2.29-1.32c.36-.21.32-.58-.1-.82l-2.06-1.19A1.61,1.61,0,0,0,301.83,222.06Z"/><path class="cls-22" d="M306.46,219.39l-2.28,1.32c-.37.21-.32.58.1.82l2.06,1.19a1.59,1.59,0,0,0,1.42.06l2.29-1.32c.36-.21.31-.58-.11-.82l-2.05-1.19A1.61,1.61,0,0,0,306.46,219.39Z"/><path class="cls-22" d="M311.09,216.72,308.81,218c-.37.21-.32.58.1.82l2,1.19a1.61,1.61,0,0,0,1.43.06l2.28-1.32c.37-.21.32-.58-.1-.82l-2.06-1.19A1.56,1.56,0,0,0,311.09,216.72Z"/><path class="cls-22" d="M315.72,214.05l-2.29,1.32c-.36.21-.32.57.11.82l2,1.19a1.57,1.57,0,0,0,1.43.05l2.28-1.31c.37-.21.32-.58-.1-.83l-2.06-1.18A1.56,1.56,0,0,0,315.72,214.05Z"/><path class="cls-22" d="M320.34,211.38l-2.28,1.31c-.36.21-.32.58.1.83l2.06,1.18a1.56,1.56,0,0,0,1.42.06l2.29-1.32c.36-.21.32-.57-.1-.82l-2.06-1.19A1.57,1.57,0,0,0,320.34,211.38Z"/><path class="cls-22" d="M325,208.7,322.69,210c-.37.21-.32.58.1.82l2.06,1.19a1.56,1.56,0,0,0,1.42.06l2.29-1.32c.36-.21.31-.58-.11-.82l-2.05-1.19A1.61,1.61,0,0,0,325,208.7Z"/><path class="cls-22" d="M329.6,206l-2.28,1.32c-.37.21-.32.58.1.82l2.06,1.19a1.59,1.59,0,0,0,1.42.06l2.28-1.32c.37-.21.32-.58-.1-.82L331,206.09A1.59,1.59,0,0,0,329.6,206Z"/><path class="cls-22" d="M334.23,203.36l-2.29,1.32c-.36.21-.32.58.11.82l2.05,1.19a1.61,1.61,0,0,0,1.43.06l2.28-1.32c.37-.21.32-.58-.1-.82l-2.06-1.19A1.59,1.59,0,0,0,334.23,203.36Z"/><path class="cls-22" d="M338.85,200.69,336.57,202c-.36.21-.32.58.1.82l2.06,1.19a1.59,1.59,0,0,0,1.42.06l2.29-1.32c.36-.21.32-.58-.1-.83l-2.06-1.18A1.58,1.58,0,0,0,338.85,200.69Z"/><path class="cls-22" d="M289.25,223.89,285.59,226c-.37.21-.32.57.1.82l2.06,1.19a1.55,1.55,0,0,0,1.42,0l3.66-2.11c.37-.21.32-.58-.1-.82L290.67,224A1.59,1.59,0,0,0,289.25,223.89Z"/><path class="cls-22" d="M293.48,221.45l-2.28,1.32c-.37.21-.32.58.1.82l2.05,1.19a1.61,1.61,0,0,0,1.43.06l2.28-1.32c.37-.21.32-.58-.1-.82l-2.06-1.19A1.59,1.59,0,0,0,293.48,221.45Z"/><path class="cls-22" d="M297.57,219.09l-2.28,1.32c-.37.21-.32.58.1.82l2.06,1.19a1.59,1.59,0,0,0,1.42.06l2.28-1.32c.37-.21.32-.58-.1-.83L299,219.15A1.56,1.56,0,0,0,297.57,219.09Z"/><path class="cls-22" d="M301.66,216.73,299.38,218c-.37.21-.32.58.1.83l2.06,1.18a1.56,1.56,0,0,0,1.42.06l2.28-1.32c.37-.21.32-.57-.1-.82l-2.05-1.18A1.58,1.58,0,0,0,301.66,216.73Z"/><path class="cls-22" d="M305.75,214.36l-2.28,1.32c-.37.21-.32.58.1.82l2.06,1.19a1.56,1.56,0,0,0,1.42.06l2.28-1.32c.37-.21.32-.58-.1-.82l-2.05-1.19A1.61,1.61,0,0,0,305.75,214.36Z"/><path class="cls-22" d="M309.84,212l-2.28,1.32c-.37.21-.32.58.1.82l2.06,1.19a1.59,1.59,0,0,0,1.42.06l2.29-1.32c.36-.21.32-.58-.11-.82l-2.05-1.19A1.61,1.61,0,0,0,309.84,212Z"/><path class="cls-22" d="M313.93,209.64,311.65,211c-.36.21-.32.58.1.82l2.06,1.19a1.59,1.59,0,0,0,1.42.06l2.29-1.32c.36-.21.32-.58-.1-.82l-2.06-1.19A1.61,1.61,0,0,0,313.93,209.64Z"/><path class="cls-22" d="M318,207.28l-2.28,1.32c-.36.21-.32.58.1.82l2.06,1.19a1.59,1.59,0,0,0,1.42.06l2.29-1.32c.36-.21.32-.58-.1-.83l-2.06-1.18A1.58,1.58,0,0,0,318,207.28Z"/><path class="cls-22" d="M322.12,204.92l-2.29,1.31c-.36.22-.32.58.1.83l2.06,1.18a1.58,1.58,0,0,0,1.43.06L325.7,207c.36-.21.32-.57-.1-.82L323.54,205A1.56,1.56,0,0,0,322.12,204.92Z"/><path class="cls-22" d="M326.21,202.55l-2.29,1.32c-.36.21-.32.58.11.83l2.05,1.18a1.58,1.58,0,0,0,1.43.06l2.28-1.32c.37-.21.32-.58-.1-.82l-2.06-1.19A1.59,1.59,0,0,0,326.21,202.55Z"/><path class="cls-22" d="M330.3,200.19,328,201.51c-.36.21-.31.58.11.82l2.05,1.19a1.61,1.61,0,0,0,1.43.06l2.28-1.32c.37-.21.32-.58-.1-.82l-2.06-1.19A1.59,1.59,0,0,0,330.3,200.19Z"/><path class="cls-22" d="M289.69,218.2l-2.28,1.32c-.37.21-.32.58.1.82l2.06,1.19a1.59,1.59,0,0,0,1.42.06l2.29-1.32c.36-.21.32-.58-.11-.83l-2.05-1.18A1.58,1.58,0,0,0,289.69,218.2Z"/><path class="cls-22" d="M293.75,215.85l-2.28,1.32c-.37.21-.32.58.1.83l2.06,1.18a1.56,1.56,0,0,0,1.42.06l2.29-1.32c.36-.21.32-.58-.11-.82l-2.05-1.19A1.61,1.61,0,0,0,293.75,215.85Z"/><path class="cls-22" d="M297.81,213.51l-2.28,1.32c-.37.21-.32.58.1.82l2.06,1.19a1.59,1.59,0,0,0,1.42.06l2.29-1.32c.36-.21.32-.58-.11-.82l-2.05-1.19A1.61,1.61,0,0,0,297.81,213.51Z"/><path class="cls-22" d="M301.87,211.17l-2.28,1.32c-.37.21-.32.57.1.82l2.06,1.19a1.59,1.59,0,0,0,1.42.05l2.29-1.31c.36-.21.31-.58-.11-.83l-2.05-1.18A1.58,1.58,0,0,0,301.87,211.17Z"/><path class="cls-22" d="M305.93,208.82l-2.28,1.32c-.37.21-.32.58.1.82l2.06,1.19a1.59,1.59,0,0,0,1.42.06l2.29-1.32c.36-.21.31-.58-.11-.82l-2.05-1.19A1.61,1.61,0,0,0,305.93,208.82Z"/><path class="cls-22" d="M310,206.48l-2.28,1.32c-.37.21-.32.58.1.82l2.06,1.19a1.59,1.59,0,0,0,1.42.06l2.28-1.32c.37-.21.32-.58-.1-.82l-2.05-1.19A1.61,1.61,0,0,0,310,206.48Z"/><path class="cls-22" d="M314.05,204.14l-2.28,1.31c-.37.21-.32.58.1.83l2.06,1.18a1.56,1.56,0,0,0,1.42.06l2.28-1.32c.37-.21.32-.57-.1-.82l-2-1.19A1.58,1.58,0,0,0,314.05,204.14Z"/><path class="cls-22" d="M318.11,201.79l-2.28,1.32c-.37.21-.32.58.1.82l2.06,1.19a1.59,1.59,0,0,0,1.42.06l2.28-1.32c.37-.21.32-.58-.1-.82l-2-1.19A1.61,1.61,0,0,0,318.11,201.79Z"/><path class="cls-22" d="M287,214.31l-2.29,1.32c-.36.21-.32.58.1.82l2.06,1.19a1.59,1.59,0,0,0,1.42.06l2.29-1.32c.36-.21.32-.58-.1-.83l-2.06-1.18A1.56,1.56,0,0,0,287,214.31Z"/><path class="cls-22" d="M291.07,212l-2.28,1.32c-.36.21-.32.58.1.83l2.06,1.18a1.56,1.56,0,0,0,1.42.06l2.29-1.32c.36-.21.32-.58-.1-.82L292.5,212A1.61,1.61,0,0,0,291.07,212Z"/><path class="cls-22" d="M295.13,209.62l-2.28,1.32c-.36.21-.32.58.1.82L295,213a1.59,1.59,0,0,0,1.42.06l2.29-1.32c.36-.21.32-.58-.1-.82l-2.06-1.19A1.61,1.61,0,0,0,295.13,209.62Z"/><path class="cls-22" d="M273.67,216.58l-2.28,1.31c-.37.22-.32.58.1.83l2.05,1.18A1.58,1.58,0,0,0,275,220l2.28-1.31c.37-.22.32-.58-.1-.83l-2.06-1.18A1.56,1.56,0,0,0,273.67,216.58Z"/><path class="cls-22" d="M277.73,214.23l-2.28,1.32c-.37.21-.32.58.1.82l2.05,1.19a1.61,1.61,0,0,0,1.43.06l2.28-1.32c.37-.21.32-.58-.1-.82l-2.06-1.19A1.59,1.59,0,0,0,277.73,214.23Z"/><path class="cls-22" d="M281.79,211.89l-2.28,1.32c-.37.21-.32.58.1.82l2.05,1.19a1.61,1.61,0,0,0,1.43.06l2.28-1.32c.37-.21.32-.58-.1-.82L283.21,212A1.56,1.56,0,0,0,281.79,211.89Z"/><path class="cls-22" d="M311.9,194.5l-2.28,1.32c-.37.21-.32.58.1.82l2.06,1.19a1.59,1.59,0,0,0,1.42.06l2.29-1.32c.36-.21.31-.58-.11-.82l-2.05-1.19A1.61,1.61,0,0,0,311.9,194.5Z"/><path class="cls-22" d="M316,192.16l-2.28,1.32c-.37.21-.32.58.1.82l2.06,1.19a1.59,1.59,0,0,0,1.42.06l2.28-1.32c.37-.21.32-.58-.1-.82l-2.05-1.19A1.58,1.58,0,0,0,316,192.16Z"/><path class="cls-22" d="M320,189.82l-2.28,1.31c-.37.21-.32.58.1.83l2.06,1.18a1.56,1.56,0,0,0,1.42.06l2.28-1.32c.37-.21.32-.58-.1-.82l-2.05-1.19A1.58,1.58,0,0,0,320,189.82Z"/><path class="cls-22" d="M299.19,207.28l-2.28,1.31c-.36.22-.32.58.1.83l2.06,1.18a1.56,1.56,0,0,0,1.42.06l2.29-1.31c.36-.22.32-.58-.11-.83l-2.05-1.18A1.58,1.58,0,0,0,299.19,207.28Z"/><path class="cls-22" d="M303.25,204.93,301,206.25c-.37.21-.32.58.1.82l2.06,1.19a1.59,1.59,0,0,0,1.42.06l2.29-1.32c.36-.21.32-.58-.11-.82L304.68,205A1.61,1.61,0,0,0,303.25,204.93Z"/><path class="cls-22" d="M307.31,202.59,305,203.91c-.37.21-.32.58.1.82l2.06,1.19a1.59,1.59,0,0,0,1.42.06l2.29-1.32c.36-.21.32-.58-.11-.82l-2.05-1.19A1.58,1.58,0,0,0,307.31,202.59Z"/><path class="cls-22" d="M311.37,200.25l-2.28,1.31c-.37.21-.32.58.1.83l2.06,1.18a1.56,1.56,0,0,0,1.42.06l2.29-1.32c.36-.21.32-.57-.11-.82l-2.05-1.19A1.57,1.57,0,0,0,311.37,200.25Z"/><path class="cls-22" d="M315.43,197.9l-2.28,1.32c-.37.21-.32.58.1.82l2.06,1.19a1.59,1.59,0,0,0,1.42.06L319,200c.36-.21.31-.58-.11-.82L316.86,198A1.61,1.61,0,0,0,315.43,197.9Z"/><path class="cls-22" d="M322.17,199.45l-2.28,1.32c-.37.21-.32.58.1.82l2.06,1.19a1.59,1.59,0,0,0,1.42.06l2.28-1.32c.37-.21.32-.58-.1-.83l-2.06-1.18A1.56,1.56,0,0,0,322.17,199.45Z"/><path class="cls-22" d="M334.15,198l-2.29,1.32c-.36.21-.32.58.11.82l2,1.19a1.61,1.61,0,0,0,1.43.06l2.28-1.32c.36-.21.32-.58-.1-.82L335.57,198A1.59,1.59,0,0,0,334.15,198Z"/><path class="cls-22" d="M285.56,220.58l-4.68,2.71c-.37.21-.32.58.1.82L283,225.3a1.59,1.59,0,0,0,1.42.06l4.69-2.71c.36-.21.32-.58-.11-.82L287,220.64A1.61,1.61,0,0,0,285.56,220.58Z"/><path class="cls-22" d="M324.73,192.53l-7.27,4.2c-.36.21-.32.58.1.82l2.06,1.19a1.61,1.61,0,0,0,1.43.06l7.26-4.2c.37-.21.32-.58-.1-.82l-2.06-1.19A1.59,1.59,0,0,0,324.73,192.53Z"/><path class="cls-22" d="M307.47,197.06,283.85,210.7c-.37.21-.32.58.1.82l2.06,1.19a1.59,1.59,0,0,0,1.42.06l23.63-13.64c.36-.21.32-.58-.1-.82l-2.06-1.19A1.58,1.58,0,0,0,307.47,197.06Z"/><path class="cls-22" d="M282.35,217l-6.18,3.57c-.36.21-.32.58.1.82l2.06,1.19a1.59,1.59,0,0,0,1.42.06l6.19-3.57c.36-.21.32-.58-.11-.82l-2.05-1.19A1.61,1.61,0,0,0,282.35,217Z"/><path class="cls-22" d="M329.44,195.25,324,198.41c-.36.21-.32.58.11.82l2.05,1.19a1.61,1.61,0,0,0,1.43.06l5.46-3.16c.37-.21.32-.58-.1-.82l-2.06-1.19A1.59,1.59,0,0,0,329.44,195.25Z"/><path class="cls-23" d="M297.13,235.26l53.75-32.45a2,2,0,0,0,.94-1.61L353,168.11c0-.59-1.56-1.37-2.08-1.07l-54.58,31.6a2.06,2.06,0,0,0-.93,1.61v33.63C295.37,234.47,296.62,235.56,297.13,235.26Z"/><path class="cls-9" d="M297.47,235.14,352,203.54a2.06,2.06,0,0,0,.94-1.61V168.3c0-.59-.42-.83-.94-.54l-54.57,31.6a2.06,2.06,0,0,0-.94,1.61v33.64C296.53,235.2,297,235.44,297.47,235.14Z"/><path class="cls-12" d="M243.6,185.75a120.24,120.24,0,0,1,3.31,21.91s22.06-1.83,24.07-2.3c2.28-.53,7.6-5.16,7.6-5.16s3.54-3,6.94-.76,6,.82,6,.82,2.43,3.08-1.35,3.06a46,46,0,0,0-7.54.66l5.79-.12a6.84,6.84,0,0,1,6.22,2.34l.79.94-.18,6.82s-1.63-3.47-5.69-1.73c-3.27,1.41-5.17,2.31-13.82,1.43a40.34,40.34,0,0,0-5.34,1.55s-16.34,8.62-25.27,8.85-6.48-3.89-13.4-13.52-6.54-21.3-7.93-24.1-7.25-13.37-5.06-21.92,9.95-12,14.79-9.3S241.21,176.08,243.6,185.75Z"/><path class="cls-13" d="M233.6,151.61s5.9,1,8.66,13.45,2.56,18.84,2.56,18.84,2.41,8.47-5.65,9.68-14.7-2.26-16.28-4.06-.62-.85-2.26-5.81-5.07-23.15-.39-26.66S227.45,149.33,233.6,151.61Z"/><path class="cls-11" d="M422.54,166.22a1.43,1.43,0,0,1-1.42.15c-5-2.88-11.74-2.19-18.87,1.92s-13.84,11.18-18.88,19.87c-.78,1.35-2.05,2.08-2.83,1.64s-.78-1.9,0-3.25c5.8-10,13.51-18.12,21.71-22.85s15.9-5.52,21.7-2.22c.78.45.78,1.9,0,3.25A4,4,0,0,1,422.54,166.22Z"/><path class="cls-11" d="M410.48,187a1.45,1.45,0,0,1-1.42.14c-3.76-2.14-9.87,1.39-13.63,7.87-.78,1.35-2,2.08-2.83,1.63s-.78-1.9,0-3.25c5.32-9.17,14-14.16,19.29-11.13.78.44.78,1.9,0,3.25A4.15,4.15,0,0,1,410.48,187Z"/><path class="cls-11" d="M416.58,176.41a1.41,1.41,0,0,1-1.41.15c-3.45-2-8-1.5-12.92,1.31s-9.47,7.65-12.92,13.6c-.78,1.35-2.05,2.08-2.83,1.64s-.78-1.9,0-3.25c4.21-7.26,9.8-13.14,15.75-16.58s11.54-4,15.75-1.61c.78.45.78,1.9,0,3.25A4,4,0,0,1,416.58,176.41Z"/><path class="cls-11" d="M402.25,205.13c-2.36,1.36-4.27.27-4.27-2.44a9.4,9.4,0,0,1,4.27-7.36c2.35-1.36,4.27-.27,4.27,2.43A9.43,9.43,0,0,1,402.25,205.13Z"/><path class="cls-11" d="M466.81,270.9s10.75-3.85,9,2.25-18.59,10.41-15.9,13.07,12.18-2.26,17.46-6.63c3.81-3.15,5.83-10.15.9-12.58s-12.78.45-12.78.45Z"/><path class="cls-23" d="M462.35,258.11s2.45-10.57.43-17.79c-4.73-.82-9.55,7.82-11.29,11.15-2.52,4.83-5.45,10-7.27,15.3a3.89,3.89,0,0,0,.16.41,12.38,12.38,0,0,0,3,4.08s-4.77,2.9-6.71,4.44c-.31.71-.62,1.41-1,2.1.21,1.32,1.29,2.81,2.64,2.7,1.95-.16,18.66-8.17,20.08-10.63.82-1.42,1.17-4.07,1.31-6.08C463.8,262.31,462.35,258.11,462.35,258.11Z"/><path class="cls-22" d="M470.28,262.1s9.13-26.13-14-25a11,11,0,0,0-6.88,3.16s-2.23-5.34-2.49-7.32c-.14-1.11-.2-1.83-.2-1.83s-3,2.37-6.32,5.17c-1.57,1.31-3.22,2.71-4.7,4-2.61,2.28-4.68,4.23-4.77,4.74,0,0,0,.08,0,.22-.25,1.45-1.62,9.64-.63,11.73,1.09,2.31,3.95,9.84,3.7,13.51s-.95,10.63-1.45,10.63a5.15,5.15,0,0,0-2,.89c-.8.45-.16,3.05,2,2.81a4.53,4.53,0,0,0,3.53-2c.58-.76,3.46-14.87,3.37-15.7s2.26.51,2.26.51a38.83,38.83,0,0,1,.46,4.61c-.11.73-2.58,13.55-2.58,13.55s-1.59.25-1.72,1,.71,2.48,2.9,2.87,3.3-1.57,3.64-2.35c.13-.31,1-3.2,2-6.54,0,1.39,1.2,3.19,2.68,3.07,1.94-.16,18.66-8.17,20.08-10.64.81-1.41,1.16-4.07,1.31-6.07.05-.62,0-1.57,0-2.48C470.36,263.31,470.28,262.1,470.28,262.1Zm-23.61,17.49c1.42-4.76,3-10,3-10l1.48-5.59c-.47,2.29-.76,5,0,6.43a12.38,12.38,0,0,0,3,4.08S447.69,278.41,446.67,279.59Z"/><path class="cls-11" d="M470.28,262.1s.08,1.21.12,2.5a2.1,2.1,0,0,1-1.35.83c-5.6.28,0-6.33-2.24-7s0-6.05-4.67-6.84-5.4,7.06-9.21,9.1,0-2-2-6.55-8.32-7.35-7.87-11.86a6.94,6.94,0,0,0-2.74-6c3.36-2.8,6.32-5.17,6.32-5.17s.06.72.19,1.76c.27,2,2.5,7.39,2.5,7.39a11,11,0,0,1,6.88-3.16C479.41,236,470.28,262.1,470.28,262.1Z"/><path class="cls-11" d="M429.09,231.47a13.23,13.23,0,0,1-1.54-7.47c.54-3.6,1.8-4.59,1.8-4.59s5.31,5.19,5.49,5.43-4.76,4.46-5.25,5.54Z"/><path class="cls-22" d="M429.09,231.47a13.23,13.23,0,0,1-1.54-7.47c.54-3.6,1.8-4.59,1.8-4.59s.67,9,.85,9.24-.12.65-.61,1.73Z"/><path class="cls-22" d="M446.86,232.94c.12,1.57-1.73,3.62-3.54,5.21-.76.68-1.52,1.26-2.12,1.7-.45.32-.82.57-1,.69-1.06.61-5.39,3.56-8.28,4.55a6.2,6.2,0,0,1-1,.26c-2.43.42-3.73-.55-4.86-1-3.1-1.25-2.49-4.62-2.49-5s1-1.44,1-2.11a18.16,18.16,0,0,1,.76-5.47c.76-2.26,4.19-4.7,4.19-4.7,6.7-5.29,9.8-3.42,12.91-2.14,4.59,1.87,4.24,5.28,4.42,8A.17.17,0,0,1,446.86,232.94Z"/><path class="cls-11" d="M446.86,232.94c.12,1.57-1.73,3.62-3.54,5.21-.76.68-1.52,1.26-2.12,1.7-3.35.88-4.25.44-4.9-1.41s-6.29.64-7.95-.28c-.6-.33-.78-2.57-.9-3.24a12.47,12.47,0,0,0-.89-2.24s-1.35.83-1.38,1.63a23.54,23.54,0,0,1-.61,2.88,18.16,18.16,0,0,1,.76-5.47c.76-2.26,4.19-4.7,4.19-4.7,6.7-5.29,9.8-3.42,12.91-2.14,4.59,1.87,4.24,5.28,4.42,8A.17.17,0,0,1,446.86,232.94Z"/><path class="cls-22" d="M438.92,232c-.54-4.22-4-10-4-10s-2,8.62.93,8.62C439.07,230.55,439.46,236.2,438.92,232Z"/><path class="cls-11" d="M438.92,232c-.54-4.22-4-10-4-10a30.15,30.15,0,0,1,5.23,4.76C442.15,229.23,439.46,236.2,438.92,232Z"/><path class="cls-16" d="M423.53,240.34s-.14-1,.22-.91,2.09,1.1,2.26,1.19-.08.87-.33.87,0-.43-.42-.38-.17.54-.17.54-.3.56-.61.22A11.28,11.28,0,0,1,423.53,240.34Z"/><path class="cls-16" d="M424.78,241.41a6.25,6.25,0,0,0,.74,2.05,5.08,5.08,0,0,0,1.64,1.39,2.63,2.63,0,0,1-1.2-.21,2.28,2.28,0,0,1-1.38-2A3.87,3.87,0,0,1,424.78,241.41Z"/><path class="cls-16" d="M427.45,238.4s.24-.82.76-.78a22.24,22.24,0,0,0,2.24-.1,1.09,1.09,0,0,1-.86.31,4.43,4.43,0,0,0-1.7.13A4.27,4.27,0,0,0,427.45,238.4Z"/><path class="cls-24" d="M235.67,122.4c1.7-3.61,6.25-4.4,8-3.29a3.72,3.72,0,0,1,1.07,4c-.64,1.24-4,3-5.45,2.69S235.22,123.35,235.67,122.4Z"/><path class="cls-25" d="M239.67,126a1.66,1.66,0,0,1-.46,0,7,7,0,0,1-3.68-2.79,1,1,0,0,1-.07-.89,6.86,6.86,0,0,1,4.37-3.61,5.16,5.16,0,0,1,3.94.23,4,4,0,0,1,1.15,4.25C244.3,124.37,241.36,126,239.67,126Zm2.05-7.15a6.15,6.15,0,0,0-1.76.26,6.35,6.35,0,0,0-4.08,3.36.66.66,0,0,0,.06.49,6.54,6.54,0,0,0,3.38,2.54c1.35.34,4.6-1.43,5.19-2.57a3.52,3.52,0,0,0-1-3.65A3.33,3.33,0,0,0,241.72,118.88Z"/><path class="cls-24" d="M246.17,117.17c.84-1.43,4.75-3.61,6.35-1.92.71.74,1.23,3,.39,4.08a4.89,4.89,0,0,1-4.74,1.33C246.82,120.08,245.67,118,246.17,117.17Z"/><path class="cls-25" d="M249.27,121.08a3,3,0,0,1-1.19-.21,4.35,4.35,0,0,1-2.13-2.45,1.7,1.7,0,0,1,0-1.36,7,7,0,0,1,4.49-2.63,2.54,2.54,0,0,1,2.23.66c.8.84,1.3,3.18.4,4.38A5.23,5.23,0,0,1,249.27,121.08Zm1.65-6.22-.41,0a6.66,6.66,0,0,0-4.14,2.4,1.3,1.3,0,0,0,0,1,3.86,3.86,0,0,0,1.87,2.17,4.73,4.73,0,0,0,4.47-1.26c.77-1,.23-3.14-.38-3.78A1.88,1.88,0,0,0,250.92,114.86Z"/><polygon class="cls-25" points="226.09 127.34 234.65 123 235.25 124.19 229.1 126.94 226.09 127.34"/><path class="cls-25" d="M244.41,120.42s.5-1.38.81-1.43a7.48,7.48,0,0,1,1.32.05l-.78-1s-1.08-.23-1.25.29a1.49,1.49,0,0,1-.6.78Z"/><path class="cls-26" d="M246.75,130.42a8.36,8.36,0,0,0,3.45-.55,2.94,2.94,0,0,0,1.75-2.53,3.58,3.58,0,0,1-.7,2.54C250.35,131,248.62,131,246.75,130.42Z"/><path class="cls-25" d="M235.85,122.08l-1.2.92s.48,1,.6,1.18,1.43,0,1.43,0A7.49,7.49,0,0,1,235.85,122.08Z"/><path class="cls-25" d="M251,114.36l1.81-.67.54,1.12L253,116s-.58-1.13-1.28-1.22S251,114.36,251,114.36Z"/><path class="cls-16" d="M235.42,122.08a7.3,7.3,0,0,1,1.85-2.67c1-.69,3.31-1.34,3.18-1.92s-1.57.11-2.52.66S236,119,235.42,122.08Z"/><path class="cls-16" d="M246.85,114.4a9.8,9.8,0,0,1,2.45-.8l.58,0s-.2-.76-1.33-.63a5.39,5.39,0,0,0-2.18.83C245.57,114.78,246.85,114.4,246.85,114.4Z"/></g></g></svg>