<svg id="Layer_1" data-name="Layer 1" xmlns="http://www.w3.org/2000/svg" viewBox="0 0 512.15 513.25"><defs><style>.cls-1{fill:none;}.cls-2{fill:#fff;stroke:#fff;stroke-miterlimit:10;}</style></defs><path class="cls-1" d="M412.69,552.34c-64.73,0-129.53-2-194.14.75-37.92,1.6-54.81-2.92-53.45-49.34Q171.22,296.11,165,88.2c-1.39-44.88,14.53-46.61,50.05-46.13,138.35,1.89,276.83,3.49,415.07-.79C675,39.9,676.68,55.83,676.2,91.4c-1.88,138.52-3.48,277.16.79,415.58,1.39,44.88-14.46,47.38-50.07,46.11C555.59,550.55,484.11,552.34,412.69,552.34Z" transform="translate(-164.92 -41.2)"/><path class="cls-2" d="M204.64,488.15c47.29-90.75,59.59-168.88,62.79-249.4C271.52,135.52,327.29,61.5,427.51,64.32c92.11,2.59,145.27,73.92,148.56,173,2.8,84.36,18.3,166.64,63.86,250.88Z" transform="translate(-164.92 -41.2)"/><path class="cls-2" d="M416.87,513.54c13.66,7.57,39.22-8,35.21,20.43-1.12,8-17.18,18.1-27.49,19.59-17.65,2.55-32.78-7.6-35-26.26C389.14,523.76,407.81,517.93,416.87,513.54Z" transform="translate(-164.92 -41.2)"/></svg>