<svg xmlns="http://www.w3.org/2000/svg" xmlns:xlink="http://www.w3.org/1999/xlink" viewBox="0 0 750 500"><defs><style>.cls-1,.cls-13,.cls-20,.cls-37,.cls-45{fill:#fff;}.cls-2{font-size:11.7px;}.cls-2,.cls-27,.cls-6,.cls-8{fill:#939598;}.cls-14,.cls-2,.cls-20,.cls-49{font-family:OpenSans;}.cls-3{letter-spacing:0.01em;}.cls-4{letter-spacing:0em;}.cls-5{letter-spacing:-0.01em;}.cls-23,.cls-26,.cls-48,.cls-7,.cls-9{fill:none;}.cls-23,.cls-26,.cls-7{stroke:#d1d3d4;}.cls-23,.cls-26,.cls-7,.cls-9{stroke-miterlimit:10;}.cls-7{stroke-width:0.5px;}.cls-8{font-size:4.51px;}.cls-13,.cls-22,.cls-37,.cls-45,.cls-8{font-family:OpenSans-Semibold, OpenSans Semibold;font-weight:600;}.cls-9{stroke-width:2px;stroke:url(#linear-gradient);}.cls-10{fill:#fcab10;}.cls-11{fill:#f8333c;}.cls-12{fill:#2b9eb3;}.cls-13{font-size:6.13px;}.cls-14{font-size:9.23px;}.cls-14,.cls-30,.cls-49{fill:#6d6e71;}.cls-15{letter-spacing:-0.01em;}.cls-16{letter-spacing:-0.01em;}.cls-17{letter-spacing:0.01em;}.cls-18{fill:#d1d3d4;}.cls-19{fill:#39b54a;}.cls-20{font-size:5.94px;letter-spacing:0.06em;}.cls-21{letter-spacing:0.1em;}.cls-22{font-size:12.53px;fill:#808285;}.cls-23{stroke-width:0.9px;}.cls-24{fill:#e6e7e8;}.cls-25{fill:#f9f8f7;}.cls-26{stroke-width:1.23px;}.cls-27{font-size:4.43px;}.cls-27,.cls-30{font-family:OpenSans-Light, OpenSans Light;font-weight:300;}.cls-28{letter-spacing:-0.01em;}.cls-29{letter-spacing:0.01em;}.cls-30,.cls-45{font-size:5.32px;}.cls-31{letter-spacing:-0.01em;}.cls-32{letter-spacing:-0.01em;}.cls-33{letter-spacing:0em;}.cls-34{letter-spacing:0em;}.cls-35{fill:#dbd5b5;}.cls-36{fill:#118696;}.cls-37,.cls-53{font-size:3.55px;}.cls-38{letter-spacing:-0.01em;}.cls-39{letter-spacing:0.01em;}.cls-40{letter-spacing:-0.01em;}.cls-41{letter-spacing:-0.01em;}.cls-42{letter-spacing:0em;}.cls-43{letter-spacing:0em;}.cls-44{letter-spacing:0em;}.cls-46{fill:#189624;}.cls-47{fill:#e8901a;}.cls-49{font-size:7.65px;}.cls-50{letter-spacing:-0.01em;}.cls-51{letter-spacing:-0.01em;}.cls-52{letter-spacing:0em;}.cls-53{fill:#a7a9ac;font-family:OpenSansLight-Italic, OpenSansLight Italic;font-style:italic;}.cls-54{letter-spacing:-0.01em;}.cls-55{letter-spacing:0.01em;}.cls-56{letter-spacing:0em;}.cls-57{letter-spacing:-0.01em;}.cls-58{letter-spacing:0em;}.cls-59{letter-spacing:0em;}.cls-60{letter-spacing:-0.01em;}</style><linearGradient id="linear-gradient" x1="216.35" y1="110.43" x2="508.85" y2="110.43" gradientUnits="userSpaceOnUse"><stop offset="0" stop-color="#fcab10"/><stop offset="0.52" stop-color="#f8333c"/><stop offset="1" stop-color="#2b9eb3"/></linearGradient></defs><title>dash</title><g id="OBJECTS"><rect class="cls-1" x="539.91" y="58.73" width="159.29" height="391.33"/><rect class="cls-1" x="295.21" y="30.34" width="403.4" height="22.16"/><text class="cls-2" transform="translate(316.72 44.33)"><tspan class="cls-3">S</tspan><tspan class="cls-4" x="5.84" y="0">ea</tspan><tspan class="cls-5" x="17.34" y="0">r</tspan><tspan x="21.06" y="0">ch</tspan></text><path class="cls-6" d="M305.47,37.39a3.63,3.63,0,0,0,4.85,5.28L312.64,45a.27.27,0,0,0,.36,0l.65-.66a.24.24,0,0,0,0-.35l-2.32-2.32a3.63,3.63,0,0,0-5.86-4.27Zm4.65,4.07a2.57,2.57,0,1,1,0-3.63A2.57,2.57,0,0,1,310.12,41.46Z"/><rect class="cls-1" x="187.93" y="60.49" width="343.56" height="96.94"/><line class="cls-7" x1="216.3" y1="74.43" x2="508.43" y2="74.43"/><line class="cls-7" x1="216.3" y1="91.28" x2="508.43" y2="91.28"/><line class="cls-7" x1="216.3" y1="108.12" x2="508.43" y2="108.12"/><line class="cls-7" x1="216.3" y1="124.97" x2="508.43" y2="124.97"/><line class="cls-7" x1="216.3" y1="141.81" x2="508.43" y2="141.81"/><text class="cls-8" transform="translate(202.37 143.2)">100</text><text class="cls-8" transform="translate(202.37 126.36)">200</text><text class="cls-8" transform="translate(202.37 109.62)">300</text><text class="cls-8" transform="translate(202.37 93)">400</text><text class="cls-8" transform="translate(202.37 76.49)">500</text><path class="cls-9" d="M217,122.33s10.64,8.2,24.16,8.2,31-17.44,59.7-17.44,42.85,12.71,70.63,12.71,49.95-35.46,78.62-35.46c25.42,0,29.92,10.93,58.66,7.42"/><path d="M303,112.65a2.52,2.52,0,1,1-2.51-2.51A2.51,2.51,0,0,1,303,112.65Z"/><path d="M371.53,125.43a2.52,2.52,0,1,1-2.51-2.51A2.51,2.51,0,0,1,371.53,125.43Z"/><path d="M452.58,90.34a2.52,2.52,0,1,1-2.51-2.51A2.51,2.51,0,0,1,452.58,90.34Z"/><rect class="cls-10" x="289.89" y="91.45" width="20.84" height="10.2"/><polygon class="cls-10" points="300.3 103.74 297.27 101 303.33 101 300.3 103.74"/><rect class="cls-11" x="358.15" y="104.3" width="20.84" height="10.2"/><polygon class="cls-11" points="368.57 116.59 365.54 113.85 371.6 113.85 368.57 116.59"/><rect class="cls-12" x="439.5" y="72.24" width="20.84" height="10.2"/><polygon class="cls-12" points="449.92 84.53 446.89 81.78 452.95 81.78 449.92 84.53"/><text class="cls-13" transform="translate(295.24 98.23)">270</text><text class="cls-13" transform="translate(363.22 111.53)">200</text><text class="cls-13" transform="translate(444.86 79.32)">400</text><rect class="cls-1" x="187.93" y="164.23" width="109.04" height="109.04"/><text class="cls-14" transform="translate(218.15 178.92)"><tspan class="cls-15">L</tspan><tspan x="4.23" y="0">o</tspan><tspan class="cls-16" x="9.3" y="0">r</tspan><tspan x="12.22" y="0">e </tspan><tspan class="cls-17" x="18.8" y="0">I</tspan><tspan x="21.1" y="0">psum</tspan></text><path class="cls-18" d="M242.45,200.34A18.41,18.41,0,1,1,224,218.75a18.43,18.43,0,0,1,18.41-18.41m0-8.93a27.35,27.35,0,1,0,27.34,27.34,27.35,27.35,0,0,0-27.34-27.34Z"/><rect class="cls-19" x="211.53" y="254.88" width="61.84" height="10.2"/><text class="cls-20" transform="translate(222.26 262.33)">L<tspan class="cls-21" x="3.17" y="0">ORE IPSUM</tspan></text><path class="cls-19" d="M242.45,191.41v8.94a18.41,18.41,0,1,1,0,36.82,18.1,18.1,0,0,1-7.47-1.6L231.83,244a27.35,27.35,0,1,0,10.62-52.55Z"/><text class="cls-22" transform="translate(231.19 222.75)">65%</text><line class="cls-23" x1="208.97" y1="185.5" x2="275.92" y2="185.5"/><rect class="cls-1" x="304.96" y="164.23" width="109.04" height="109.04"/><text class="cls-14" transform="translate(335.18 178.92)"><tspan class="cls-15">L</tspan><tspan x="4.23" y="0">o</tspan><tspan class="cls-16" x="9.3" y="0">r</tspan><tspan x="12.22" y="0">e </tspan><tspan class="cls-17" x="18.8" y="0">I</tspan><tspan x="21.1" y="0">psum</tspan></text><rect class="cls-12" x="328.56" y="254.88" width="61.84" height="10.2"/><text class="cls-20" transform="translate(339.29 262.33)">L<tspan class="cls-21" x="3.17" y="0">ORE IPSUM</tspan></text><rect class="cls-24" x="318.5" y="191.12" width="84.43" height="52.65" rx="3.95"/><rect class="cls-25" x="392.97" y="196.13" width="0.8" height="42.63"/><rect class="cls-25" x="382.09" y="196.13" width="0.8" height="42.63"/><rect class="cls-25" x="371.2" y="196.13" width="0.8" height="42.63"/><rect class="cls-25" x="360.31" y="196.13" width="0.8" height="42.63"/><rect class="cls-25" x="349.43" y="196.13" width="0.8" height="42.63"/><rect class="cls-25" x="327.65" y="196.13" width="0.8" height="42.63"/><rect class="cls-25" x="338.54" y="196.13" width="0.8" height="42.63"/><path class="cls-12" d="M328.05,231a.78.78,0,0,1-.57-.24.81.81,0,0,1,0-1.14l11-10.69,10.88-2.74,11.1-11,11,4.4,10.57-5.33L393,198.28a.79.79,0,0,1,1.09.31.82.82,0,0,1-.32,1.1l-10.89,6-11.23,5.67L360.91,207,350.24,217.6l-10.9,2.74-10.73,10.39A.75.75,0,0,1,328.05,231Z"/><rect class="cls-10" x="325.88" y="227.99" width="4.34" height="4.34"/><rect class="cls-10" x="336.77" y="217.45" width="4.34" height="4.34"/><rect class="cls-10" x="347.66" y="214.71" width="4.34" height="4.34"/><rect class="cls-10" x="358.54" y="203.93" width="4.34" height="4.34"/><rect class="cls-10" x="369.43" y="208.27" width="4.34" height="4.34"/><rect class="cls-10" x="380.32" y="202.77" width="4.34" height="4.34"/><rect class="cls-10" x="391.2" y="196.81" width="4.34" height="4.34"/><line class="cls-23" x1="326" y1="185.5" x2="392.95" y2="185.5"/><rect class="cls-1" x="421.99" y="164.12" width="109.04" height="109.04"/><rect class="cls-10" x="445.59" y="254.88" width="61.84" height="10.2"/><text class="cls-20" transform="translate(456.33 262.33)">L<tspan class="cls-21" x="3.17" y="0">ORE IPSUM</tspan></text><path class="cls-6" d="M508.29,240.14H517V240H437.37V196.52h.24v-.12h-.24v-.33h-.11v9.06h-2.42v.11h2.42v8.6h-2.42V214h2.42v8.61h-2.42v.12h2.42v8.61h-2.42v.12h2.42v8.67h.06v0h8.8v2.24h.12v-2.24H455m35.57,0h8.74v2.24h.13v-2.24h8.74m-35.34,0h8.75v2.24h.11v-2.24h8.75m-35.34,0h8.75v2.24H464v-2.24h8.74M455,242.38h.11"/><path class="cls-6" d="M433.91,239.48c-.25,0-.38.21-.38.58s.13.57.38.57.36-.21.36-.57S434.15,239.48,433.91,239.48Zm0,1c-.15,0-.22-.12-.22-.44s.07-.45.22-.45.2.12.2.45S434,240.5,433.91,240.5Z"/><polygon class="cls-6" points="432.79 231.05 432.85 231.15 433.11 231 433.11 231.94 433.26 231.94 433.26 230.84 433.13 230.84 432.79 231.05"/><path class="cls-6" d="M433.91,230.82c-.25,0-.38.2-.38.57s.13.57.38.57.36-.21.36-.57S434.15,230.82,433.91,230.82Zm0,1c-.15,0-.22-.12-.22-.44s.07-.45.22-.45.2.12.2.45S434,231.83,433.91,231.83Z"/><polygon class="cls-6" points="445.79 243.22 445.86 243.33 446.11 243.18 446.11 244.11 446.26 244.11 446.26 243.01 446.13 243.01 445.79 243.22"/><path class="cls-6" d="M433.33,222.43a.3.3,0,0,0-.33-.3.39.39,0,0,0-.33.17l.1.07a.28.28,0,0,1,.23-.12.18.18,0,0,1,.18.19c0,.18-.1.28-.49.69v.12h.65l0-.13h-.49C433.2,222.78,433.33,222.64,433.33,222.43Z"/><path class="cls-6" d="M433.91,222.13c-.25,0-.38.2-.38.56s.13.58.38.58.36-.21.36-.58S434.15,222.13,433.91,222.13Zm0,1c-.15,0-.22-.12-.22-.45s.07-.44.22-.44.2.12.2.44S434,223.14,433.91,223.14Z"/><path class="cls-6" d="M464.19,243.3a.3.3,0,0,0-.33-.3.41.41,0,0,0-.34.16l.1.08a.31.31,0,0,1,.23-.12.17.17,0,0,1,.18.18c0,.18-.09.29-.48.69v.12h.65l0-.12h-.5C464.06,243.65,464.19,243.5,464.19,243.3Z"/><path class="cls-6" d="M433,214.33a.3.3,0,0,1-.23-.1l-.09.08a.41.41,0,0,0,.33.15.34.34,0,0,0,.37-.34.26.26,0,0,0-.25-.27.25.25,0,0,0,.22-.25.29.29,0,0,0-.33-.28.42.42,0,0,0-.31.13l.08.09a.3.3,0,0,1,.22-.1.17.17,0,0,1,.19.17.18.18,0,0,1-.2.19h-.06l0,.12H433c.13,0,.21.05.21.2A.2.2,0,0,1,433,214.33Z"/><path class="cls-6" d="M433.91,213.32c-.25,0-.38.21-.38.57s.13.57.38.57.36-.21.36-.57S434.15,213.32,433.91,213.32Zm0,1c-.15,0-.22-.13-.22-.45s.07-.45.22-.45.2.13.2.45S434,214.34,433.91,214.34Z"/><path class="cls-6" d="M481.75,243.53a.25.25,0,0,0,.21-.25.29.29,0,0,0-.32-.28.45.45,0,0,0-.32.13l.08.09a.32.32,0,0,1,.23-.1.16.16,0,0,1,.18.17.19.19,0,0,1-.2.19h-.05l0,.12h.08c.14,0,.22,0,.22.2a.2.2,0,0,1-.22.21.32.32,0,0,1-.24-.11l-.09.09a.42.42,0,0,0,.33.14.34.34,0,0,0,.38-.33A.25.25,0,0,0,481.75,243.53Z"/><polygon class="cls-6" points="433.25 204.88 433.12 204.88 433.11 205.18 432.79 205.18 433.09 204.51 432.96 204.45 432.63 205.19 432.63 205.3 433.1 205.3 433.1 205.57 433.25 205.57 433.25 205.3 433.39 205.3 433.39 205.18 433.25 205.18 433.25 204.88"/><path class="cls-6" d="M433.91,204.46c-.25,0-.38.2-.38.56s.13.57.38.57.36-.2.36-.57S434.15,204.46,433.91,204.46Zm0,1c-.15,0-.22-.13-.22-.45s.07-.45.22-.45.2.12.2.45S434,205.47,433.91,205.47Z"/><polygon class="cls-6" points="499.53 243.43 499.4 243.43 499.39 243.72 499.07 243.72 499.37 243.05 499.24 243 498.91 243.73 498.91 243.84 499.38 243.84 499.38 244.11 499.53 244.11 499.53 243.84 499.67 243.84 499.67 243.72 499.53 243.72 499.53 243.43"/><rect class="cls-10" x="441.71" y="225.48" width="9.74" height="14.41"/><rect class="cls-19" x="459.1" y="217.99" width="9.74" height="21.9"/><rect class="cls-12" x="476.93" y="200.35" width="9.74" height="39.54"/><rect class="cls-11" x="494.71" y="208.44" width="9.74" height="31.46"/><text class="cls-14" transform="translate(452.21 178.92)"><tspan class="cls-15">L</tspan><tspan x="4.23" y="0">o</tspan><tspan class="cls-16" x="9.3" y="0">r</tspan><tspan x="12.22" y="0">e </tspan><tspan class="cls-17" x="18.8" y="0">I</tspan><tspan x="21.1" y="0">psum</tspan></text><line class="cls-23" x1="443.03" y1="185.5" x2="509.99" y2="185.5"/><rect class="cls-1" x="187.93" y="281.47" width="167.72" height="170.36"/><text class="cls-14" transform="translate(244.37 300.52)"><tspan class="cls-15">L</tspan><tspan x="4.23" y="0">o</tspan><tspan class="cls-16" x="9.3" y="0">r</tspan><tspan x="12.22" y="0">em ipsum</tspan></text><line class="cls-26" x1="209.27" y1="318.12" x2="334.3" y2="318.12"/><text class="cls-27" transform="translate(245.82 308.96)"><tspan class="cls-28">c</tspan><tspan x="1.96" y="0">onse</tspan><tspan class="cls-29" x="10.83" y="0">c</tspan><tspan class="cls-28" x="12.87" y="0">t</tspan><tspan x="14.31" y="0">etuer adipiscing elit</tspan></text><text class="cls-30" transform="translate(204.55 337.38)"><tspan class="cls-31">L</tspan><tspan x="2.44" y="0">o</tspan><tspan class="cls-32" x="5.36" y="0">r</tspan><tspan x="7.04" y="0">em ipsum</tspan></text><path class="cls-18" d="M337.84,345.68H205.73a1.63,1.63,0,0,1-1.62-1.63h0a1.63,1.63,0,0,1,1.62-1.62H337.84a1.62,1.62,0,0,1,1.62,1.62h0A1.62,1.62,0,0,1,337.84,345.68Z"/><path class="cls-12" d="M288.81,345.68H205.73a1.63,1.63,0,0,1-1.62-1.63h0a1.63,1.63,0,0,1,1.62-1.62h83.08a1.63,1.63,0,0,1,1.63,1.62h0A1.63,1.63,0,0,1,288.81,345.68Z"/><text class="cls-30" transform="translate(204.55 361.02)"><tspan class="cls-31">L</tspan><tspan x="2.44" y="0">o</tspan><tspan class="cls-32" x="5.36" y="0">r</tspan><tspan x="7.04" y="0">em ipsum</tspan></text><path class="cls-18" d="M337.84,369.32H205.73a1.63,1.63,0,0,1-1.62-1.62h0a1.63,1.63,0,0,1,1.62-1.63H337.84a1.62,1.62,0,0,1,1.62,1.63h0A1.62,1.62,0,0,1,337.84,369.32Z"/><path class="cls-19" d="M271.58,369.32H205.73a1.63,1.63,0,0,1-1.62-1.62h0a1.63,1.63,0,0,1,1.62-1.63h65.85a1.63,1.63,0,0,1,1.63,1.63h0A1.63,1.63,0,0,1,271.58,369.32Z"/><text class="cls-30" transform="translate(204.55 384.66)"><tspan class="cls-31">L</tspan><tspan x="2.44" y="0">o</tspan><tspan class="cls-32" x="5.36" y="0">r</tspan><tspan x="7.04" y="0">em ipsum</tspan></text><rect class="cls-18" x="204.11" y="389.71" width="135.35" height="3.25" rx="1.63"/><rect class="cls-10" x="204.11" y="389.71" width="107.65" height="3.25" rx="1.63"/><text class="cls-30" transform="translate(204.55 408.3)"><tspan class="cls-31">L</tspan><tspan x="2.44" y="0">o</tspan><tspan class="cls-32" x="5.36" y="0">r</tspan><tspan x="7.04" y="0">em ipsum</tspan></text><path class="cls-18" d="M337.84,416.61H205.73a1.63,1.63,0,0,1-1.62-1.63h0a1.62,1.62,0,0,1,1.62-1.62H337.84a1.61,1.61,0,0,1,1.62,1.62h0A1.62,1.62,0,0,1,337.84,416.61Z"/><path class="cls-11" d="M278.21,416.61H205.73a1.63,1.63,0,0,1-1.62-1.63h0a1.62,1.62,0,0,1,1.62-1.62h72.48a1.62,1.62,0,0,1,1.63,1.62h0A1.63,1.63,0,0,1,278.21,416.61Z"/><rect class="cls-1" x="365.4" y="281.47" width="166.53" height="170.36"/><text class="cls-14" transform="translate(419.79 300.52)"><tspan class="cls-33">D</tspan><tspan x="6.18" y="0">olor Sit </tspan><tspan class="cls-34" x="35.2" y="0">A</tspan><tspan x="40.82" y="0">met</tspan></text><line class="cls-26" x1="386.15" y1="318.12" x2="511.17" y2="318.12"/><text class="cls-27" transform="translate(422.69 308.96)"><tspan class="cls-28">c</tspan><tspan x="1.96" y="0">onse</tspan><tspan class="cls-29" x="10.83" y="0">c</tspan><tspan class="cls-28" x="12.87" y="0">t</tspan><tspan x="14.31" y="0">etuer adipiscing elit</tspan></text><rect class="cls-18" x="447.92" y="331.2" width="1.48" height="93.31"/><path class="cls-19" d="M487.27,344.5H455.79a3.88,3.88,0,0,1-3.88-3.88h0a3.88,3.88,0,0,1,3.88-3.88h31.48a3.88,3.88,0,0,1,3.87,3.88h0A3.88,3.88,0,0,1,487.27,344.5Z"/><path class="cls-10" d="M503.89,359.39h-48.1a3.88,3.88,0,0,1-3.88-3.88h0a3.88,3.88,0,0,1,3.88-3.88h48.1a3.88,3.88,0,0,1,3.88,3.88h0A3.88,3.88,0,0,1,503.89,359.39Z"/><path class="cls-11" d="M514.75,374.29h-59a3.88,3.88,0,0,1-3.88-3.88h0a3.88,3.88,0,0,1,3.88-3.88h59a3.88,3.88,0,0,1,3.88,3.88h0A3.88,3.88,0,0,1,514.75,374.29Z"/><path class="cls-35" d="M493.92,389.18H455.79a3.88,3.88,0,0,1-3.88-3.88h0a3.88,3.88,0,0,1,3.88-3.88h38.13a3.88,3.88,0,0,1,3.87,3.88h0A3.88,3.88,0,0,1,493.92,389.18Z"/><path class="cls-12" d="M507.88,404.08H455.79a3.88,3.88,0,0,1-3.88-3.88h0a3.88,3.88,0,0,1,3.88-3.88h52.09a3.88,3.88,0,0,1,3.88,3.88h0A3.88,3.88,0,0,1,507.88,404.08Z"/><path class="cls-36" d="M476,419H455.79a3.88,3.88,0,0,1-3.88-3.88h0a3.88,3.88,0,0,1,3.88-3.88H476a3.88,3.88,0,0,1,3.88,3.88h0A3.88,3.88,0,0,1,476,419Z"/><text class="cls-30" transform="translate(409.44 342.36)"><tspan class="cls-31">L</tspan><tspan x="2.44" y="0">o</tspan><tspan class="cls-32" x="5.36" y="0">r</tspan><tspan x="7.04" y="0">em ipsum</tspan></text><text class="cls-30" transform="translate(409.44 357.33)"><tspan class="cls-31">L</tspan><tspan x="2.44" y="0">o</tspan><tspan class="cls-32" x="5.36" y="0">r</tspan><tspan x="7.04" y="0">em ipsum</tspan></text><text class="cls-30" transform="translate(409.44 372.29)"><tspan class="cls-31">L</tspan><tspan x="2.44" y="0">o</tspan><tspan class="cls-32" x="5.36" y="0">r</tspan><tspan x="7.04" y="0">em ipsum</tspan></text><text class="cls-30" transform="translate(409.44 387.26)"><tspan class="cls-31">L</tspan><tspan x="2.44" y="0">o</tspan><tspan class="cls-32" x="5.36" y="0">r</tspan><tspan x="7.04" y="0">em ipsum</tspan></text><text class="cls-30" transform="translate(409.44 402.23)"><tspan class="cls-31">L</tspan><tspan x="2.44" y="0">o</tspan><tspan class="cls-32" x="5.36" y="0">r</tspan><tspan x="7.04" y="0">em ipsum</tspan></text><text class="cls-30" transform="translate(409.44 417.2)"><tspan class="cls-31">L</tspan><tspan x="2.44" y="0">o</tspan><tspan class="cls-32" x="5.36" y="0">r</tspan><tspan x="7.04" y="0">em ipsum</tspan></text><text class="cls-37" transform="translate(509.02 371.65)">90%</text><text class="cls-37" transform="translate(489.08 386.5)">70%</text><text class="cls-37" transform="translate(502.82 401.35)">85%</text><text class="cls-37" transform="translate(471.12 416.31)">90%</text><text class="cls-37" transform="translate(498.61 356.72)">80%</text><text class="cls-37" transform="translate(482.2 341.65)">60%</text><text class="cls-14" transform="translate(596.26 85.83)"><tspan class="cls-15">L</tspan><tspan x="4.23" y="0">o</tspan><tspan class="cls-16" x="9.3" y="0">r</tspan><tspan x="12.22" y="0">e </tspan><tspan class="cls-17" x="18.8" y="0">I</tspan><tspan x="21.1" y="0">psum</tspan></text><line class="cls-23" x1="587.09" y1="92.41" x2="654.04" y2="92.41"/><text class="cls-30" transform="translate(563.71 106.52)"><tspan class="cls-31">L</tspan><tspan x="2.44" y="0">o</tspan><tspan class="cls-32" x="5.36" y="0">r</tspan><tspan x="7.04" y="0">em ipsum</tspan></text><text class="cls-30" transform="translate(563.71 121.49)"><tspan class="cls-38">c</tspan><tspan x="2.35" y="0">onse</tspan><tspan class="cls-39" x="13" y="0">c</tspan><tspan class="cls-40" x="15.45" y="0">t</tspan><tspan x="17.18" y="0">etuer</tspan></text><text class="cls-30" transform="translate(563.71 136.46)">adipiscing elit</text><text class="cls-30" transform="translate(563.71 151.43)">sed diam nonum<tspan class="cls-41" x="37.47" y="0">m</tspan><tspan x="41.83" y="0">y nibh</tspan></text><text class="cls-30" transform="translate(563.71 166.4)">euismod tincidu<tspan class="cls-42" x="35.95" y="0">n</tspan><tspan x="38.88" y="0">t ut</tspan></text><text class="cls-30" transform="translate(563.71 181.36)"><tspan class="cls-43">D</tspan><tspan x="3.56" y="0">uis au</tspan><tspan class="cls-40" x="16.46" y="0">t</tspan><tspan x="18.19" y="0">em </tspan><tspan class="cls-32" x="26.42" y="0">v</tspan><tspan class="cls-44" x="28.93" y="0">el</tspan></text><path class="cls-10" d="M673.19,110.06H664a4.43,4.43,0,0,1-4.43-4.44h0a4.43,4.43,0,0,1,4.43-4.43h9.21a4.43,4.43,0,0,1,4.44,4.43h0A4.44,4.44,0,0,1,673.19,110.06Z"/><path class="cls-10" d="M673.19,124.79H664a4.43,4.43,0,0,1-4.43-4.43h0a4.43,4.43,0,0,1,4.43-4.43h9.21a4.43,4.43,0,0,1,4.44,4.43h0A4.43,4.43,0,0,1,673.19,124.79Z"/><path class="cls-10" d="M673.19,139.53H664a4.43,4.43,0,0,1-4.43-4.43h0a4.43,4.43,0,0,1,4.43-4.44h9.21a4.44,4.44,0,0,1,4.44,4.44h0A4.44,4.44,0,0,1,673.19,139.53Z"/><path class="cls-10" d="M673.19,183.74H664a4.43,4.43,0,0,1-4.43-4.43h0a4.43,4.43,0,0,1,4.43-4.44h9.21a4.44,4.44,0,0,1,4.44,4.44h0A4.44,4.44,0,0,1,673.19,183.74Z"/><path class="cls-10" d="M673.19,169H664a4.43,4.43,0,0,1-4.43-4.43h0a4.43,4.43,0,0,1,4.43-4.43h9.21a4.43,4.43,0,0,1,4.44,4.43h0A4.43,4.43,0,0,1,673.19,169Z"/><path class="cls-10" d="M673.19,154.27H664a4.43,4.43,0,0,1-4.43-4.44h0A4.43,4.43,0,0,1,664,145.4h9.21a4.43,4.43,0,0,1,4.44,4.43h0A4.44,4.44,0,0,1,673.19,154.27Z"/><text class="cls-45" transform="translate(664.03 107.15)">634</text><text class="cls-45" transform="translate(664.03 181.33)">434</text><text class="cls-45" transform="translate(664.03 166.49)">334</text><text class="cls-45" transform="translate(666.47 151.66)">90</text><text class="cls-45" transform="translate(664.03 136.82)">123</text><text class="cls-45" transform="translate(664.03 121.99)">541</text><text class="cls-14" transform="translate(596.26 212.91)"><tspan class="cls-15">L</tspan><tspan x="4.23" y="0">o</tspan><tspan class="cls-16" x="9.3" y="0">r</tspan><tspan x="12.22" y="0">e </tspan><tspan class="cls-17" x="18.8" y="0">I</tspan><tspan x="21.1" y="0">psum</tspan></text><line class="cls-23" x1="587.09" y1="219.49" x2="654.04" y2="219.49"/><rect class="cls-12" x="573.91" y="237.51" width="3.23" height="67.68"/><rect class="cls-36" x="573.91" y="259.49" width="3.23" height="45.7"/><rect class="cls-19" x="580.12" y="255.91" width="3.23" height="49.28"/><rect class="cls-46" x="580.12" y="273.64" width="3.23" height="31.55"/><rect class="cls-10" x="586.32" y="265.24" width="3.23" height="39.95"/><rect class="cls-47" x="586.32" y="281.1" width="3.23" height="24.09"/><rect class="cls-12" x="604.72" y="246.53" width="3.23" height="58.66"/><rect class="cls-36" x="604.72" y="265.58" width="3.23" height="39.61"/><rect class="cls-19" x="610.93" y="262.47" width="3.23" height="42.72"/><rect class="cls-46" x="610.93" y="277.84" width="3.23" height="27.35"/><rect class="cls-10" x="617.13" y="254.95" width="3.23" height="50.24"/><rect class="cls-47" x="617.13" y="274.9" width="3.23" height="30.29"/><rect class="cls-12" x="635.31" y="237.51" width="3.23" height="67.68"/><rect class="cls-36" x="635.31" y="259.49" width="3.23" height="45.7"/><rect class="cls-19" x="641.51" y="255.91" width="3.23" height="49.28"/><rect class="cls-46" x="641.51" y="273.64" width="3.23" height="31.55"/><rect class="cls-10" x="647.72" y="265.24" width="3.23" height="39.95"/><rect class="cls-47" x="647.72" y="281.1" width="3.23" height="24.09"/><rect class="cls-12" x="665.9" y="273.72" width="3.23" height="31.47"/><rect class="cls-36" x="665.9" y="283.94" width="3.23" height="21.25"/><rect class="cls-19" x="672.1" y="265.59" width="3.23" height="39.6"/><rect class="cls-46" x="672.1" y="279.84" width="3.23" height="25.35"/><rect class="cls-10" x="678.31" y="241.8" width="3.23" height="63.39"/><rect class="cls-47" x="678.31" y="266.97" width="3.23" height="38.22"/><path class="cls-6" d="M681.52,305.54h15.09v-.18H559V230.21h.41V230H559v-.59h-.2v15.65h-4.18v.2h4.18v14.86h-4.18v.2h4.18v14.86h-4.18v.22h4.18v14.87h-4.18v.2h4.18v15h.11v.09h15.2v3.88h.2v-3.88h15.11m61.44,0H666v3.88h.21v-3.88h15.1m-61,0h15.12v3.88h.2v-3.88h15.11m-61,0h15.1v3.88H605v-3.88h15.09m-30.61,3.88h.2"/><path class="cls-6" d="M553,304.41c-.43,0-.64.35-.64,1s.21,1,.64,1,.63-.36.63-1S553.47,304.41,553,304.41Zm0,1.76c-.24,0-.37-.21-.37-.76s.13-.78.37-.78.35.21.35.78S553.27,306.17,553,306.17Z"/><polygon class="cls-6" points="551.11 289.84 551.22 290.02 551.67 289.75 551.67 291.37 551.93 291.37 551.93 289.47 551.7 289.47 551.11 289.84"/><path class="cls-6" d="M553,289.45c-.43,0-.64.34-.64,1s.21,1,.64,1,.63-.35.63-1S553.47,289.45,553,289.45Zm0,1.75c-.24,0-.37-.22-.37-.77s.13-.78.37-.78.35.21.35.78S553.27,291.2,553,291.2Z"/><polygon class="cls-6" points="573.57 310.87 573.68 311.05 574.12 310.78 574.12 312.41 574.38 312.41 574.38 310.5 574.15 310.5 573.57 310.87"/><path class="cls-6" d="M552.05,275a.52.52,0,0,0-.57-.52.68.68,0,0,0-.57.28l.17.14a.46.46,0,0,1,.39-.21.3.3,0,0,1,.31.32c0,.31-.16.49-.83,1.19v.2h1.12l0-.21h-.86C551.83,275.56,552.05,275.31,552.05,275Z"/><path class="cls-6" d="M553,274.43c-.43,0-.64.35-.64,1s.21,1,.64,1,.63-.35.63-1S553.47,274.43,553,274.43Zm0,1.76c-.24,0-.37-.21-.37-.78s.13-.77.37-.77.35.22.35.77S553.27,276.19,553,276.19Z"/><path class="cls-6" d="M605.34,311a.52.52,0,0,0-.57-.52.68.68,0,0,0-.57.28l.17.14a.49.49,0,0,1,.39-.21.3.3,0,0,1,.31.32c0,.31-.16.49-.83,1.19v.21h1.12l0-.22h-.86C605.12,311.61,605.34,311.35,605.34,311Z"/><path class="cls-6" d="M551.43,261a.53.53,0,0,1-.41-.18l-.15.14a.72.72,0,0,0,.57.26.59.59,0,0,0,.64-.59.45.45,0,0,0-.42-.46.42.42,0,0,0,.36-.43.5.5,0,0,0-.56-.49.78.78,0,0,0-.54.23l.14.15a.52.52,0,0,1,.39-.17.28.28,0,0,1,.31.29.32.32,0,0,1-.34.34h-.1l0,.2h.14c.23,0,.38.08.38.34A.34.34,0,0,1,551.43,261Z"/><path class="cls-6" d="M553,259.22c-.43,0-.64.36-.64,1s.21,1,.64,1,.63-.35.63-1S553.47,259.22,553,259.22Zm0,1.76c-.24,0-.37-.23-.37-.78s.13-.78.37-.78.35.23.35.78S553.27,261,553,261Z"/><path class="cls-6" d="M635.67,311.4A.43.43,0,0,0,636,311a.49.49,0,0,0-.56-.48.76.76,0,0,0-.54.22l.13.16a.55.55,0,0,1,.4-.17.28.28,0,0,1,.31.29.31.31,0,0,1-.34.33h-.1l0,.2h.14c.23,0,.38.08.38.35a.35.35,0,0,1-.38.37A.54.54,0,0,1,635,312l-.16.15a.74.74,0,0,0,.58.25.58.58,0,0,0,.64-.58A.43.43,0,0,0,635.67,311.4Z"/><polygon class="cls-6" points="551.91 244.65 551.68 244.65 551.66 245.16 551.12 245.16 551.63 244 551.41 243.91 550.84 245.18 550.84 245.37 551.65 245.37 551.65 245.84 551.91 245.84 551.91 245.37 552.16 245.37 552.16 245.16 551.91 245.16 551.91 244.65"/><path class="cls-6" d="M553,243.91c-.43,0-.64.35-.64,1s.21,1,.64,1,.63-.35.63-1S553.47,243.91,553,243.91Zm0,1.75c-.24,0-.37-.22-.37-.77s.13-.78.37-.78.35.21.35.78S553.27,245.66,553,245.66Z"/><polygon class="cls-6" points="666.38 311.22 666.16 311.22 666.13 311.73 665.59 311.73 666.11 310.57 665.89 310.48 665.32 311.75 665.32 311.94 666.13 311.94 666.13 312.41 666.38 312.41 666.38 311.94 666.63 311.94 666.63 311.73 666.38 311.73 666.38 311.22"/><polyline class="cls-48" points="605.18 422.12 601.54 418.48 595.15 412.09 591.11 408.04"/><rect class="cls-18" x="615.34" y="410.18" width="67.6" height="2.81"/><rect class="cls-12" x="615.34" y="410.18" width="43.12" height="2.81"/><path class="cls-18" d="M584.68,378.55A18.41,18.41,0,1,1,566.27,397a18.42,18.42,0,0,1,18.41-18.41m0-8.93A27.34,27.34,0,1,0,612,397a27.34,27.34,0,0,0-27.34-27.34Z"/><text class="cls-14" transform="translate(596.26 337.03)"><tspan class="cls-15">L</tspan><tspan x="4.23" y="0">o</tspan><tspan class="cls-16" x="9.3" y="0">r</tspan><tspan x="12.22" y="0">e </tspan><tspan class="cls-17" x="18.8" y="0">I</tspan><tspan x="21.1" y="0">psum</tspan></text><line class="cls-23" x1="587.09" y1="343.61" x2="654.04" y2="343.61"/><text class="cls-22" transform="translate(573.41 400.96)">50%</text><path class="cls-12" d="M584.67,369.62h-.21v8.94h.21a18.4,18.4,0,0,1,10.48,33.54l6.39,6.39a27.34,27.34,0,0,0-16.87-48.86Z"/><text class="cls-49" transform="translate(615.99 379.72)"><tspan class="cls-50">L</tspan><tspan x="3.51" y="0">o</tspan><tspan class="cls-51" x="7.71" y="0">r</tspan><tspan class="cls-52" x="10.13" y="0">em ipsum dolor</tspan></text><text class="cls-53" transform="translate(616.45 390.87)"><tspan class="cls-54">c</tspan><tspan x="1.57" y="0">onse</tspan><tspan class="cls-55" x="8.66" y="0">c</tspan><tspan class="cls-54" x="10.3" y="0">t</tspan><tspan x="11.45" y="0">etuer adipiscing eli</tspan><tspan class="cls-56" x="39.4" y="0">t</tspan><tspan x="40.56" y="0">, sed diam </tspan><tspan x="0" y="4.26">nonum</tspan><tspan class="cls-57" x="10.79" y="4.26">m</tspan><tspan x="13.71" y="4.26">y nibh euismod tincidu</tspan><tspan class="cls-58" x="47.63" y="4.26">n</tspan><tspan x="49.58" y="4.26" xml:space="preserve">t ut   </tspan><tspan class="cls-59" x="56.89" y="4.26">e</tspan><tspan x="58.66" y="4.26">x ea </tspan><tspan class="cls-54" x="0" y="8.51">c</tspan><tspan x="1.57" y="8.51">ommo do </tspan><tspan class="cls-60" x="16.83" y="8.51">c</tspan><tspan x="18.39" y="8.51">onsequ</tspan><tspan class="cls-58" x="29.44" y="8.51">a</tspan><tspan x="31.14" y="8.51">t</tspan></text></g></svg>